%TF.GenerationSoftware,KiCad,Pcbnew,(5.1.9)-1*%
%TF.CreationDate,2021-04-25T13:20:26-07:00*%
%TF.ProjectId,LM380_BridgeAmp,4c4d3338-305f-4427-9269-646765416d70,v01*%
%TF.SameCoordinates,Original*%
%TF.FileFunction,Copper,L1,Top*%
%TF.FilePolarity,Positive*%
%FSLAX46Y46*%
G04 Gerber Fmt 4.6, Leading zero omitted, Abs format (unit mm)*
G04 Created by KiCad (PCBNEW (5.1.9)-1) date 2021-04-25 13:20:26*
%MOMM*%
%LPD*%
G01*
G04 APERTURE LIST*
%TA.AperFunction,ComponentPad*%
%ADD10C,1.850000*%
%TD*%
%TA.AperFunction,ComponentPad*%
%ADD11O,2.200000X2.200000*%
%TD*%
%TA.AperFunction,ComponentPad*%
%ADD12R,2.200000X2.200000*%
%TD*%
%TA.AperFunction,ComponentPad*%
%ADD13R,1.600000X1.600000*%
%TD*%
%TA.AperFunction,ComponentPad*%
%ADD14C,1.600000*%
%TD*%
%TA.AperFunction,ComponentPad*%
%ADD15O,1.600000X1.600000*%
%TD*%
%TA.AperFunction,ComponentPad*%
%ADD16R,1.800000X1.800000*%
%TD*%
%TA.AperFunction,ComponentPad*%
%ADD17C,1.800000*%
%TD*%
%TA.AperFunction,ComponentPad*%
%ADD18O,4.000000X4.000000*%
%TD*%
%TA.AperFunction,ComponentPad*%
%ADD19C,2.850000*%
%TD*%
%TA.AperFunction,ComponentPad*%
%ADD20R,2.850000X2.850000*%
%TD*%
%TA.AperFunction,Conductor*%
%ADD21C,0.680000*%
%TD*%
%TA.AperFunction,Conductor*%
%ADD22C,0.250000*%
%TD*%
%TA.AperFunction,Conductor*%
%ADD23C,0.254000*%
%TD*%
%TA.AperFunction,Conductor*%
%ADD24C,0.150000*%
%TD*%
G04 APERTURE END LIST*
D10*
%TO.P,J1,2*%
%TO.N,GND*%
X124800000Y-62000000D03*
%TO.P,J1,1*%
%TO.N,Net-(J1-Pad1)*%
%TA.AperFunction,ComponentPad*%
G36*
G01*
X119675000Y-62675001D02*
X119675000Y-61324999D01*
G75*
G02*
X119924999Y-61075000I249999J0D01*
G01*
X121275001Y-61075000D01*
G75*
G02*
X121525000Y-61324999I0J-249999D01*
G01*
X121525000Y-62675001D01*
G75*
G02*
X121275001Y-62925000I-249999J0D01*
G01*
X119924999Y-62925000D01*
G75*
G02*
X119675000Y-62675001I0J249999D01*
G01*
G37*
%TD.AperFunction*%
%TD*%
D11*
%TO.P,D1,2*%
%TO.N,GND*%
X119500000Y-77160000D03*
D12*
%TO.P,D1,1*%
%TO.N,+15V*%
X119500000Y-67000000D03*
%TD*%
D13*
%TO.P,C1,1*%
%TO.N,+15V*%
X160200000Y-76000000D03*
D14*
%TO.P,C1,2*%
%TO.N,GND*%
X160200000Y-78500000D03*
%TD*%
%TO.P,C2,1*%
%TO.N,+15V*%
X155000000Y-76000000D03*
%TO.P,C2,2*%
%TO.N,GND*%
X155000000Y-78500000D03*
%TD*%
%TO.P,C3,2*%
%TO.N,Net-(C3-Pad2)*%
X144600000Y-66000000D03*
D13*
%TO.P,C3,1*%
%TO.N,Net-(C3-Pad1)*%
X146600000Y-66000000D03*
%TD*%
D14*
%TO.P,C4,1*%
%TO.N,Net-(C4-Pad1)*%
X151800000Y-61900000D03*
%TO.P,C4,2*%
%TO.N,Net-(C3-Pad1)*%
X156800000Y-61900000D03*
%TD*%
D13*
%TO.P,C5,1*%
%TO.N,Net-(C5-Pad1)*%
X166800000Y-76200000D03*
D14*
%TO.P,C5,2*%
%TO.N,GND*%
X166800000Y-78200000D03*
%TD*%
D13*
%TO.P,C6,1*%
%TO.N,Net-(C6-Pad1)*%
X150300000Y-76200000D03*
D14*
%TO.P,C6,2*%
%TO.N,GND*%
X150300000Y-78200000D03*
%TD*%
%TO.P,C7,1*%
%TO.N,Net-(C7-Pad1)*%
X174000000Y-77300000D03*
D15*
%TO.P,C7,2*%
%TO.N,Net-(C7-Pad2)*%
X174000000Y-67300000D03*
%TD*%
D16*
%TO.P,D2,1*%
%TO.N,GND*%
X104000000Y-72700000D03*
D17*
%TO.P,D2,2*%
%TO.N,Net-(D2-Pad2)*%
X104000000Y-70160000D03*
%TD*%
%TO.P,LS1,1*%
%TO.N,Net-(LS1-Pad1)*%
%TA.AperFunction,ComponentPad*%
G36*
G01*
X172775000Y-62675001D02*
X172775000Y-61324999D01*
G75*
G02*
X173024999Y-61075000I249999J0D01*
G01*
X174375001Y-61075000D01*
G75*
G02*
X174625000Y-61324999I0J-249999D01*
G01*
X174625000Y-62675001D01*
G75*
G02*
X174375001Y-62925000I-249999J0D01*
G01*
X173024999Y-62925000D01*
G75*
G02*
X172775000Y-62675001I0J249999D01*
G01*
G37*
%TD.AperFunction*%
D10*
%TO.P,LS1,2*%
%TO.N,Net-(C7-Pad2)*%
X177900000Y-62000000D03*
%TD*%
D15*
%TO.P,R1,2*%
%TO.N,Net-(D2-Pad2)*%
X106380000Y-62000000D03*
D14*
%TO.P,R1,1*%
%TO.N,+15V*%
X114000000Y-62000000D03*
%TD*%
%TO.P,R2,1*%
%TO.N,Net-(C3-Pad2)*%
X145600000Y-73400000D03*
D15*
%TO.P,R2,2*%
%TO.N,Net-(R2-Pad2)*%
X145600000Y-81020000D03*
%TD*%
D14*
%TO.P,R3,1*%
%TO.N,Net-(C4-Pad1)*%
X169200000Y-61900000D03*
D15*
%TO.P,R3,2*%
%TO.N,Net-(C3-Pad1)*%
X161580000Y-61900000D03*
%TD*%
%TO.P,R4,2*%
%TO.N,Net-(C7-Pad2)*%
X177900000Y-67280000D03*
D14*
%TO.P,R4,1*%
%TO.N,Net-(C5-Pad1)*%
X177900000Y-74900000D03*
%TD*%
%TO.P,R5,1*%
%TO.N,Net-(LS1-Pad1)*%
X170600000Y-81000000D03*
D15*
%TO.P,R5,2*%
%TO.N,Net-(C7-Pad1)*%
X178220000Y-81000000D03*
%TD*%
D18*
%TO.P,RV1,*%
%TO.N,*%
X141250000Y-70750000D03*
X131750000Y-70750000D03*
D17*
%TO.P,RV1,3*%
%TO.N,GND*%
X139000000Y-78250000D03*
%TO.P,RV1,2*%
%TO.N,Net-(R2-Pad2)*%
X136500000Y-78250000D03*
D16*
%TO.P,RV1,1*%
%TO.N,/IN*%
X134000000Y-78250000D03*
%TD*%
D19*
%TO.P,SW1,3*%
%TO.N,+15V*%
X114000000Y-67000000D03*
%TO.P,SW1,2*%
%TO.N,Net-(J1-Pad1)*%
X114000000Y-71700000D03*
D20*
%TO.P,SW1,1*%
%TO.N,Net-(SW1-Pad1)*%
X114000000Y-76400000D03*
%TD*%
%TO.P,SW2,1*%
%TO.N,Net-(J3-Pad1)*%
X125000000Y-67000000D03*
D19*
%TO.P,SW2,2*%
%TO.N,/IN*%
X125000000Y-71700000D03*
%TO.P,SW2,3*%
%TO.N,Net-(J2-Pad1)*%
X125000000Y-76400000D03*
%TD*%
D13*
%TO.P,U1,1*%
%TO.N,Net-(U1-Pad1)*%
X162610000Y-64950000D03*
D15*
%TO.P,U1,5*%
%TO.N,GND*%
X170230000Y-72570000D03*
%TO.P,U1,2*%
%TO.N,Net-(C3-Pad1)*%
X165150000Y-64950000D03*
%TO.P,U1,6*%
%TO.N,Net-(LS1-Pad1)*%
X167690000Y-72570000D03*
%TO.P,U1,3*%
%TO.N,Net-(C4-Pad1)*%
X167690000Y-64950000D03*
%TO.P,U1,7*%
%TO.N,+15V*%
X165150000Y-72570000D03*
%TO.P,U1,4*%
%TO.N,GND*%
X170230000Y-64950000D03*
%TO.P,U1,8*%
%TO.N,Net-(C5-Pad1)*%
X162610000Y-72570000D03*
%TD*%
%TO.P,U2,8*%
%TO.N,Net-(C6-Pad1)*%
X150300000Y-72570000D03*
%TO.P,U2,4*%
%TO.N,GND*%
X157920000Y-64950000D03*
%TO.P,U2,7*%
%TO.N,+15V*%
X152840000Y-72570000D03*
%TO.P,U2,3*%
%TO.N,Net-(C3-Pad1)*%
X155380000Y-64950000D03*
%TO.P,U2,6*%
%TO.N,Net-(C7-Pad2)*%
X155380000Y-72570000D03*
%TO.P,U2,2*%
%TO.N,Net-(C4-Pad1)*%
X152840000Y-64950000D03*
%TO.P,U2,5*%
%TO.N,GND*%
X157920000Y-72570000D03*
D13*
%TO.P,U2,1*%
%TO.N,Net-(U2-Pad1)*%
X150300000Y-64950000D03*
%TD*%
%TO.P,J2,1*%
%TO.N,Net-(J2-Pad1)*%
%TA.AperFunction,ComponentPad*%
G36*
G01*
X117025000Y-80324999D02*
X117025000Y-81675001D01*
G75*
G02*
X116775001Y-81925000I-249999J0D01*
G01*
X115424999Y-81925000D01*
G75*
G02*
X115175000Y-81675001I0J249999D01*
G01*
X115175000Y-80324999D01*
G75*
G02*
X115424999Y-80075000I249999J0D01*
G01*
X116775001Y-80075000D01*
G75*
G02*
X117025000Y-80324999I0J-249999D01*
G01*
G37*
%TD.AperFunction*%
D10*
%TO.P,J2,2*%
%TO.N,GND*%
X111900000Y-81000000D03*
%TD*%
%TO.P,J3,1*%
%TO.N,Net-(J3-Pad1)*%
%TA.AperFunction,ComponentPad*%
G36*
G01*
X131525000Y-80324999D02*
X131525000Y-81675001D01*
G75*
G02*
X131275001Y-81925000I-249999J0D01*
G01*
X129924999Y-81925000D01*
G75*
G02*
X129675000Y-81675001I0J249999D01*
G01*
X129675000Y-80324999D01*
G75*
G02*
X129924999Y-80075000I249999J0D01*
G01*
X131275001Y-80075000D01*
G75*
G02*
X131525000Y-80324999I0J-249999D01*
G01*
G37*
%TD.AperFunction*%
%TO.P,J3,2*%
X126400000Y-81000000D03*
%TO.P,J3,3*%
%TO.N,GND*%
X122200000Y-81000000D03*
%TD*%
D21*
%TO.N,+15V*%
X114000000Y-67000000D02*
X119500000Y-67000000D01*
X152840000Y-73840000D02*
X155000000Y-76000000D01*
X152840000Y-72570000D02*
X152840000Y-73840000D01*
X155000000Y-76000000D02*
X160200000Y-76000000D01*
X160200000Y-76000000D02*
X163200000Y-76000000D01*
X165150000Y-74050000D02*
X165150000Y-72570000D01*
X163200000Y-76000000D02*
X165150000Y-74050000D01*
X152100000Y-69400000D02*
X152840000Y-70140000D01*
X144300000Y-69400000D02*
X152100000Y-69400000D01*
X139100000Y-64200000D02*
X144300000Y-69400000D01*
X152840000Y-70140000D02*
X152840000Y-72570000D01*
X120400000Y-64200000D02*
X139100000Y-64200000D01*
X119500000Y-65100000D02*
X120400000Y-64200000D01*
X119500000Y-67000000D02*
X119500000Y-65100000D01*
D22*
%TO.N,Net-(C3-Pad1)*%
X155380000Y-63320000D02*
X156800000Y-61900000D01*
X155380000Y-64950000D02*
X155380000Y-63320000D01*
X156800000Y-61900000D02*
X161580000Y-61900000D01*
X165150000Y-65550000D02*
X165150000Y-64950000D01*
X147900000Y-66000000D02*
X148900000Y-67000000D01*
X146600000Y-66000000D02*
X147900000Y-66000000D01*
X154600000Y-67000000D02*
X155380000Y-66220000D01*
X148900000Y-67000000D02*
X154600000Y-67000000D01*
X155380000Y-64950000D02*
X155380000Y-66220000D01*
X156160000Y-67000000D02*
X155380000Y-66220000D01*
X164700000Y-67000000D02*
X156160000Y-67000000D01*
X165150000Y-66550000D02*
X164700000Y-67000000D01*
X165150000Y-64950000D02*
X165150000Y-66550000D01*
%TO.N,Net-(C4-Pad1)*%
X152840000Y-62940000D02*
X151800000Y-61900000D01*
X152840000Y-64950000D02*
X152840000Y-62940000D01*
X167690000Y-63410000D02*
X169200000Y-61900000D01*
X167690000Y-64950000D02*
X167690000Y-63410000D01*
%TO.N,Net-(C5-Pad1)*%
X166800000Y-76200000D02*
X168900000Y-76200000D01*
X170200000Y-74900000D02*
X177900000Y-74900000D01*
X168900000Y-76200000D02*
X170200000Y-74900000D01*
%TO.N,Net-(C6-Pad1)*%
X150300000Y-72570000D02*
X150300000Y-76200000D01*
%TO.N,Net-(C7-Pad1)*%
X174000000Y-77300000D02*
X176800000Y-77300000D01*
X178220000Y-78720000D02*
X178200000Y-78700000D01*
X178220000Y-81000000D02*
X178220000Y-78720000D01*
X176800000Y-77300000D02*
X178200000Y-78700000D01*
D21*
%TO.N,Net-(C7-Pad2)*%
X155380000Y-72570000D02*
X155380000Y-70520000D01*
X155380000Y-70520000D02*
X156500000Y-69400000D01*
X171900000Y-69400000D02*
X174000000Y-67300000D01*
X156500000Y-69400000D02*
X171900000Y-69400000D01*
X177880000Y-67300000D02*
X177900000Y-67280000D01*
X174000000Y-67300000D02*
X177880000Y-67300000D01*
X177900000Y-67280000D02*
X177900000Y-62000000D01*
%TO.N,Net-(R2-Pad2)*%
X145580000Y-81000000D02*
X145600000Y-81020000D01*
D22*
X136500000Y-78250000D02*
X136500000Y-80100000D01*
X137420000Y-81020000D02*
X145600000Y-81020000D01*
X136500000Y-80100000D02*
X137420000Y-81020000D01*
%TO.N,/IN*%
X125000000Y-71700000D02*
X131500000Y-78200000D01*
X133950000Y-78200000D02*
X134000000Y-78250000D01*
X131500000Y-78200000D02*
X133950000Y-78200000D01*
%TD*%
D23*
%TO.N,GND*%
X179544000Y-82544000D02*
X100456000Y-82544000D01*
X100456000Y-81988724D01*
X111014514Y-81988724D01*
X111102538Y-82221807D01*
X111356224Y-82353907D01*
X111630807Y-82433978D01*
X111915734Y-82458942D01*
X112200057Y-82427839D01*
X112472849Y-82341865D01*
X112697462Y-82221807D01*
X112785486Y-81988724D01*
X111900000Y-81103238D01*
X111014514Y-81988724D01*
X100456000Y-81988724D01*
X100456000Y-81015734D01*
X110441058Y-81015734D01*
X110472161Y-81300057D01*
X110558135Y-81572849D01*
X110678193Y-81797462D01*
X110911276Y-81885486D01*
X111796762Y-81000000D01*
X112003238Y-81000000D01*
X112888724Y-81885486D01*
X113121807Y-81797462D01*
X113253907Y-81543776D01*
X113333978Y-81269193D01*
X113358942Y-80984266D01*
X113327839Y-80699943D01*
X113241865Y-80427151D01*
X113187264Y-80324999D01*
X114792157Y-80324999D01*
X114792157Y-81675001D01*
X114804317Y-81798462D01*
X114840329Y-81917179D01*
X114898810Y-82026589D01*
X114977512Y-82122488D01*
X115073411Y-82201190D01*
X115182821Y-82259671D01*
X115301538Y-82295683D01*
X115424999Y-82307843D01*
X116775001Y-82307843D01*
X116898462Y-82295683D01*
X117017179Y-82259671D01*
X117126589Y-82201190D01*
X117222488Y-82122488D01*
X117301190Y-82026589D01*
X117321429Y-81988724D01*
X121314514Y-81988724D01*
X121402538Y-82221807D01*
X121656224Y-82353907D01*
X121930807Y-82433978D01*
X122215734Y-82458942D01*
X122500057Y-82427839D01*
X122772849Y-82341865D01*
X122997462Y-82221807D01*
X123085486Y-81988724D01*
X122200000Y-81103238D01*
X121314514Y-81988724D01*
X117321429Y-81988724D01*
X117359671Y-81917179D01*
X117395683Y-81798462D01*
X117407843Y-81675001D01*
X117407843Y-81015734D01*
X120741058Y-81015734D01*
X120772161Y-81300057D01*
X120858135Y-81572849D01*
X120978193Y-81797462D01*
X121211276Y-81885486D01*
X122096762Y-81000000D01*
X122303238Y-81000000D01*
X123188724Y-81885486D01*
X123421807Y-81797462D01*
X123553907Y-81543776D01*
X123633978Y-81269193D01*
X123658942Y-80984266D01*
X123646592Y-80871370D01*
X125094000Y-80871370D01*
X125094000Y-81128630D01*
X125144189Y-81380946D01*
X125242638Y-81618623D01*
X125385564Y-81832526D01*
X125567474Y-82014436D01*
X125781377Y-82157362D01*
X126019054Y-82255811D01*
X126271370Y-82306000D01*
X126528630Y-82306000D01*
X126780946Y-82255811D01*
X127018623Y-82157362D01*
X127232526Y-82014436D01*
X127414436Y-81832526D01*
X127557362Y-81618623D01*
X127655811Y-81380946D01*
X127706000Y-81128630D01*
X127706000Y-80871370D01*
X127655811Y-80619054D01*
X127557362Y-80381377D01*
X127519692Y-80324999D01*
X129292157Y-80324999D01*
X129292157Y-81675001D01*
X129304317Y-81798462D01*
X129340329Y-81917179D01*
X129398810Y-82026589D01*
X129477512Y-82122488D01*
X129573411Y-82201190D01*
X129682821Y-82259671D01*
X129801538Y-82295683D01*
X129924999Y-82307843D01*
X131275001Y-82307843D01*
X131398462Y-82295683D01*
X131517179Y-82259671D01*
X131626589Y-82201190D01*
X131722488Y-82122488D01*
X131801190Y-82026589D01*
X131859671Y-81917179D01*
X131895683Y-81798462D01*
X131907843Y-81675001D01*
X131907843Y-80324999D01*
X131895683Y-80201538D01*
X131859671Y-80082821D01*
X131801190Y-79973411D01*
X131722488Y-79877512D01*
X131626589Y-79798810D01*
X131517179Y-79740329D01*
X131398462Y-79704317D01*
X131275001Y-79692157D01*
X129924999Y-79692157D01*
X129801538Y-79704317D01*
X129682821Y-79740329D01*
X129573411Y-79798810D01*
X129477512Y-79877512D01*
X129398810Y-79973411D01*
X129340329Y-80082821D01*
X129304317Y-80201538D01*
X129292157Y-80324999D01*
X127519692Y-80324999D01*
X127414436Y-80167474D01*
X127232526Y-79985564D01*
X127018623Y-79842638D01*
X126780946Y-79744189D01*
X126528630Y-79694000D01*
X126271370Y-79694000D01*
X126019054Y-79744189D01*
X125781377Y-79842638D01*
X125567474Y-79985564D01*
X125385564Y-80167474D01*
X125242638Y-80381377D01*
X125144189Y-80619054D01*
X125094000Y-80871370D01*
X123646592Y-80871370D01*
X123627839Y-80699943D01*
X123541865Y-80427151D01*
X123421807Y-80202538D01*
X123188724Y-80114514D01*
X122303238Y-81000000D01*
X122096762Y-81000000D01*
X121211276Y-80114514D01*
X120978193Y-80202538D01*
X120846093Y-80456224D01*
X120766022Y-80730807D01*
X120741058Y-81015734D01*
X117407843Y-81015734D01*
X117407843Y-80324999D01*
X117395683Y-80201538D01*
X117359671Y-80082821D01*
X117321430Y-80011276D01*
X121314514Y-80011276D01*
X122200000Y-80896762D01*
X123085486Y-80011276D01*
X122997462Y-79778193D01*
X122743776Y-79646093D01*
X122469193Y-79566022D01*
X122184266Y-79541058D01*
X121899943Y-79572161D01*
X121627151Y-79658135D01*
X121402538Y-79778193D01*
X121314514Y-80011276D01*
X117321430Y-80011276D01*
X117301190Y-79973411D01*
X117222488Y-79877512D01*
X117126589Y-79798810D01*
X117017179Y-79740329D01*
X116898462Y-79704317D01*
X116775001Y-79692157D01*
X115424999Y-79692157D01*
X115301538Y-79704317D01*
X115182821Y-79740329D01*
X115073411Y-79798810D01*
X114977512Y-79877512D01*
X114898810Y-79973411D01*
X114840329Y-80082821D01*
X114804317Y-80201538D01*
X114792157Y-80324999D01*
X113187264Y-80324999D01*
X113121807Y-80202538D01*
X112888724Y-80114514D01*
X112003238Y-81000000D01*
X111796762Y-81000000D01*
X110911276Y-80114514D01*
X110678193Y-80202538D01*
X110546093Y-80456224D01*
X110466022Y-80730807D01*
X110441058Y-81015734D01*
X100456000Y-81015734D01*
X100456000Y-80011276D01*
X111014514Y-80011276D01*
X111900000Y-80896762D01*
X112785486Y-80011276D01*
X112697462Y-79778193D01*
X112443776Y-79646093D01*
X112169193Y-79566022D01*
X111884266Y-79541058D01*
X111599943Y-79572161D01*
X111327151Y-79658135D01*
X111102538Y-79778193D01*
X111014514Y-80011276D01*
X100456000Y-80011276D01*
X100456000Y-74975000D01*
X112192157Y-74975000D01*
X112192157Y-77825000D01*
X112199513Y-77899689D01*
X112221299Y-77971508D01*
X112256678Y-78037696D01*
X112304289Y-78095711D01*
X112362304Y-78143322D01*
X112428492Y-78178701D01*
X112500311Y-78200487D01*
X112575000Y-78207843D01*
X115425000Y-78207843D01*
X115499689Y-78200487D01*
X115571508Y-78178701D01*
X115637696Y-78143322D01*
X115695711Y-78095711D01*
X115743322Y-78037696D01*
X115778701Y-77971508D01*
X115800487Y-77899689D01*
X115807843Y-77825000D01*
X115807843Y-77486364D01*
X117906067Y-77486364D01*
X118000364Y-77791054D01*
X118152292Y-78071493D01*
X118356011Y-78316904D01*
X118603693Y-78517856D01*
X118885820Y-78666626D01*
X119173636Y-78753930D01*
X119427000Y-78653467D01*
X119427000Y-77233000D01*
X119573000Y-77233000D01*
X119573000Y-78653467D01*
X119826364Y-78753930D01*
X120114180Y-78666626D01*
X120396307Y-78517856D01*
X120643989Y-78316904D01*
X120847708Y-78071493D01*
X120999636Y-77791054D01*
X121093933Y-77486364D01*
X120993614Y-77233000D01*
X119573000Y-77233000D01*
X119427000Y-77233000D01*
X118006386Y-77233000D01*
X117906067Y-77486364D01*
X115807843Y-77486364D01*
X115807843Y-76833636D01*
X117906067Y-76833636D01*
X118006386Y-77087000D01*
X119427000Y-77087000D01*
X119427000Y-75666533D01*
X119573000Y-75666533D01*
X119573000Y-77087000D01*
X120993614Y-77087000D01*
X121093933Y-76833636D01*
X120999636Y-76528946D01*
X120847708Y-76248507D01*
X120825808Y-76222125D01*
X123194000Y-76222125D01*
X123194000Y-76577875D01*
X123263404Y-76926791D01*
X123399544Y-77255462D01*
X123597189Y-77551258D01*
X123848742Y-77802811D01*
X124144538Y-78000456D01*
X124473209Y-78136596D01*
X124822125Y-78206000D01*
X125177875Y-78206000D01*
X125526791Y-78136596D01*
X125855462Y-78000456D01*
X126151258Y-77802811D01*
X126402811Y-77551258D01*
X126600456Y-77255462D01*
X126736596Y-76926791D01*
X126806000Y-76577875D01*
X126806000Y-76222125D01*
X126736596Y-75873209D01*
X126600456Y-75544538D01*
X126402811Y-75248742D01*
X126151258Y-74997189D01*
X125855462Y-74799544D01*
X125526791Y-74663404D01*
X125177875Y-74594000D01*
X124822125Y-74594000D01*
X124473209Y-74663404D01*
X124144538Y-74799544D01*
X123848742Y-74997189D01*
X123597189Y-75248742D01*
X123399544Y-75544538D01*
X123263404Y-75873209D01*
X123194000Y-76222125D01*
X120825808Y-76222125D01*
X120643989Y-76003096D01*
X120396307Y-75802144D01*
X120114180Y-75653374D01*
X119826364Y-75566070D01*
X119573000Y-75666533D01*
X119427000Y-75666533D01*
X119173636Y-75566070D01*
X118885820Y-75653374D01*
X118603693Y-75802144D01*
X118356011Y-76003096D01*
X118152292Y-76248507D01*
X118000364Y-76528946D01*
X117906067Y-76833636D01*
X115807843Y-76833636D01*
X115807843Y-74975000D01*
X115800487Y-74900311D01*
X115778701Y-74828492D01*
X115743322Y-74762304D01*
X115695711Y-74704289D01*
X115637696Y-74656678D01*
X115571508Y-74621299D01*
X115499689Y-74599513D01*
X115425000Y-74592157D01*
X112575000Y-74592157D01*
X112500311Y-74599513D01*
X112428492Y-74621299D01*
X112362304Y-74656678D01*
X112304289Y-74704289D01*
X112256678Y-74762304D01*
X112221299Y-74828492D01*
X112199513Y-74900311D01*
X112192157Y-74975000D01*
X100456000Y-74975000D01*
X100456000Y-73600000D01*
X102570450Y-73600000D01*
X102580625Y-73703310D01*
X102610760Y-73802650D01*
X102659695Y-73894202D01*
X102725552Y-73974448D01*
X102805798Y-74040305D01*
X102897350Y-74089240D01*
X102996690Y-74119375D01*
X103100000Y-74129550D01*
X103795250Y-74127000D01*
X103927000Y-73995250D01*
X103927000Y-72773000D01*
X104073000Y-72773000D01*
X104073000Y-73995250D01*
X104204750Y-74127000D01*
X104900000Y-74129550D01*
X105003310Y-74119375D01*
X105102650Y-74089240D01*
X105194202Y-74040305D01*
X105274448Y-73974448D01*
X105340305Y-73894202D01*
X105389240Y-73802650D01*
X105419375Y-73703310D01*
X105429550Y-73600000D01*
X105427000Y-72904750D01*
X105295250Y-72773000D01*
X104073000Y-72773000D01*
X103927000Y-72773000D01*
X102704750Y-72773000D01*
X102573000Y-72904750D01*
X102570450Y-73600000D01*
X100456000Y-73600000D01*
X100456000Y-71800000D01*
X102570450Y-71800000D01*
X102573000Y-72495250D01*
X102704750Y-72627000D01*
X103927000Y-72627000D01*
X103927000Y-72607000D01*
X104073000Y-72607000D01*
X104073000Y-72627000D01*
X105295250Y-72627000D01*
X105427000Y-72495250D01*
X105429550Y-71800000D01*
X105419375Y-71696690D01*
X105389240Y-71597350D01*
X105349032Y-71522125D01*
X112194000Y-71522125D01*
X112194000Y-71877875D01*
X112263404Y-72226791D01*
X112399544Y-72555462D01*
X112597189Y-72851258D01*
X112848742Y-73102811D01*
X113144538Y-73300456D01*
X113473209Y-73436596D01*
X113822125Y-73506000D01*
X114177875Y-73506000D01*
X114526791Y-73436596D01*
X114855462Y-73300456D01*
X115151258Y-73102811D01*
X115402811Y-72851258D01*
X115600456Y-72555462D01*
X115736596Y-72226791D01*
X115806000Y-71877875D01*
X115806000Y-71522125D01*
X123194000Y-71522125D01*
X123194000Y-71877875D01*
X123263404Y-72226791D01*
X123399544Y-72555462D01*
X123597189Y-72851258D01*
X123848742Y-73102811D01*
X124144538Y-73300456D01*
X124473209Y-73436596D01*
X124822125Y-73506000D01*
X125177875Y-73506000D01*
X125526791Y-73436596D01*
X125855462Y-73300456D01*
X125873088Y-73288679D01*
X131124628Y-78540220D01*
X131140473Y-78559527D01*
X131217521Y-78622759D01*
X131299590Y-78666626D01*
X131305425Y-78669745D01*
X131400806Y-78698678D01*
X131410694Y-78699652D01*
X131475146Y-78706000D01*
X131475153Y-78706000D01*
X131499999Y-78708447D01*
X131524845Y-78706000D01*
X132717157Y-78706000D01*
X132717157Y-79150000D01*
X132724513Y-79224689D01*
X132746299Y-79296508D01*
X132781678Y-79362696D01*
X132829289Y-79420711D01*
X132887304Y-79468322D01*
X132953492Y-79503701D01*
X133025311Y-79525487D01*
X133100000Y-79532843D01*
X134900000Y-79532843D01*
X134974689Y-79525487D01*
X135046508Y-79503701D01*
X135112696Y-79468322D01*
X135170711Y-79420711D01*
X135218322Y-79362696D01*
X135253701Y-79296508D01*
X135275487Y-79224689D01*
X135282843Y-79150000D01*
X135282843Y-78658937D01*
X135364793Y-78856781D01*
X135504982Y-79066590D01*
X135683410Y-79245018D01*
X135893219Y-79385207D01*
X135994001Y-79426952D01*
X135994001Y-80075144D01*
X135991553Y-80100000D01*
X136001322Y-80199192D01*
X136030255Y-80294574D01*
X136030256Y-80294575D01*
X136077242Y-80382479D01*
X136140474Y-80459527D01*
X136159780Y-80475371D01*
X137044628Y-81360220D01*
X137060473Y-81379527D01*
X137137521Y-81442759D01*
X137225425Y-81489745D01*
X137298607Y-81511944D01*
X137320806Y-81518678D01*
X137330694Y-81519652D01*
X137395146Y-81526000D01*
X137395153Y-81526000D01*
X137419999Y-81528447D01*
X137444845Y-81526000D01*
X144531288Y-81526000D01*
X144553412Y-81579413D01*
X144682658Y-81772843D01*
X144847157Y-81937342D01*
X145040587Y-82066588D01*
X145255515Y-82155614D01*
X145483682Y-82201000D01*
X145716318Y-82201000D01*
X145944485Y-82155614D01*
X146159413Y-82066588D01*
X146352843Y-81937342D01*
X146517342Y-81772843D01*
X146646588Y-81579413D01*
X146735614Y-81364485D01*
X146781000Y-81136318D01*
X146781000Y-80903682D01*
X146777022Y-80883682D01*
X169419000Y-80883682D01*
X169419000Y-81116318D01*
X169464386Y-81344485D01*
X169553412Y-81559413D01*
X169682658Y-81752843D01*
X169847157Y-81917342D01*
X170040587Y-82046588D01*
X170255515Y-82135614D01*
X170483682Y-82181000D01*
X170716318Y-82181000D01*
X170944485Y-82135614D01*
X171159413Y-82046588D01*
X171352843Y-81917342D01*
X171517342Y-81752843D01*
X171646588Y-81559413D01*
X171735614Y-81344485D01*
X171781000Y-81116318D01*
X171781000Y-80883682D01*
X171735614Y-80655515D01*
X171646588Y-80440587D01*
X171517342Y-80247157D01*
X171352843Y-80082658D01*
X171159413Y-79953412D01*
X170944485Y-79864386D01*
X170716318Y-79819000D01*
X170483682Y-79819000D01*
X170255515Y-79864386D01*
X170040587Y-79953412D01*
X169847157Y-80082658D01*
X169682658Y-80247157D01*
X169553412Y-80440587D01*
X169464386Y-80655515D01*
X169419000Y-80883682D01*
X146777022Y-80883682D01*
X146735614Y-80675515D01*
X146646588Y-80460587D01*
X146517342Y-80267157D01*
X146352843Y-80102658D01*
X146159413Y-79973412D01*
X145944485Y-79884386D01*
X145716318Y-79839000D01*
X145483682Y-79839000D01*
X145255515Y-79884386D01*
X145040587Y-79973412D01*
X144847157Y-80102658D01*
X144682658Y-80267157D01*
X144553412Y-80460587D01*
X144531288Y-80514000D01*
X137629592Y-80514000D01*
X137006000Y-79890409D01*
X137006000Y-79426952D01*
X137106781Y-79385207D01*
X137316590Y-79245018D01*
X137340675Y-79220933D01*
X138132304Y-79220933D01*
X138217323Y-79451458D01*
X138466755Y-79581065D01*
X138736679Y-79659520D01*
X139016722Y-79683808D01*
X139296123Y-79652995D01*
X139564144Y-79568266D01*
X139782677Y-79451458D01*
X139867696Y-79220933D01*
X139000000Y-78353238D01*
X138132304Y-79220933D01*
X137340675Y-79220933D01*
X137495018Y-79066590D01*
X137635207Y-78856781D01*
X137669239Y-78774620D01*
X137681734Y-78814144D01*
X137798542Y-79032677D01*
X138029067Y-79117696D01*
X138896762Y-78250000D01*
X139103238Y-78250000D01*
X139970933Y-79117696D01*
X140019568Y-79099759D01*
X149503478Y-79099759D01*
X149576469Y-79320050D01*
X149808882Y-79439683D01*
X150060168Y-79511675D01*
X150320672Y-79533260D01*
X150580381Y-79503609D01*
X150829315Y-79423860D01*
X150874405Y-79399759D01*
X154203478Y-79399759D01*
X154276469Y-79620050D01*
X154508882Y-79739683D01*
X154760168Y-79811675D01*
X155020672Y-79833260D01*
X155280381Y-79803609D01*
X155529315Y-79723860D01*
X155723531Y-79620050D01*
X155796522Y-79399759D01*
X159403478Y-79399759D01*
X159476469Y-79620050D01*
X159708882Y-79739683D01*
X159960168Y-79811675D01*
X160220672Y-79833260D01*
X160480381Y-79803609D01*
X160729315Y-79723860D01*
X160923531Y-79620050D01*
X160996522Y-79399759D01*
X160200000Y-78603238D01*
X159403478Y-79399759D01*
X155796522Y-79399759D01*
X155000000Y-78603238D01*
X154203478Y-79399759D01*
X150874405Y-79399759D01*
X151023531Y-79320050D01*
X151096522Y-79099759D01*
X150300000Y-78303238D01*
X149503478Y-79099759D01*
X140019568Y-79099759D01*
X140201458Y-79032677D01*
X140331065Y-78783245D01*
X140409520Y-78513321D01*
X140433808Y-78233278D01*
X140432418Y-78220672D01*
X148966740Y-78220672D01*
X148996391Y-78480381D01*
X149076140Y-78729315D01*
X149179950Y-78923531D01*
X149400241Y-78996522D01*
X150196762Y-78200000D01*
X150182620Y-78185858D01*
X150285858Y-78082620D01*
X150300000Y-78096762D01*
X150314142Y-78082620D01*
X150417380Y-78185858D01*
X150403238Y-78200000D01*
X151199759Y-78996522D01*
X151420050Y-78923531D01*
X151539683Y-78691118D01*
X151588514Y-78520672D01*
X153666740Y-78520672D01*
X153696391Y-78780381D01*
X153776140Y-79029315D01*
X153879950Y-79223531D01*
X154100241Y-79296522D01*
X154896762Y-78500000D01*
X155103238Y-78500000D01*
X155899759Y-79296522D01*
X156120050Y-79223531D01*
X156239683Y-78991118D01*
X156311675Y-78739832D01*
X156329834Y-78520672D01*
X158866740Y-78520672D01*
X158896391Y-78780381D01*
X158976140Y-79029315D01*
X159079950Y-79223531D01*
X159300241Y-79296522D01*
X160096762Y-78500000D01*
X160303238Y-78500000D01*
X161099759Y-79296522D01*
X161320050Y-79223531D01*
X161383760Y-79099759D01*
X166003478Y-79099759D01*
X166076469Y-79320050D01*
X166308882Y-79439683D01*
X166560168Y-79511675D01*
X166820672Y-79533260D01*
X167080381Y-79503609D01*
X167329315Y-79423860D01*
X167523531Y-79320050D01*
X167596522Y-79099759D01*
X166800000Y-78303238D01*
X166003478Y-79099759D01*
X161383760Y-79099759D01*
X161439683Y-78991118D01*
X161511675Y-78739832D01*
X161533260Y-78479328D01*
X161503730Y-78220672D01*
X165466740Y-78220672D01*
X165496391Y-78480381D01*
X165576140Y-78729315D01*
X165679950Y-78923531D01*
X165900241Y-78996522D01*
X166696762Y-78200000D01*
X166682620Y-78185858D01*
X166785858Y-78082620D01*
X166800000Y-78096762D01*
X166814142Y-78082620D01*
X166917380Y-78185858D01*
X166903238Y-78200000D01*
X167699759Y-78996522D01*
X167920050Y-78923531D01*
X168039683Y-78691118D01*
X168111675Y-78439832D01*
X168133260Y-78179328D01*
X168103609Y-77919619D01*
X168023860Y-77670685D01*
X167920050Y-77476469D01*
X167699761Y-77403479D01*
X167753020Y-77350220D01*
X167812696Y-77318322D01*
X167870711Y-77270711D01*
X167918322Y-77212696D01*
X167933830Y-77183682D01*
X172819000Y-77183682D01*
X172819000Y-77416318D01*
X172864386Y-77644485D01*
X172953412Y-77859413D01*
X173082658Y-78052843D01*
X173247157Y-78217342D01*
X173440587Y-78346588D01*
X173655515Y-78435614D01*
X173883682Y-78481000D01*
X174116318Y-78481000D01*
X174344485Y-78435614D01*
X174559413Y-78346588D01*
X174752843Y-78217342D01*
X174917342Y-78052843D01*
X175046588Y-77859413D01*
X175068712Y-77806000D01*
X176590409Y-77806000D01*
X177714001Y-78929593D01*
X177714000Y-79931287D01*
X177660587Y-79953412D01*
X177467157Y-80082658D01*
X177302658Y-80247157D01*
X177173412Y-80440587D01*
X177084386Y-80655515D01*
X177039000Y-80883682D01*
X177039000Y-81116318D01*
X177084386Y-81344485D01*
X177173412Y-81559413D01*
X177302658Y-81752843D01*
X177467157Y-81917342D01*
X177660587Y-82046588D01*
X177875515Y-82135614D01*
X178103682Y-82181000D01*
X178336318Y-82181000D01*
X178564485Y-82135614D01*
X178779413Y-82046588D01*
X178972843Y-81917342D01*
X179137342Y-81752843D01*
X179266588Y-81559413D01*
X179355614Y-81344485D01*
X179401000Y-81116318D01*
X179401000Y-80883682D01*
X179355614Y-80655515D01*
X179266588Y-80440587D01*
X179137342Y-80247157D01*
X178972843Y-80082658D01*
X178779413Y-79953412D01*
X178726000Y-79931288D01*
X178726000Y-78744845D01*
X178728447Y-78719999D01*
X178726000Y-78695153D01*
X178726000Y-78695146D01*
X178718678Y-78620807D01*
X178689745Y-78525425D01*
X178642759Y-78437521D01*
X178579527Y-78360473D01*
X178560220Y-78344628D01*
X177175376Y-76959785D01*
X177159527Y-76940473D01*
X177082479Y-76877241D01*
X176994575Y-76830255D01*
X176899193Y-76801322D01*
X176824854Y-76794000D01*
X176824846Y-76794000D01*
X176800000Y-76791553D01*
X176775154Y-76794000D01*
X175068712Y-76794000D01*
X175046588Y-76740587D01*
X174917342Y-76547157D01*
X174752843Y-76382658D01*
X174559413Y-76253412D01*
X174344485Y-76164386D01*
X174116318Y-76119000D01*
X173883682Y-76119000D01*
X173655515Y-76164386D01*
X173440587Y-76253412D01*
X173247157Y-76382658D01*
X173082658Y-76547157D01*
X172953412Y-76740587D01*
X172864386Y-76955515D01*
X172819000Y-77183682D01*
X167933830Y-77183682D01*
X167953701Y-77146508D01*
X167975487Y-77074689D01*
X167982843Y-77000000D01*
X167982843Y-76706000D01*
X168875154Y-76706000D01*
X168900000Y-76708447D01*
X168924846Y-76706000D01*
X168924854Y-76706000D01*
X168999193Y-76698678D01*
X169094575Y-76669745D01*
X169182479Y-76622759D01*
X169259527Y-76559527D01*
X169275376Y-76540215D01*
X170409592Y-75406000D01*
X176831288Y-75406000D01*
X176853412Y-75459413D01*
X176982658Y-75652843D01*
X177147157Y-75817342D01*
X177340587Y-75946588D01*
X177555515Y-76035614D01*
X177783682Y-76081000D01*
X178016318Y-76081000D01*
X178244485Y-76035614D01*
X178459413Y-75946588D01*
X178652843Y-75817342D01*
X178817342Y-75652843D01*
X178946588Y-75459413D01*
X179035614Y-75244485D01*
X179081000Y-75016318D01*
X179081000Y-74783682D01*
X179035614Y-74555515D01*
X178946588Y-74340587D01*
X178817342Y-74147157D01*
X178652843Y-73982658D01*
X178459413Y-73853412D01*
X178244485Y-73764386D01*
X178016318Y-73719000D01*
X177783682Y-73719000D01*
X177555515Y-73764386D01*
X177340587Y-73853412D01*
X177147157Y-73982658D01*
X176982658Y-74147157D01*
X176853412Y-74340587D01*
X176831288Y-74394000D01*
X170224854Y-74394000D01*
X170200000Y-74391552D01*
X170175146Y-74394000D01*
X170100807Y-74401322D01*
X170005425Y-74430255D01*
X169917521Y-74477241D01*
X169840473Y-74540473D01*
X169824628Y-74559780D01*
X168690409Y-75694000D01*
X167982843Y-75694000D01*
X167982843Y-75400000D01*
X167975487Y-75325311D01*
X167953701Y-75253492D01*
X167918322Y-75187304D01*
X167870711Y-75129289D01*
X167812696Y-75081678D01*
X167746508Y-75046299D01*
X167674689Y-75024513D01*
X167600000Y-75017157D01*
X166000000Y-75017157D01*
X165925311Y-75024513D01*
X165853492Y-75046299D01*
X165787304Y-75081678D01*
X165729289Y-75129289D01*
X165681678Y-75187304D01*
X165646299Y-75253492D01*
X165624513Y-75325311D01*
X165617157Y-75400000D01*
X165617157Y-77000000D01*
X165624513Y-77074689D01*
X165646299Y-77146508D01*
X165681678Y-77212696D01*
X165729289Y-77270711D01*
X165787304Y-77318322D01*
X165846980Y-77350220D01*
X165900239Y-77403479D01*
X165679950Y-77476469D01*
X165560317Y-77708882D01*
X165488325Y-77960168D01*
X165466740Y-78220672D01*
X161503730Y-78220672D01*
X161503609Y-78219619D01*
X161423860Y-77970685D01*
X161320050Y-77776469D01*
X161099759Y-77703478D01*
X160303238Y-78500000D01*
X160096762Y-78500000D01*
X159300241Y-77703478D01*
X159079950Y-77776469D01*
X158960317Y-78008882D01*
X158888325Y-78260168D01*
X158866740Y-78520672D01*
X156329834Y-78520672D01*
X156333260Y-78479328D01*
X156303609Y-78219619D01*
X156223860Y-77970685D01*
X156120050Y-77776469D01*
X155899759Y-77703478D01*
X155103238Y-78500000D01*
X154896762Y-78500000D01*
X154100241Y-77703478D01*
X153879950Y-77776469D01*
X153760317Y-78008882D01*
X153688325Y-78260168D01*
X153666740Y-78520672D01*
X151588514Y-78520672D01*
X151611675Y-78439832D01*
X151633260Y-78179328D01*
X151603609Y-77919619D01*
X151523860Y-77670685D01*
X151420050Y-77476469D01*
X151199761Y-77403479D01*
X151253020Y-77350220D01*
X151312696Y-77318322D01*
X151370711Y-77270711D01*
X151418322Y-77212696D01*
X151453701Y-77146508D01*
X151475487Y-77074689D01*
X151482843Y-77000000D01*
X151482843Y-75400000D01*
X151475487Y-75325311D01*
X151453701Y-75253492D01*
X151418322Y-75187304D01*
X151370711Y-75129289D01*
X151312696Y-75081678D01*
X151246508Y-75046299D01*
X151174689Y-75024513D01*
X151100000Y-75017157D01*
X150806000Y-75017157D01*
X150806000Y-73638712D01*
X150859413Y-73616588D01*
X151052843Y-73487342D01*
X151217342Y-73322843D01*
X151346588Y-73129413D01*
X151435614Y-72914485D01*
X151481000Y-72686318D01*
X151481000Y-72453682D01*
X151435614Y-72225515D01*
X151346588Y-72010587D01*
X151217342Y-71817157D01*
X151052843Y-71652658D01*
X150859413Y-71523412D01*
X150644485Y-71434386D01*
X150416318Y-71389000D01*
X150183682Y-71389000D01*
X149955515Y-71434386D01*
X149740587Y-71523412D01*
X149547157Y-71652658D01*
X149382658Y-71817157D01*
X149253412Y-72010587D01*
X149164386Y-72225515D01*
X149119000Y-72453682D01*
X149119000Y-72686318D01*
X149164386Y-72914485D01*
X149253412Y-73129413D01*
X149382658Y-73322843D01*
X149547157Y-73487342D01*
X149740587Y-73616588D01*
X149794000Y-73638712D01*
X149794001Y-75017157D01*
X149500000Y-75017157D01*
X149425311Y-75024513D01*
X149353492Y-75046299D01*
X149287304Y-75081678D01*
X149229289Y-75129289D01*
X149181678Y-75187304D01*
X149146299Y-75253492D01*
X149124513Y-75325311D01*
X149117157Y-75400000D01*
X149117157Y-77000000D01*
X149124513Y-77074689D01*
X149146299Y-77146508D01*
X149181678Y-77212696D01*
X149229289Y-77270711D01*
X149287304Y-77318322D01*
X149346980Y-77350220D01*
X149400239Y-77403479D01*
X149179950Y-77476469D01*
X149060317Y-77708882D01*
X148988325Y-77960168D01*
X148966740Y-78220672D01*
X140432418Y-78220672D01*
X140402995Y-77953877D01*
X140318266Y-77685856D01*
X140201458Y-77467323D01*
X139970933Y-77382304D01*
X139103238Y-78250000D01*
X138896762Y-78250000D01*
X138029067Y-77382304D01*
X137798542Y-77467323D01*
X137668935Y-77716755D01*
X137667587Y-77721392D01*
X137635207Y-77643219D01*
X137495018Y-77433410D01*
X137340675Y-77279067D01*
X138132304Y-77279067D01*
X139000000Y-78146762D01*
X139867696Y-77279067D01*
X139782677Y-77048542D01*
X139533245Y-76918935D01*
X139263321Y-76840480D01*
X138983278Y-76816192D01*
X138703877Y-76847005D01*
X138435856Y-76931734D01*
X138217323Y-77048542D01*
X138132304Y-77279067D01*
X137340675Y-77279067D01*
X137316590Y-77254982D01*
X137106781Y-77114793D01*
X136873654Y-77018228D01*
X136626167Y-76969000D01*
X136373833Y-76969000D01*
X136126346Y-77018228D01*
X135893219Y-77114793D01*
X135683410Y-77254982D01*
X135504982Y-77433410D01*
X135364793Y-77643219D01*
X135282843Y-77841063D01*
X135282843Y-77350000D01*
X135275487Y-77275311D01*
X135253701Y-77203492D01*
X135218322Y-77137304D01*
X135170711Y-77079289D01*
X135112696Y-77031678D01*
X135046508Y-76996299D01*
X134974689Y-76974513D01*
X134900000Y-76967157D01*
X133100000Y-76967157D01*
X133025311Y-76974513D01*
X132953492Y-76996299D01*
X132887304Y-77031678D01*
X132829289Y-77079289D01*
X132781678Y-77137304D01*
X132746299Y-77203492D01*
X132724513Y-77275311D01*
X132717157Y-77350000D01*
X132717157Y-77694000D01*
X131709592Y-77694000D01*
X127299274Y-73283682D01*
X144419000Y-73283682D01*
X144419000Y-73516318D01*
X144464386Y-73744485D01*
X144553412Y-73959413D01*
X144682658Y-74152843D01*
X144847157Y-74317342D01*
X145040587Y-74446588D01*
X145255515Y-74535614D01*
X145483682Y-74581000D01*
X145716318Y-74581000D01*
X145944485Y-74535614D01*
X146159413Y-74446588D01*
X146352843Y-74317342D01*
X146517342Y-74152843D01*
X146646588Y-73959413D01*
X146735614Y-73744485D01*
X146781000Y-73516318D01*
X146781000Y-73283682D01*
X146735614Y-73055515D01*
X146646588Y-72840587D01*
X146517342Y-72647157D01*
X146352843Y-72482658D01*
X146159413Y-72353412D01*
X145944485Y-72264386D01*
X145716318Y-72219000D01*
X145483682Y-72219000D01*
X145255515Y-72264386D01*
X145040587Y-72353412D01*
X144847157Y-72482658D01*
X144682658Y-72647157D01*
X144553412Y-72840587D01*
X144464386Y-73055515D01*
X144419000Y-73283682D01*
X127299274Y-73283682D01*
X126588679Y-72573088D01*
X126600456Y-72555462D01*
X126736596Y-72226791D01*
X126806000Y-71877875D01*
X126806000Y-71522125D01*
X126736596Y-71173209D01*
X126600456Y-70844538D01*
X126402811Y-70548742D01*
X126369561Y-70515492D01*
X129369000Y-70515492D01*
X129369000Y-70984508D01*
X129460500Y-71444512D01*
X129639985Y-71877827D01*
X129900556Y-72267799D01*
X130232201Y-72599444D01*
X130622173Y-72860015D01*
X131055488Y-73039500D01*
X131515492Y-73131000D01*
X131984508Y-73131000D01*
X132444512Y-73039500D01*
X132877827Y-72860015D01*
X133267799Y-72599444D01*
X133599444Y-72267799D01*
X133860015Y-71877827D01*
X134039500Y-71444512D01*
X134131000Y-70984508D01*
X134131000Y-70515492D01*
X138869000Y-70515492D01*
X138869000Y-70984508D01*
X138960500Y-71444512D01*
X139139985Y-71877827D01*
X139400556Y-72267799D01*
X139732201Y-72599444D01*
X140122173Y-72860015D01*
X140555488Y-73039500D01*
X141015492Y-73131000D01*
X141484508Y-73131000D01*
X141944512Y-73039500D01*
X142377827Y-72860015D01*
X142767799Y-72599444D01*
X143099444Y-72267799D01*
X143360015Y-71877827D01*
X143539500Y-71444512D01*
X143631000Y-70984508D01*
X143631000Y-70515492D01*
X143539500Y-70055488D01*
X143360015Y-69622173D01*
X143099444Y-69232201D01*
X142767799Y-68900556D01*
X142377827Y-68639985D01*
X141944512Y-68460500D01*
X141484508Y-68369000D01*
X141015492Y-68369000D01*
X140555488Y-68460500D01*
X140122173Y-68639985D01*
X139732201Y-68900556D01*
X139400556Y-69232201D01*
X139139985Y-69622173D01*
X138960500Y-70055488D01*
X138869000Y-70515492D01*
X134131000Y-70515492D01*
X134039500Y-70055488D01*
X133860015Y-69622173D01*
X133599444Y-69232201D01*
X133267799Y-68900556D01*
X132877827Y-68639985D01*
X132444512Y-68460500D01*
X131984508Y-68369000D01*
X131515492Y-68369000D01*
X131055488Y-68460500D01*
X130622173Y-68639985D01*
X130232201Y-68900556D01*
X129900556Y-69232201D01*
X129639985Y-69622173D01*
X129460500Y-70055488D01*
X129369000Y-70515492D01*
X126369561Y-70515492D01*
X126151258Y-70297189D01*
X125855462Y-70099544D01*
X125526791Y-69963404D01*
X125177875Y-69894000D01*
X124822125Y-69894000D01*
X124473209Y-69963404D01*
X124144538Y-70099544D01*
X123848742Y-70297189D01*
X123597189Y-70548742D01*
X123399544Y-70844538D01*
X123263404Y-71173209D01*
X123194000Y-71522125D01*
X115806000Y-71522125D01*
X115736596Y-71173209D01*
X115600456Y-70844538D01*
X115402811Y-70548742D01*
X115151258Y-70297189D01*
X114855462Y-70099544D01*
X114526791Y-69963404D01*
X114177875Y-69894000D01*
X113822125Y-69894000D01*
X113473209Y-69963404D01*
X113144538Y-70099544D01*
X112848742Y-70297189D01*
X112597189Y-70548742D01*
X112399544Y-70844538D01*
X112263404Y-71173209D01*
X112194000Y-71522125D01*
X105349032Y-71522125D01*
X105340305Y-71505798D01*
X105274448Y-71425552D01*
X105194202Y-71359695D01*
X105102650Y-71310760D01*
X105003310Y-71280625D01*
X104900000Y-71270450D01*
X104642419Y-71271395D01*
X104816590Y-71155018D01*
X104995018Y-70976590D01*
X105135207Y-70766781D01*
X105231772Y-70533654D01*
X105281000Y-70286167D01*
X105281000Y-70033833D01*
X105231772Y-69786346D01*
X105135207Y-69553219D01*
X104995018Y-69343410D01*
X104816590Y-69164982D01*
X104606781Y-69024793D01*
X104373654Y-68928228D01*
X104126167Y-68879000D01*
X103873833Y-68879000D01*
X103626346Y-68928228D01*
X103393219Y-69024793D01*
X103183410Y-69164982D01*
X103004982Y-69343410D01*
X102864793Y-69553219D01*
X102768228Y-69786346D01*
X102719000Y-70033833D01*
X102719000Y-70286167D01*
X102768228Y-70533654D01*
X102864793Y-70766781D01*
X103004982Y-70976590D01*
X103183410Y-71155018D01*
X103357581Y-71271395D01*
X103100000Y-71270450D01*
X102996690Y-71280625D01*
X102897350Y-71310760D01*
X102805798Y-71359695D01*
X102725552Y-71425552D01*
X102659695Y-71505798D01*
X102610760Y-71597350D01*
X102580625Y-71696690D01*
X102570450Y-71800000D01*
X100456000Y-71800000D01*
X100456000Y-66822125D01*
X112194000Y-66822125D01*
X112194000Y-67177875D01*
X112263404Y-67526791D01*
X112399544Y-67855462D01*
X112597189Y-68151258D01*
X112848742Y-68402811D01*
X113144538Y-68600456D01*
X113473209Y-68736596D01*
X113822125Y-68806000D01*
X114177875Y-68806000D01*
X114526791Y-68736596D01*
X114855462Y-68600456D01*
X115151258Y-68402811D01*
X115402811Y-68151258D01*
X115600456Y-67855462D01*
X115656152Y-67721000D01*
X118017157Y-67721000D01*
X118017157Y-68100000D01*
X118024513Y-68174689D01*
X118046299Y-68246508D01*
X118081678Y-68312696D01*
X118129289Y-68370711D01*
X118187304Y-68418322D01*
X118253492Y-68453701D01*
X118325311Y-68475487D01*
X118400000Y-68482843D01*
X120600000Y-68482843D01*
X120674689Y-68475487D01*
X120746508Y-68453701D01*
X120812696Y-68418322D01*
X120870711Y-68370711D01*
X120918322Y-68312696D01*
X120953701Y-68246508D01*
X120975487Y-68174689D01*
X120982843Y-68100000D01*
X120982843Y-65900000D01*
X120975487Y-65825311D01*
X120953701Y-65753492D01*
X120918322Y-65687304D01*
X120870711Y-65629289D01*
X120812696Y-65581678D01*
X120800203Y-65575000D01*
X123192157Y-65575000D01*
X123192157Y-68425000D01*
X123199513Y-68499689D01*
X123221299Y-68571508D01*
X123256678Y-68637696D01*
X123304289Y-68695711D01*
X123362304Y-68743322D01*
X123428492Y-68778701D01*
X123500311Y-68800487D01*
X123575000Y-68807843D01*
X126425000Y-68807843D01*
X126499689Y-68800487D01*
X126571508Y-68778701D01*
X126637696Y-68743322D01*
X126695711Y-68695711D01*
X126743322Y-68637696D01*
X126778701Y-68571508D01*
X126800487Y-68499689D01*
X126807843Y-68425000D01*
X126807843Y-65575000D01*
X126800487Y-65500311D01*
X126778701Y-65428492D01*
X126743322Y-65362304D01*
X126695711Y-65304289D01*
X126637696Y-65256678D01*
X126571508Y-65221299D01*
X126499689Y-65199513D01*
X126425000Y-65192157D01*
X123575000Y-65192157D01*
X123500311Y-65199513D01*
X123428492Y-65221299D01*
X123362304Y-65256678D01*
X123304289Y-65304289D01*
X123256678Y-65362304D01*
X123221299Y-65428492D01*
X123199513Y-65500311D01*
X123192157Y-65575000D01*
X120800203Y-65575000D01*
X120746508Y-65546299D01*
X120674689Y-65524513D01*
X120600000Y-65517157D01*
X120221000Y-65517157D01*
X120221000Y-65398647D01*
X120698648Y-64921000D01*
X138801353Y-64921000D01*
X143765135Y-69884783D01*
X143787710Y-69912290D01*
X143897496Y-70002390D01*
X144022750Y-70069340D01*
X144158659Y-70110567D01*
X144264586Y-70121000D01*
X144264594Y-70121000D01*
X144300000Y-70124487D01*
X144335406Y-70121000D01*
X151801353Y-70121000D01*
X152119000Y-70438648D01*
X152119001Y-71631381D01*
X152087157Y-71652658D01*
X151922658Y-71817157D01*
X151793412Y-72010587D01*
X151704386Y-72225515D01*
X151659000Y-72453682D01*
X151659000Y-72686318D01*
X151704386Y-72914485D01*
X151793412Y-73129413D01*
X151922658Y-73322843D01*
X152087157Y-73487342D01*
X152119001Y-73508619D01*
X152119001Y-73804584D01*
X152115513Y-73840000D01*
X152129433Y-73981340D01*
X152170660Y-74117249D01*
X152189686Y-74152843D01*
X152237611Y-74242504D01*
X152278709Y-74292581D01*
X152305135Y-74324782D01*
X152305138Y-74324785D01*
X152327711Y-74352290D01*
X152355216Y-74374863D01*
X153826472Y-75846119D01*
X153819000Y-75883682D01*
X153819000Y-76116318D01*
X153864386Y-76344485D01*
X153953412Y-76559413D01*
X154082658Y-76752843D01*
X154247157Y-76917342D01*
X154440587Y-77046588D01*
X154655515Y-77135614D01*
X154873014Y-77178878D01*
X154719619Y-77196391D01*
X154470685Y-77276140D01*
X154276469Y-77379950D01*
X154203478Y-77600241D01*
X155000000Y-78396762D01*
X155796522Y-77600241D01*
X155723531Y-77379950D01*
X155491118Y-77260317D01*
X155239832Y-77188325D01*
X155126643Y-77178946D01*
X155344485Y-77135614D01*
X155559413Y-77046588D01*
X155752843Y-76917342D01*
X155917342Y-76752843D01*
X155938619Y-76721000D01*
X159017157Y-76721000D01*
X159017157Y-76800000D01*
X159024513Y-76874689D01*
X159046299Y-76946508D01*
X159081678Y-77012696D01*
X159129289Y-77070711D01*
X159187304Y-77118322D01*
X159253492Y-77153701D01*
X159325311Y-77175487D01*
X159400000Y-77182843D01*
X160038284Y-77182843D01*
X159919619Y-77196391D01*
X159670685Y-77276140D01*
X159476469Y-77379950D01*
X159403478Y-77600241D01*
X160200000Y-78396762D01*
X160996522Y-77600241D01*
X160923531Y-77379950D01*
X160691118Y-77260317D01*
X160439832Y-77188325D01*
X160373671Y-77182843D01*
X161000000Y-77182843D01*
X161074689Y-77175487D01*
X161146508Y-77153701D01*
X161212696Y-77118322D01*
X161270711Y-77070711D01*
X161318322Y-77012696D01*
X161353701Y-76946508D01*
X161375487Y-76874689D01*
X161382843Y-76800000D01*
X161382843Y-76721000D01*
X163164594Y-76721000D01*
X163200000Y-76724487D01*
X163235406Y-76721000D01*
X163235414Y-76721000D01*
X163341341Y-76710567D01*
X163477250Y-76669340D01*
X163602504Y-76602390D01*
X163712290Y-76512290D01*
X163734868Y-76484780D01*
X165634789Y-74584859D01*
X165662289Y-74562290D01*
X165684859Y-74534789D01*
X165684865Y-74534783D01*
X165720202Y-74491725D01*
X165752390Y-74452504D01*
X165819340Y-74327250D01*
X165860567Y-74191341D01*
X165871000Y-74085414D01*
X165871000Y-74085407D01*
X165874487Y-74050001D01*
X165871000Y-74014595D01*
X165871000Y-73508619D01*
X165902843Y-73487342D01*
X166067342Y-73322843D01*
X166196588Y-73129413D01*
X166285614Y-72914485D01*
X166331000Y-72686318D01*
X166331000Y-72453682D01*
X166509000Y-72453682D01*
X166509000Y-72686318D01*
X166554386Y-72914485D01*
X166643412Y-73129413D01*
X166772658Y-73322843D01*
X166937157Y-73487342D01*
X167130587Y-73616588D01*
X167345515Y-73705614D01*
X167573682Y-73751000D01*
X167806318Y-73751000D01*
X168034485Y-73705614D01*
X168249413Y-73616588D01*
X168442843Y-73487342D01*
X168607342Y-73322843D01*
X168736588Y-73129413D01*
X168825614Y-72914485D01*
X168838565Y-72849376D01*
X168932739Y-72849376D01*
X169012169Y-73097091D01*
X169138400Y-73324550D01*
X169306580Y-73523012D01*
X169510247Y-73684850D01*
X169741573Y-73803845D01*
X169950624Y-73867258D01*
X170157000Y-73763019D01*
X170157000Y-72643000D01*
X170303000Y-72643000D01*
X170303000Y-73763019D01*
X170509376Y-73867258D01*
X170718427Y-73803845D01*
X170949753Y-73684850D01*
X171153420Y-73523012D01*
X171321600Y-73324550D01*
X171447831Y-73097091D01*
X171527261Y-72849376D01*
X171423244Y-72643000D01*
X170303000Y-72643000D01*
X170157000Y-72643000D01*
X169036756Y-72643000D01*
X168932739Y-72849376D01*
X168838565Y-72849376D01*
X168871000Y-72686318D01*
X168871000Y-72453682D01*
X168838566Y-72290624D01*
X168932739Y-72290624D01*
X169036756Y-72497000D01*
X170157000Y-72497000D01*
X170157000Y-71376981D01*
X170303000Y-71376981D01*
X170303000Y-72497000D01*
X171423244Y-72497000D01*
X171527261Y-72290624D01*
X171447831Y-72042909D01*
X171321600Y-71815450D01*
X171153420Y-71616988D01*
X170949753Y-71455150D01*
X170718427Y-71336155D01*
X170509376Y-71272742D01*
X170303000Y-71376981D01*
X170157000Y-71376981D01*
X169950624Y-71272742D01*
X169741573Y-71336155D01*
X169510247Y-71455150D01*
X169306580Y-71616988D01*
X169138400Y-71815450D01*
X169012169Y-72042909D01*
X168932739Y-72290624D01*
X168838566Y-72290624D01*
X168825614Y-72225515D01*
X168736588Y-72010587D01*
X168607342Y-71817157D01*
X168442843Y-71652658D01*
X168249413Y-71523412D01*
X168034485Y-71434386D01*
X167806318Y-71389000D01*
X167573682Y-71389000D01*
X167345515Y-71434386D01*
X167130587Y-71523412D01*
X166937157Y-71652658D01*
X166772658Y-71817157D01*
X166643412Y-72010587D01*
X166554386Y-72225515D01*
X166509000Y-72453682D01*
X166331000Y-72453682D01*
X166285614Y-72225515D01*
X166196588Y-72010587D01*
X166067342Y-71817157D01*
X165902843Y-71652658D01*
X165709413Y-71523412D01*
X165494485Y-71434386D01*
X165266318Y-71389000D01*
X165033682Y-71389000D01*
X164805515Y-71434386D01*
X164590587Y-71523412D01*
X164397157Y-71652658D01*
X164232658Y-71817157D01*
X164103412Y-72010587D01*
X164014386Y-72225515D01*
X163969000Y-72453682D01*
X163969000Y-72686318D01*
X164014386Y-72914485D01*
X164103412Y-73129413D01*
X164232658Y-73322843D01*
X164397157Y-73487342D01*
X164429000Y-73508619D01*
X164429000Y-73751352D01*
X162901353Y-75279000D01*
X161382843Y-75279000D01*
X161382843Y-75200000D01*
X161375487Y-75125311D01*
X161353701Y-75053492D01*
X161318322Y-74987304D01*
X161270711Y-74929289D01*
X161212696Y-74881678D01*
X161146508Y-74846299D01*
X161074689Y-74824513D01*
X161000000Y-74817157D01*
X159400000Y-74817157D01*
X159325311Y-74824513D01*
X159253492Y-74846299D01*
X159187304Y-74881678D01*
X159129289Y-74929289D01*
X159081678Y-74987304D01*
X159046299Y-75053492D01*
X159024513Y-75125311D01*
X159017157Y-75200000D01*
X159017157Y-75279000D01*
X155938619Y-75279000D01*
X155917342Y-75247157D01*
X155752843Y-75082658D01*
X155559413Y-74953412D01*
X155344485Y-74864386D01*
X155116318Y-74819000D01*
X154883682Y-74819000D01*
X154846119Y-74826472D01*
X153561000Y-73541353D01*
X153561000Y-73508619D01*
X153592843Y-73487342D01*
X153757342Y-73322843D01*
X153886588Y-73129413D01*
X153975614Y-72914485D01*
X154021000Y-72686318D01*
X154021000Y-72453682D01*
X154199000Y-72453682D01*
X154199000Y-72686318D01*
X154244386Y-72914485D01*
X154333412Y-73129413D01*
X154462658Y-73322843D01*
X154627157Y-73487342D01*
X154820587Y-73616588D01*
X155035515Y-73705614D01*
X155263682Y-73751000D01*
X155496318Y-73751000D01*
X155724485Y-73705614D01*
X155939413Y-73616588D01*
X156132843Y-73487342D01*
X156297342Y-73322843D01*
X156426588Y-73129413D01*
X156515614Y-72914485D01*
X156528565Y-72849376D01*
X156622739Y-72849376D01*
X156702169Y-73097091D01*
X156828400Y-73324550D01*
X156996580Y-73523012D01*
X157200247Y-73684850D01*
X157431573Y-73803845D01*
X157640624Y-73867258D01*
X157847000Y-73763019D01*
X157847000Y-72643000D01*
X157993000Y-72643000D01*
X157993000Y-73763019D01*
X158199376Y-73867258D01*
X158408427Y-73803845D01*
X158639753Y-73684850D01*
X158843420Y-73523012D01*
X159011600Y-73324550D01*
X159137831Y-73097091D01*
X159217261Y-72849376D01*
X159113244Y-72643000D01*
X157993000Y-72643000D01*
X157847000Y-72643000D01*
X156726756Y-72643000D01*
X156622739Y-72849376D01*
X156528565Y-72849376D01*
X156561000Y-72686318D01*
X156561000Y-72453682D01*
X156528566Y-72290624D01*
X156622739Y-72290624D01*
X156726756Y-72497000D01*
X157847000Y-72497000D01*
X157847000Y-71376981D01*
X157993000Y-71376981D01*
X157993000Y-72497000D01*
X159113244Y-72497000D01*
X159135077Y-72453682D01*
X161429000Y-72453682D01*
X161429000Y-72686318D01*
X161474386Y-72914485D01*
X161563412Y-73129413D01*
X161692658Y-73322843D01*
X161857157Y-73487342D01*
X162050587Y-73616588D01*
X162265515Y-73705614D01*
X162493682Y-73751000D01*
X162726318Y-73751000D01*
X162954485Y-73705614D01*
X163169413Y-73616588D01*
X163362843Y-73487342D01*
X163527342Y-73322843D01*
X163656588Y-73129413D01*
X163745614Y-72914485D01*
X163791000Y-72686318D01*
X163791000Y-72453682D01*
X163745614Y-72225515D01*
X163656588Y-72010587D01*
X163527342Y-71817157D01*
X163362843Y-71652658D01*
X163169413Y-71523412D01*
X162954485Y-71434386D01*
X162726318Y-71389000D01*
X162493682Y-71389000D01*
X162265515Y-71434386D01*
X162050587Y-71523412D01*
X161857157Y-71652658D01*
X161692658Y-71817157D01*
X161563412Y-72010587D01*
X161474386Y-72225515D01*
X161429000Y-72453682D01*
X159135077Y-72453682D01*
X159217261Y-72290624D01*
X159137831Y-72042909D01*
X159011600Y-71815450D01*
X158843420Y-71616988D01*
X158639753Y-71455150D01*
X158408427Y-71336155D01*
X158199376Y-71272742D01*
X157993000Y-71376981D01*
X157847000Y-71376981D01*
X157640624Y-71272742D01*
X157431573Y-71336155D01*
X157200247Y-71455150D01*
X156996580Y-71616988D01*
X156828400Y-71815450D01*
X156702169Y-72042909D01*
X156622739Y-72290624D01*
X156528566Y-72290624D01*
X156515614Y-72225515D01*
X156426588Y-72010587D01*
X156297342Y-71817157D01*
X156132843Y-71652658D01*
X156101000Y-71631381D01*
X156101000Y-70818647D01*
X156798648Y-70121000D01*
X171864594Y-70121000D01*
X171900000Y-70124487D01*
X171935406Y-70121000D01*
X171935414Y-70121000D01*
X172041341Y-70110567D01*
X172177250Y-70069340D01*
X172302504Y-70002390D01*
X172412290Y-69912290D01*
X172434868Y-69884779D01*
X173846119Y-68473528D01*
X173883682Y-68481000D01*
X174116318Y-68481000D01*
X174344485Y-68435614D01*
X174559413Y-68346588D01*
X174752843Y-68217342D01*
X174917342Y-68052843D01*
X174938619Y-68021000D01*
X176974745Y-68021000D01*
X176982658Y-68032843D01*
X177147157Y-68197342D01*
X177340587Y-68326588D01*
X177555515Y-68415614D01*
X177783682Y-68461000D01*
X178016318Y-68461000D01*
X178244485Y-68415614D01*
X178459413Y-68326588D01*
X178652843Y-68197342D01*
X178817342Y-68032843D01*
X178946588Y-67839413D01*
X179035614Y-67624485D01*
X179081000Y-67396318D01*
X179081000Y-67163682D01*
X179035614Y-66935515D01*
X178946588Y-66720587D01*
X178817342Y-66527157D01*
X178652843Y-66362658D01*
X178621000Y-66341381D01*
X178621000Y-63088956D01*
X178732526Y-63014436D01*
X178914436Y-62832526D01*
X179057362Y-62618623D01*
X179155811Y-62380946D01*
X179206000Y-62128630D01*
X179206000Y-61871370D01*
X179155811Y-61619054D01*
X179057362Y-61381377D01*
X178914436Y-61167474D01*
X178732526Y-60985564D01*
X178518623Y-60842638D01*
X178280946Y-60744189D01*
X178028630Y-60694000D01*
X177771370Y-60694000D01*
X177519054Y-60744189D01*
X177281377Y-60842638D01*
X177067474Y-60985564D01*
X176885564Y-61167474D01*
X176742638Y-61381377D01*
X176644189Y-61619054D01*
X176594000Y-61871370D01*
X176594000Y-62128630D01*
X176644189Y-62380946D01*
X176742638Y-62618623D01*
X176885564Y-62832526D01*
X177067474Y-63014436D01*
X177179001Y-63088956D01*
X177179000Y-66341381D01*
X177147157Y-66362658D01*
X176982658Y-66527157D01*
X176948018Y-66579000D01*
X174938619Y-66579000D01*
X174917342Y-66547157D01*
X174752843Y-66382658D01*
X174559413Y-66253412D01*
X174344485Y-66164386D01*
X174116318Y-66119000D01*
X173883682Y-66119000D01*
X173655515Y-66164386D01*
X173440587Y-66253412D01*
X173247157Y-66382658D01*
X173082658Y-66547157D01*
X172953412Y-66740587D01*
X172864386Y-66955515D01*
X172819000Y-67183682D01*
X172819000Y-67416318D01*
X172826472Y-67453881D01*
X171601353Y-68679000D01*
X156535405Y-68679000D01*
X156499999Y-68675513D01*
X156464593Y-68679000D01*
X156464586Y-68679000D01*
X156358659Y-68689433D01*
X156222750Y-68730660D01*
X156097496Y-68797610D01*
X155987710Y-68887710D01*
X155965137Y-68915215D01*
X154895216Y-69985137D01*
X154867711Y-70007710D01*
X154845138Y-70035215D01*
X154845135Y-70035218D01*
X154828500Y-70055488D01*
X154777611Y-70117496D01*
X154765583Y-70139999D01*
X154710660Y-70242751D01*
X154669433Y-70378660D01*
X154655513Y-70520000D01*
X154659001Y-70555416D01*
X154659000Y-71631381D01*
X154627157Y-71652658D01*
X154462658Y-71817157D01*
X154333412Y-72010587D01*
X154244386Y-72225515D01*
X154199000Y-72453682D01*
X154021000Y-72453682D01*
X153975614Y-72225515D01*
X153886588Y-72010587D01*
X153757342Y-71817157D01*
X153592843Y-71652658D01*
X153561000Y-71631381D01*
X153561000Y-70175405D01*
X153564487Y-70139999D01*
X153561000Y-70104593D01*
X153561000Y-70104586D01*
X153550567Y-69998659D01*
X153509340Y-69862750D01*
X153442390Y-69737496D01*
X153410202Y-69698275D01*
X153374865Y-69655217D01*
X153374859Y-69655211D01*
X153352289Y-69627710D01*
X153324789Y-69605141D01*
X152634865Y-68915218D01*
X152612290Y-68887710D01*
X152502504Y-68797610D01*
X152377250Y-68730660D01*
X152241341Y-68689433D01*
X152135414Y-68679000D01*
X152135406Y-68679000D01*
X152100000Y-68675513D01*
X152064594Y-68679000D01*
X144598648Y-68679000D01*
X141803330Y-65883682D01*
X143419000Y-65883682D01*
X143419000Y-66116318D01*
X143464386Y-66344485D01*
X143553412Y-66559413D01*
X143682658Y-66752843D01*
X143847157Y-66917342D01*
X144040587Y-67046588D01*
X144255515Y-67135614D01*
X144483682Y-67181000D01*
X144716318Y-67181000D01*
X144944485Y-67135614D01*
X145159413Y-67046588D01*
X145352843Y-66917342D01*
X145421911Y-66848274D01*
X145424513Y-66874689D01*
X145446299Y-66946508D01*
X145481678Y-67012696D01*
X145529289Y-67070711D01*
X145587304Y-67118322D01*
X145653492Y-67153701D01*
X145725311Y-67175487D01*
X145800000Y-67182843D01*
X147400000Y-67182843D01*
X147474689Y-67175487D01*
X147546508Y-67153701D01*
X147612696Y-67118322D01*
X147670711Y-67070711D01*
X147718322Y-67012696D01*
X147753701Y-66946508D01*
X147775487Y-66874689D01*
X147782843Y-66800000D01*
X147782843Y-66598434D01*
X148524628Y-67340220D01*
X148540473Y-67359527D01*
X148617521Y-67422759D01*
X148705425Y-67469745D01*
X148800807Y-67498678D01*
X148900000Y-67508448D01*
X148924854Y-67506000D01*
X154575154Y-67506000D01*
X154600000Y-67508447D01*
X154624846Y-67506000D01*
X154624854Y-67506000D01*
X154699193Y-67498678D01*
X154794575Y-67469745D01*
X154882479Y-67422759D01*
X154959527Y-67359527D01*
X154975376Y-67340215D01*
X155380000Y-66935592D01*
X155784628Y-67340220D01*
X155800473Y-67359527D01*
X155877521Y-67422759D01*
X155965425Y-67469745D01*
X156060807Y-67498678D01*
X156160000Y-67508448D01*
X156184854Y-67506000D01*
X164675154Y-67506000D01*
X164700000Y-67508447D01*
X164724846Y-67506000D01*
X164724854Y-67506000D01*
X164799193Y-67498678D01*
X164894575Y-67469745D01*
X164982479Y-67422759D01*
X165059527Y-67359527D01*
X165075376Y-67340215D01*
X165490220Y-66925372D01*
X165509527Y-66909527D01*
X165572759Y-66832479D01*
X165619745Y-66744575D01*
X165626365Y-66722750D01*
X165648678Y-66649194D01*
X165652473Y-66610660D01*
X165656000Y-66574854D01*
X165656000Y-66574847D01*
X165658447Y-66550001D01*
X165656000Y-66525155D01*
X165656000Y-66018712D01*
X165709413Y-65996588D01*
X165902843Y-65867342D01*
X166067342Y-65702843D01*
X166196588Y-65509413D01*
X166285614Y-65294485D01*
X166331000Y-65066318D01*
X166331000Y-64833682D01*
X166509000Y-64833682D01*
X166509000Y-65066318D01*
X166554386Y-65294485D01*
X166643412Y-65509413D01*
X166772658Y-65702843D01*
X166937157Y-65867342D01*
X167130587Y-65996588D01*
X167345515Y-66085614D01*
X167573682Y-66131000D01*
X167806318Y-66131000D01*
X168034485Y-66085614D01*
X168249413Y-65996588D01*
X168442843Y-65867342D01*
X168607342Y-65702843D01*
X168736588Y-65509413D01*
X168825614Y-65294485D01*
X168838565Y-65229376D01*
X168932739Y-65229376D01*
X169012169Y-65477091D01*
X169138400Y-65704550D01*
X169306580Y-65903012D01*
X169510247Y-66064850D01*
X169741573Y-66183845D01*
X169950624Y-66247258D01*
X170157000Y-66143019D01*
X170157000Y-65023000D01*
X170303000Y-65023000D01*
X170303000Y-66143019D01*
X170509376Y-66247258D01*
X170718427Y-66183845D01*
X170949753Y-66064850D01*
X171153420Y-65903012D01*
X171321600Y-65704550D01*
X171447831Y-65477091D01*
X171527261Y-65229376D01*
X171423244Y-65023000D01*
X170303000Y-65023000D01*
X170157000Y-65023000D01*
X169036756Y-65023000D01*
X168932739Y-65229376D01*
X168838565Y-65229376D01*
X168871000Y-65066318D01*
X168871000Y-64833682D01*
X168838566Y-64670624D01*
X168932739Y-64670624D01*
X169036756Y-64877000D01*
X170157000Y-64877000D01*
X170157000Y-63756981D01*
X170303000Y-63756981D01*
X170303000Y-64877000D01*
X171423244Y-64877000D01*
X171527261Y-64670624D01*
X171447831Y-64422909D01*
X171321600Y-64195450D01*
X171153420Y-63996988D01*
X170949753Y-63835150D01*
X170718427Y-63716155D01*
X170509376Y-63652742D01*
X170303000Y-63756981D01*
X170157000Y-63756981D01*
X169950624Y-63652742D01*
X169741573Y-63716155D01*
X169510247Y-63835150D01*
X169306580Y-63996988D01*
X169138400Y-64195450D01*
X169012169Y-64422909D01*
X168932739Y-64670624D01*
X168838566Y-64670624D01*
X168825614Y-64605515D01*
X168736588Y-64390587D01*
X168607342Y-64197157D01*
X168442843Y-64032658D01*
X168249413Y-63903412D01*
X168196000Y-63881288D01*
X168196000Y-63619591D01*
X168802102Y-63013490D01*
X168855515Y-63035614D01*
X169083682Y-63081000D01*
X169316318Y-63081000D01*
X169544485Y-63035614D01*
X169759413Y-62946588D01*
X169952843Y-62817342D01*
X170117342Y-62652843D01*
X170246588Y-62459413D01*
X170335614Y-62244485D01*
X170381000Y-62016318D01*
X170381000Y-61783682D01*
X170335614Y-61555515D01*
X170246588Y-61340587D01*
X170236173Y-61324999D01*
X172392157Y-61324999D01*
X172392157Y-62675001D01*
X172404317Y-62798462D01*
X172440329Y-62917179D01*
X172498810Y-63026589D01*
X172577512Y-63122488D01*
X172673411Y-63201190D01*
X172782821Y-63259671D01*
X172901538Y-63295683D01*
X173024999Y-63307843D01*
X174375001Y-63307843D01*
X174498462Y-63295683D01*
X174617179Y-63259671D01*
X174726589Y-63201190D01*
X174822488Y-63122488D01*
X174901190Y-63026589D01*
X174959671Y-62917179D01*
X174995683Y-62798462D01*
X175007843Y-62675001D01*
X175007843Y-61324999D01*
X174995683Y-61201538D01*
X174959671Y-61082821D01*
X174901190Y-60973411D01*
X174822488Y-60877512D01*
X174726589Y-60798810D01*
X174617179Y-60740329D01*
X174498462Y-60704317D01*
X174375001Y-60692157D01*
X173024999Y-60692157D01*
X172901538Y-60704317D01*
X172782821Y-60740329D01*
X172673411Y-60798810D01*
X172577512Y-60877512D01*
X172498810Y-60973411D01*
X172440329Y-61082821D01*
X172404317Y-61201538D01*
X172392157Y-61324999D01*
X170236173Y-61324999D01*
X170117342Y-61147157D01*
X169952843Y-60982658D01*
X169759413Y-60853412D01*
X169544485Y-60764386D01*
X169316318Y-60719000D01*
X169083682Y-60719000D01*
X168855515Y-60764386D01*
X168640587Y-60853412D01*
X168447157Y-60982658D01*
X168282658Y-61147157D01*
X168153412Y-61340587D01*
X168064386Y-61555515D01*
X168019000Y-61783682D01*
X168019000Y-62016318D01*
X168064386Y-62244485D01*
X168086510Y-62297898D01*
X167349780Y-63034628D01*
X167330474Y-63050473D01*
X167267242Y-63127521D01*
X167251292Y-63157362D01*
X167220255Y-63215426D01*
X167191322Y-63310808D01*
X167181553Y-63410000D01*
X167184001Y-63434856D01*
X167184001Y-63881287D01*
X167130587Y-63903412D01*
X166937157Y-64032658D01*
X166772658Y-64197157D01*
X166643412Y-64390587D01*
X166554386Y-64605515D01*
X166509000Y-64833682D01*
X166331000Y-64833682D01*
X166285614Y-64605515D01*
X166196588Y-64390587D01*
X166067342Y-64197157D01*
X165902843Y-64032658D01*
X165709413Y-63903412D01*
X165494485Y-63814386D01*
X165266318Y-63769000D01*
X165033682Y-63769000D01*
X164805515Y-63814386D01*
X164590587Y-63903412D01*
X164397157Y-64032658D01*
X164232658Y-64197157D01*
X164103412Y-64390587D01*
X164014386Y-64605515D01*
X163969000Y-64833682D01*
X163969000Y-65066318D01*
X164014386Y-65294485D01*
X164103412Y-65509413D01*
X164232658Y-65702843D01*
X164397157Y-65867342D01*
X164590587Y-65996588D01*
X164644001Y-66018713D01*
X164644001Y-66340407D01*
X164490409Y-66494000D01*
X156369592Y-66494000D01*
X155891872Y-66016280D01*
X155939413Y-65996588D01*
X156132843Y-65867342D01*
X156297342Y-65702843D01*
X156426588Y-65509413D01*
X156515614Y-65294485D01*
X156528565Y-65229376D01*
X156622739Y-65229376D01*
X156702169Y-65477091D01*
X156828400Y-65704550D01*
X156996580Y-65903012D01*
X157200247Y-66064850D01*
X157431573Y-66183845D01*
X157640624Y-66247258D01*
X157847000Y-66143019D01*
X157847000Y-65023000D01*
X157993000Y-65023000D01*
X157993000Y-66143019D01*
X158199376Y-66247258D01*
X158408427Y-66183845D01*
X158639753Y-66064850D01*
X158843420Y-65903012D01*
X159011600Y-65704550D01*
X159137831Y-65477091D01*
X159217261Y-65229376D01*
X159113244Y-65023000D01*
X157993000Y-65023000D01*
X157847000Y-65023000D01*
X156726756Y-65023000D01*
X156622739Y-65229376D01*
X156528565Y-65229376D01*
X156561000Y-65066318D01*
X156561000Y-64833682D01*
X156528566Y-64670624D01*
X156622739Y-64670624D01*
X156726756Y-64877000D01*
X157847000Y-64877000D01*
X157847000Y-63756981D01*
X157993000Y-63756981D01*
X157993000Y-64877000D01*
X159113244Y-64877000D01*
X159217261Y-64670624D01*
X159137831Y-64422909D01*
X159011600Y-64195450D01*
X158973085Y-64150000D01*
X161427157Y-64150000D01*
X161427157Y-65750000D01*
X161434513Y-65824689D01*
X161456299Y-65896508D01*
X161491678Y-65962696D01*
X161539289Y-66020711D01*
X161597304Y-66068322D01*
X161663492Y-66103701D01*
X161735311Y-66125487D01*
X161810000Y-66132843D01*
X163410000Y-66132843D01*
X163484689Y-66125487D01*
X163556508Y-66103701D01*
X163622696Y-66068322D01*
X163680711Y-66020711D01*
X163728322Y-65962696D01*
X163763701Y-65896508D01*
X163785487Y-65824689D01*
X163792843Y-65750000D01*
X163792843Y-64150000D01*
X163785487Y-64075311D01*
X163763701Y-64003492D01*
X163728322Y-63937304D01*
X163680711Y-63879289D01*
X163622696Y-63831678D01*
X163556508Y-63796299D01*
X163484689Y-63774513D01*
X163410000Y-63767157D01*
X161810000Y-63767157D01*
X161735311Y-63774513D01*
X161663492Y-63796299D01*
X161597304Y-63831678D01*
X161539289Y-63879289D01*
X161491678Y-63937304D01*
X161456299Y-64003492D01*
X161434513Y-64075311D01*
X161427157Y-64150000D01*
X158973085Y-64150000D01*
X158843420Y-63996988D01*
X158639753Y-63835150D01*
X158408427Y-63716155D01*
X158199376Y-63652742D01*
X157993000Y-63756981D01*
X157847000Y-63756981D01*
X157640624Y-63652742D01*
X157431573Y-63716155D01*
X157200247Y-63835150D01*
X156996580Y-63996988D01*
X156828400Y-64195450D01*
X156702169Y-64422909D01*
X156622739Y-64670624D01*
X156528566Y-64670624D01*
X156515614Y-64605515D01*
X156426588Y-64390587D01*
X156297342Y-64197157D01*
X156132843Y-64032658D01*
X155939413Y-63903412D01*
X155886000Y-63881288D01*
X155886000Y-63529591D01*
X156402102Y-63013490D01*
X156455515Y-63035614D01*
X156683682Y-63081000D01*
X156916318Y-63081000D01*
X157144485Y-63035614D01*
X157359413Y-62946588D01*
X157552843Y-62817342D01*
X157717342Y-62652843D01*
X157846588Y-62459413D01*
X157868712Y-62406000D01*
X160511288Y-62406000D01*
X160533412Y-62459413D01*
X160662658Y-62652843D01*
X160827157Y-62817342D01*
X161020587Y-62946588D01*
X161235515Y-63035614D01*
X161463682Y-63081000D01*
X161696318Y-63081000D01*
X161924485Y-63035614D01*
X162139413Y-62946588D01*
X162332843Y-62817342D01*
X162497342Y-62652843D01*
X162626588Y-62459413D01*
X162715614Y-62244485D01*
X162761000Y-62016318D01*
X162761000Y-61783682D01*
X162715614Y-61555515D01*
X162626588Y-61340587D01*
X162497342Y-61147157D01*
X162332843Y-60982658D01*
X162139413Y-60853412D01*
X161924485Y-60764386D01*
X161696318Y-60719000D01*
X161463682Y-60719000D01*
X161235515Y-60764386D01*
X161020587Y-60853412D01*
X160827157Y-60982658D01*
X160662658Y-61147157D01*
X160533412Y-61340587D01*
X160511288Y-61394000D01*
X157868712Y-61394000D01*
X157846588Y-61340587D01*
X157717342Y-61147157D01*
X157552843Y-60982658D01*
X157359413Y-60853412D01*
X157144485Y-60764386D01*
X156916318Y-60719000D01*
X156683682Y-60719000D01*
X156455515Y-60764386D01*
X156240587Y-60853412D01*
X156047157Y-60982658D01*
X155882658Y-61147157D01*
X155753412Y-61340587D01*
X155664386Y-61555515D01*
X155619000Y-61783682D01*
X155619000Y-62016318D01*
X155664386Y-62244485D01*
X155686510Y-62297898D01*
X155039780Y-62944628D01*
X155020474Y-62960473D01*
X154957242Y-63037521D01*
X154956349Y-63039192D01*
X154910255Y-63125426D01*
X154881322Y-63220808D01*
X154871553Y-63320000D01*
X154874001Y-63344856D01*
X154874001Y-63881287D01*
X154820587Y-63903412D01*
X154627157Y-64032658D01*
X154462658Y-64197157D01*
X154333412Y-64390587D01*
X154244386Y-64605515D01*
X154199000Y-64833682D01*
X154199000Y-65066318D01*
X154244386Y-65294485D01*
X154333412Y-65509413D01*
X154462658Y-65702843D01*
X154627157Y-65867342D01*
X154820587Y-65996588D01*
X154868128Y-66016280D01*
X154390409Y-66494000D01*
X149109592Y-66494000D01*
X148275376Y-65659785D01*
X148259527Y-65640473D01*
X148182479Y-65577241D01*
X148094575Y-65530255D01*
X147999193Y-65501322D01*
X147924854Y-65494000D01*
X147924846Y-65494000D01*
X147900000Y-65491553D01*
X147875154Y-65494000D01*
X147782843Y-65494000D01*
X147782843Y-65200000D01*
X147775487Y-65125311D01*
X147753701Y-65053492D01*
X147718322Y-64987304D01*
X147670711Y-64929289D01*
X147612696Y-64881678D01*
X147546508Y-64846299D01*
X147474689Y-64824513D01*
X147400000Y-64817157D01*
X145800000Y-64817157D01*
X145725311Y-64824513D01*
X145653492Y-64846299D01*
X145587304Y-64881678D01*
X145529289Y-64929289D01*
X145481678Y-64987304D01*
X145446299Y-65053492D01*
X145424513Y-65125311D01*
X145421911Y-65151726D01*
X145352843Y-65082658D01*
X145159413Y-64953412D01*
X144944485Y-64864386D01*
X144716318Y-64819000D01*
X144483682Y-64819000D01*
X144255515Y-64864386D01*
X144040587Y-64953412D01*
X143847157Y-65082658D01*
X143682658Y-65247157D01*
X143553412Y-65440587D01*
X143464386Y-65655515D01*
X143419000Y-65883682D01*
X141803330Y-65883682D01*
X140069648Y-64150000D01*
X149117157Y-64150000D01*
X149117157Y-65750000D01*
X149124513Y-65824689D01*
X149146299Y-65896508D01*
X149181678Y-65962696D01*
X149229289Y-66020711D01*
X149287304Y-66068322D01*
X149353492Y-66103701D01*
X149425311Y-66125487D01*
X149500000Y-66132843D01*
X151100000Y-66132843D01*
X151174689Y-66125487D01*
X151246508Y-66103701D01*
X151312696Y-66068322D01*
X151370711Y-66020711D01*
X151418322Y-65962696D01*
X151453701Y-65896508D01*
X151475487Y-65824689D01*
X151482843Y-65750000D01*
X151482843Y-64150000D01*
X151475487Y-64075311D01*
X151453701Y-64003492D01*
X151418322Y-63937304D01*
X151370711Y-63879289D01*
X151312696Y-63831678D01*
X151246508Y-63796299D01*
X151174689Y-63774513D01*
X151100000Y-63767157D01*
X149500000Y-63767157D01*
X149425311Y-63774513D01*
X149353492Y-63796299D01*
X149287304Y-63831678D01*
X149229289Y-63879289D01*
X149181678Y-63937304D01*
X149146299Y-64003492D01*
X149124513Y-64075311D01*
X149117157Y-64150000D01*
X140069648Y-64150000D01*
X139634868Y-63715221D01*
X139612290Y-63687710D01*
X139502504Y-63597610D01*
X139377250Y-63530660D01*
X139241341Y-63489433D01*
X139135414Y-63479000D01*
X139135406Y-63479000D01*
X139100000Y-63475513D01*
X139064594Y-63479000D01*
X120435405Y-63479000D01*
X120399999Y-63475513D01*
X120364593Y-63479000D01*
X120364586Y-63479000D01*
X120258659Y-63489433D01*
X120122750Y-63530660D01*
X119997496Y-63597610D01*
X119887710Y-63687710D01*
X119865137Y-63715215D01*
X119015216Y-64565137D01*
X118987711Y-64587710D01*
X118965138Y-64615215D01*
X118965135Y-64615218D01*
X118938709Y-64647419D01*
X118897611Y-64697496D01*
X118866647Y-64755425D01*
X118830660Y-64822751D01*
X118789433Y-64958660D01*
X118775513Y-65100000D01*
X118779001Y-65135416D01*
X118779001Y-65517157D01*
X118400000Y-65517157D01*
X118325311Y-65524513D01*
X118253492Y-65546299D01*
X118187304Y-65581678D01*
X118129289Y-65629289D01*
X118081678Y-65687304D01*
X118046299Y-65753492D01*
X118024513Y-65825311D01*
X118017157Y-65900000D01*
X118017157Y-66279000D01*
X115656152Y-66279000D01*
X115600456Y-66144538D01*
X115402811Y-65848742D01*
X115151258Y-65597189D01*
X114855462Y-65399544D01*
X114526791Y-65263404D01*
X114177875Y-65194000D01*
X113822125Y-65194000D01*
X113473209Y-65263404D01*
X113144538Y-65399544D01*
X112848742Y-65597189D01*
X112597189Y-65848742D01*
X112399544Y-66144538D01*
X112263404Y-66473209D01*
X112194000Y-66822125D01*
X100456000Y-66822125D01*
X100456000Y-61883682D01*
X105199000Y-61883682D01*
X105199000Y-62116318D01*
X105244386Y-62344485D01*
X105333412Y-62559413D01*
X105462658Y-62752843D01*
X105627157Y-62917342D01*
X105820587Y-63046588D01*
X106035515Y-63135614D01*
X106263682Y-63181000D01*
X106496318Y-63181000D01*
X106724485Y-63135614D01*
X106939413Y-63046588D01*
X107132843Y-62917342D01*
X107297342Y-62752843D01*
X107426588Y-62559413D01*
X107515614Y-62344485D01*
X107561000Y-62116318D01*
X107561000Y-61883682D01*
X112819000Y-61883682D01*
X112819000Y-62116318D01*
X112864386Y-62344485D01*
X112953412Y-62559413D01*
X113082658Y-62752843D01*
X113247157Y-62917342D01*
X113440587Y-63046588D01*
X113655515Y-63135614D01*
X113883682Y-63181000D01*
X114116318Y-63181000D01*
X114344485Y-63135614D01*
X114559413Y-63046588D01*
X114752843Y-62917342D01*
X114917342Y-62752843D01*
X115046588Y-62559413D01*
X115135614Y-62344485D01*
X115181000Y-62116318D01*
X115181000Y-61883682D01*
X115135614Y-61655515D01*
X115046588Y-61440587D01*
X114969355Y-61324999D01*
X119292157Y-61324999D01*
X119292157Y-62675001D01*
X119304317Y-62798462D01*
X119340329Y-62917179D01*
X119398810Y-63026589D01*
X119477512Y-63122488D01*
X119573411Y-63201190D01*
X119682821Y-63259671D01*
X119801538Y-63295683D01*
X119924999Y-63307843D01*
X121275001Y-63307843D01*
X121398462Y-63295683D01*
X121517179Y-63259671D01*
X121626589Y-63201190D01*
X121722488Y-63122488D01*
X121801190Y-63026589D01*
X121821429Y-62988724D01*
X123914514Y-62988724D01*
X124002538Y-63221807D01*
X124256224Y-63353907D01*
X124530807Y-63433978D01*
X124815734Y-63458942D01*
X125100057Y-63427839D01*
X125372849Y-63341865D01*
X125597462Y-63221807D01*
X125685486Y-62988724D01*
X124800000Y-62103238D01*
X123914514Y-62988724D01*
X121821429Y-62988724D01*
X121859671Y-62917179D01*
X121895683Y-62798462D01*
X121907843Y-62675001D01*
X121907843Y-62015734D01*
X123341058Y-62015734D01*
X123372161Y-62300057D01*
X123458135Y-62572849D01*
X123578193Y-62797462D01*
X123811276Y-62885486D01*
X124696762Y-62000000D01*
X124903238Y-62000000D01*
X125788724Y-62885486D01*
X126021807Y-62797462D01*
X126153907Y-62543776D01*
X126233978Y-62269193D01*
X126258942Y-61984266D01*
X126237000Y-61783682D01*
X150619000Y-61783682D01*
X150619000Y-62016318D01*
X150664386Y-62244485D01*
X150753412Y-62459413D01*
X150882658Y-62652843D01*
X151047157Y-62817342D01*
X151240587Y-62946588D01*
X151455515Y-63035614D01*
X151683682Y-63081000D01*
X151916318Y-63081000D01*
X152144485Y-63035614D01*
X152197898Y-63013490D01*
X152334001Y-63149593D01*
X152334001Y-63881287D01*
X152280587Y-63903412D01*
X152087157Y-64032658D01*
X151922658Y-64197157D01*
X151793412Y-64390587D01*
X151704386Y-64605515D01*
X151659000Y-64833682D01*
X151659000Y-65066318D01*
X151704386Y-65294485D01*
X151793412Y-65509413D01*
X151922658Y-65702843D01*
X152087157Y-65867342D01*
X152280587Y-65996588D01*
X152495515Y-66085614D01*
X152723682Y-66131000D01*
X152956318Y-66131000D01*
X153184485Y-66085614D01*
X153399413Y-65996588D01*
X153592843Y-65867342D01*
X153757342Y-65702843D01*
X153886588Y-65509413D01*
X153975614Y-65294485D01*
X154021000Y-65066318D01*
X154021000Y-64833682D01*
X153975614Y-64605515D01*
X153886588Y-64390587D01*
X153757342Y-64197157D01*
X153592843Y-64032658D01*
X153399413Y-63903412D01*
X153346000Y-63881288D01*
X153346000Y-62964845D01*
X153348447Y-62939999D01*
X153346000Y-62915153D01*
X153346000Y-62915146D01*
X153338678Y-62840807D01*
X153332768Y-62821322D01*
X153309745Y-62745425D01*
X153272102Y-62675001D01*
X153262759Y-62657521D01*
X153199527Y-62580473D01*
X153180220Y-62564628D01*
X152913490Y-62297898D01*
X152935614Y-62244485D01*
X152981000Y-62016318D01*
X152981000Y-61783682D01*
X152935614Y-61555515D01*
X152846588Y-61340587D01*
X152717342Y-61147157D01*
X152552843Y-60982658D01*
X152359413Y-60853412D01*
X152144485Y-60764386D01*
X151916318Y-60719000D01*
X151683682Y-60719000D01*
X151455515Y-60764386D01*
X151240587Y-60853412D01*
X151047157Y-60982658D01*
X150882658Y-61147157D01*
X150753412Y-61340587D01*
X150664386Y-61555515D01*
X150619000Y-61783682D01*
X126237000Y-61783682D01*
X126227839Y-61699943D01*
X126141865Y-61427151D01*
X126021807Y-61202538D01*
X125788724Y-61114514D01*
X124903238Y-62000000D01*
X124696762Y-62000000D01*
X123811276Y-61114514D01*
X123578193Y-61202538D01*
X123446093Y-61456224D01*
X123366022Y-61730807D01*
X123341058Y-62015734D01*
X121907843Y-62015734D01*
X121907843Y-61324999D01*
X121895683Y-61201538D01*
X121859671Y-61082821D01*
X121821430Y-61011276D01*
X123914514Y-61011276D01*
X124800000Y-61896762D01*
X125685486Y-61011276D01*
X125597462Y-60778193D01*
X125343776Y-60646093D01*
X125069193Y-60566022D01*
X124784266Y-60541058D01*
X124499943Y-60572161D01*
X124227151Y-60658135D01*
X124002538Y-60778193D01*
X123914514Y-61011276D01*
X121821430Y-61011276D01*
X121801190Y-60973411D01*
X121722488Y-60877512D01*
X121626589Y-60798810D01*
X121517179Y-60740329D01*
X121398462Y-60704317D01*
X121275001Y-60692157D01*
X119924999Y-60692157D01*
X119801538Y-60704317D01*
X119682821Y-60740329D01*
X119573411Y-60798810D01*
X119477512Y-60877512D01*
X119398810Y-60973411D01*
X119340329Y-61082821D01*
X119304317Y-61201538D01*
X119292157Y-61324999D01*
X114969355Y-61324999D01*
X114917342Y-61247157D01*
X114752843Y-61082658D01*
X114559413Y-60953412D01*
X114344485Y-60864386D01*
X114116318Y-60819000D01*
X113883682Y-60819000D01*
X113655515Y-60864386D01*
X113440587Y-60953412D01*
X113247157Y-61082658D01*
X113082658Y-61247157D01*
X112953412Y-61440587D01*
X112864386Y-61655515D01*
X112819000Y-61883682D01*
X107561000Y-61883682D01*
X107515614Y-61655515D01*
X107426588Y-61440587D01*
X107297342Y-61247157D01*
X107132843Y-61082658D01*
X106939413Y-60953412D01*
X106724485Y-60864386D01*
X106496318Y-60819000D01*
X106263682Y-60819000D01*
X106035515Y-60864386D01*
X105820587Y-60953412D01*
X105627157Y-61082658D01*
X105462658Y-61247157D01*
X105333412Y-61440587D01*
X105244386Y-61655515D01*
X105199000Y-61883682D01*
X100456000Y-61883682D01*
X100456000Y-60456000D01*
X179544001Y-60456000D01*
X179544000Y-82544000D01*
%TA.AperFunction,Conductor*%
D24*
G36*
X179544000Y-82544000D02*
G01*
X100456000Y-82544000D01*
X100456000Y-81988724D01*
X111014514Y-81988724D01*
X111102538Y-82221807D01*
X111356224Y-82353907D01*
X111630807Y-82433978D01*
X111915734Y-82458942D01*
X112200057Y-82427839D01*
X112472849Y-82341865D01*
X112697462Y-82221807D01*
X112785486Y-81988724D01*
X111900000Y-81103238D01*
X111014514Y-81988724D01*
X100456000Y-81988724D01*
X100456000Y-81015734D01*
X110441058Y-81015734D01*
X110472161Y-81300057D01*
X110558135Y-81572849D01*
X110678193Y-81797462D01*
X110911276Y-81885486D01*
X111796762Y-81000000D01*
X112003238Y-81000000D01*
X112888724Y-81885486D01*
X113121807Y-81797462D01*
X113253907Y-81543776D01*
X113333978Y-81269193D01*
X113358942Y-80984266D01*
X113327839Y-80699943D01*
X113241865Y-80427151D01*
X113187264Y-80324999D01*
X114792157Y-80324999D01*
X114792157Y-81675001D01*
X114804317Y-81798462D01*
X114840329Y-81917179D01*
X114898810Y-82026589D01*
X114977512Y-82122488D01*
X115073411Y-82201190D01*
X115182821Y-82259671D01*
X115301538Y-82295683D01*
X115424999Y-82307843D01*
X116775001Y-82307843D01*
X116898462Y-82295683D01*
X117017179Y-82259671D01*
X117126589Y-82201190D01*
X117222488Y-82122488D01*
X117301190Y-82026589D01*
X117321429Y-81988724D01*
X121314514Y-81988724D01*
X121402538Y-82221807D01*
X121656224Y-82353907D01*
X121930807Y-82433978D01*
X122215734Y-82458942D01*
X122500057Y-82427839D01*
X122772849Y-82341865D01*
X122997462Y-82221807D01*
X123085486Y-81988724D01*
X122200000Y-81103238D01*
X121314514Y-81988724D01*
X117321429Y-81988724D01*
X117359671Y-81917179D01*
X117395683Y-81798462D01*
X117407843Y-81675001D01*
X117407843Y-81015734D01*
X120741058Y-81015734D01*
X120772161Y-81300057D01*
X120858135Y-81572849D01*
X120978193Y-81797462D01*
X121211276Y-81885486D01*
X122096762Y-81000000D01*
X122303238Y-81000000D01*
X123188724Y-81885486D01*
X123421807Y-81797462D01*
X123553907Y-81543776D01*
X123633978Y-81269193D01*
X123658942Y-80984266D01*
X123646592Y-80871370D01*
X125094000Y-80871370D01*
X125094000Y-81128630D01*
X125144189Y-81380946D01*
X125242638Y-81618623D01*
X125385564Y-81832526D01*
X125567474Y-82014436D01*
X125781377Y-82157362D01*
X126019054Y-82255811D01*
X126271370Y-82306000D01*
X126528630Y-82306000D01*
X126780946Y-82255811D01*
X127018623Y-82157362D01*
X127232526Y-82014436D01*
X127414436Y-81832526D01*
X127557362Y-81618623D01*
X127655811Y-81380946D01*
X127706000Y-81128630D01*
X127706000Y-80871370D01*
X127655811Y-80619054D01*
X127557362Y-80381377D01*
X127519692Y-80324999D01*
X129292157Y-80324999D01*
X129292157Y-81675001D01*
X129304317Y-81798462D01*
X129340329Y-81917179D01*
X129398810Y-82026589D01*
X129477512Y-82122488D01*
X129573411Y-82201190D01*
X129682821Y-82259671D01*
X129801538Y-82295683D01*
X129924999Y-82307843D01*
X131275001Y-82307843D01*
X131398462Y-82295683D01*
X131517179Y-82259671D01*
X131626589Y-82201190D01*
X131722488Y-82122488D01*
X131801190Y-82026589D01*
X131859671Y-81917179D01*
X131895683Y-81798462D01*
X131907843Y-81675001D01*
X131907843Y-80324999D01*
X131895683Y-80201538D01*
X131859671Y-80082821D01*
X131801190Y-79973411D01*
X131722488Y-79877512D01*
X131626589Y-79798810D01*
X131517179Y-79740329D01*
X131398462Y-79704317D01*
X131275001Y-79692157D01*
X129924999Y-79692157D01*
X129801538Y-79704317D01*
X129682821Y-79740329D01*
X129573411Y-79798810D01*
X129477512Y-79877512D01*
X129398810Y-79973411D01*
X129340329Y-80082821D01*
X129304317Y-80201538D01*
X129292157Y-80324999D01*
X127519692Y-80324999D01*
X127414436Y-80167474D01*
X127232526Y-79985564D01*
X127018623Y-79842638D01*
X126780946Y-79744189D01*
X126528630Y-79694000D01*
X126271370Y-79694000D01*
X126019054Y-79744189D01*
X125781377Y-79842638D01*
X125567474Y-79985564D01*
X125385564Y-80167474D01*
X125242638Y-80381377D01*
X125144189Y-80619054D01*
X125094000Y-80871370D01*
X123646592Y-80871370D01*
X123627839Y-80699943D01*
X123541865Y-80427151D01*
X123421807Y-80202538D01*
X123188724Y-80114514D01*
X122303238Y-81000000D01*
X122096762Y-81000000D01*
X121211276Y-80114514D01*
X120978193Y-80202538D01*
X120846093Y-80456224D01*
X120766022Y-80730807D01*
X120741058Y-81015734D01*
X117407843Y-81015734D01*
X117407843Y-80324999D01*
X117395683Y-80201538D01*
X117359671Y-80082821D01*
X117321430Y-80011276D01*
X121314514Y-80011276D01*
X122200000Y-80896762D01*
X123085486Y-80011276D01*
X122997462Y-79778193D01*
X122743776Y-79646093D01*
X122469193Y-79566022D01*
X122184266Y-79541058D01*
X121899943Y-79572161D01*
X121627151Y-79658135D01*
X121402538Y-79778193D01*
X121314514Y-80011276D01*
X117321430Y-80011276D01*
X117301190Y-79973411D01*
X117222488Y-79877512D01*
X117126589Y-79798810D01*
X117017179Y-79740329D01*
X116898462Y-79704317D01*
X116775001Y-79692157D01*
X115424999Y-79692157D01*
X115301538Y-79704317D01*
X115182821Y-79740329D01*
X115073411Y-79798810D01*
X114977512Y-79877512D01*
X114898810Y-79973411D01*
X114840329Y-80082821D01*
X114804317Y-80201538D01*
X114792157Y-80324999D01*
X113187264Y-80324999D01*
X113121807Y-80202538D01*
X112888724Y-80114514D01*
X112003238Y-81000000D01*
X111796762Y-81000000D01*
X110911276Y-80114514D01*
X110678193Y-80202538D01*
X110546093Y-80456224D01*
X110466022Y-80730807D01*
X110441058Y-81015734D01*
X100456000Y-81015734D01*
X100456000Y-80011276D01*
X111014514Y-80011276D01*
X111900000Y-80896762D01*
X112785486Y-80011276D01*
X112697462Y-79778193D01*
X112443776Y-79646093D01*
X112169193Y-79566022D01*
X111884266Y-79541058D01*
X111599943Y-79572161D01*
X111327151Y-79658135D01*
X111102538Y-79778193D01*
X111014514Y-80011276D01*
X100456000Y-80011276D01*
X100456000Y-74975000D01*
X112192157Y-74975000D01*
X112192157Y-77825000D01*
X112199513Y-77899689D01*
X112221299Y-77971508D01*
X112256678Y-78037696D01*
X112304289Y-78095711D01*
X112362304Y-78143322D01*
X112428492Y-78178701D01*
X112500311Y-78200487D01*
X112575000Y-78207843D01*
X115425000Y-78207843D01*
X115499689Y-78200487D01*
X115571508Y-78178701D01*
X115637696Y-78143322D01*
X115695711Y-78095711D01*
X115743322Y-78037696D01*
X115778701Y-77971508D01*
X115800487Y-77899689D01*
X115807843Y-77825000D01*
X115807843Y-77486364D01*
X117906067Y-77486364D01*
X118000364Y-77791054D01*
X118152292Y-78071493D01*
X118356011Y-78316904D01*
X118603693Y-78517856D01*
X118885820Y-78666626D01*
X119173636Y-78753930D01*
X119427000Y-78653467D01*
X119427000Y-77233000D01*
X119573000Y-77233000D01*
X119573000Y-78653467D01*
X119826364Y-78753930D01*
X120114180Y-78666626D01*
X120396307Y-78517856D01*
X120643989Y-78316904D01*
X120847708Y-78071493D01*
X120999636Y-77791054D01*
X121093933Y-77486364D01*
X120993614Y-77233000D01*
X119573000Y-77233000D01*
X119427000Y-77233000D01*
X118006386Y-77233000D01*
X117906067Y-77486364D01*
X115807843Y-77486364D01*
X115807843Y-76833636D01*
X117906067Y-76833636D01*
X118006386Y-77087000D01*
X119427000Y-77087000D01*
X119427000Y-75666533D01*
X119573000Y-75666533D01*
X119573000Y-77087000D01*
X120993614Y-77087000D01*
X121093933Y-76833636D01*
X120999636Y-76528946D01*
X120847708Y-76248507D01*
X120825808Y-76222125D01*
X123194000Y-76222125D01*
X123194000Y-76577875D01*
X123263404Y-76926791D01*
X123399544Y-77255462D01*
X123597189Y-77551258D01*
X123848742Y-77802811D01*
X124144538Y-78000456D01*
X124473209Y-78136596D01*
X124822125Y-78206000D01*
X125177875Y-78206000D01*
X125526791Y-78136596D01*
X125855462Y-78000456D01*
X126151258Y-77802811D01*
X126402811Y-77551258D01*
X126600456Y-77255462D01*
X126736596Y-76926791D01*
X126806000Y-76577875D01*
X126806000Y-76222125D01*
X126736596Y-75873209D01*
X126600456Y-75544538D01*
X126402811Y-75248742D01*
X126151258Y-74997189D01*
X125855462Y-74799544D01*
X125526791Y-74663404D01*
X125177875Y-74594000D01*
X124822125Y-74594000D01*
X124473209Y-74663404D01*
X124144538Y-74799544D01*
X123848742Y-74997189D01*
X123597189Y-75248742D01*
X123399544Y-75544538D01*
X123263404Y-75873209D01*
X123194000Y-76222125D01*
X120825808Y-76222125D01*
X120643989Y-76003096D01*
X120396307Y-75802144D01*
X120114180Y-75653374D01*
X119826364Y-75566070D01*
X119573000Y-75666533D01*
X119427000Y-75666533D01*
X119173636Y-75566070D01*
X118885820Y-75653374D01*
X118603693Y-75802144D01*
X118356011Y-76003096D01*
X118152292Y-76248507D01*
X118000364Y-76528946D01*
X117906067Y-76833636D01*
X115807843Y-76833636D01*
X115807843Y-74975000D01*
X115800487Y-74900311D01*
X115778701Y-74828492D01*
X115743322Y-74762304D01*
X115695711Y-74704289D01*
X115637696Y-74656678D01*
X115571508Y-74621299D01*
X115499689Y-74599513D01*
X115425000Y-74592157D01*
X112575000Y-74592157D01*
X112500311Y-74599513D01*
X112428492Y-74621299D01*
X112362304Y-74656678D01*
X112304289Y-74704289D01*
X112256678Y-74762304D01*
X112221299Y-74828492D01*
X112199513Y-74900311D01*
X112192157Y-74975000D01*
X100456000Y-74975000D01*
X100456000Y-73600000D01*
X102570450Y-73600000D01*
X102580625Y-73703310D01*
X102610760Y-73802650D01*
X102659695Y-73894202D01*
X102725552Y-73974448D01*
X102805798Y-74040305D01*
X102897350Y-74089240D01*
X102996690Y-74119375D01*
X103100000Y-74129550D01*
X103795250Y-74127000D01*
X103927000Y-73995250D01*
X103927000Y-72773000D01*
X104073000Y-72773000D01*
X104073000Y-73995250D01*
X104204750Y-74127000D01*
X104900000Y-74129550D01*
X105003310Y-74119375D01*
X105102650Y-74089240D01*
X105194202Y-74040305D01*
X105274448Y-73974448D01*
X105340305Y-73894202D01*
X105389240Y-73802650D01*
X105419375Y-73703310D01*
X105429550Y-73600000D01*
X105427000Y-72904750D01*
X105295250Y-72773000D01*
X104073000Y-72773000D01*
X103927000Y-72773000D01*
X102704750Y-72773000D01*
X102573000Y-72904750D01*
X102570450Y-73600000D01*
X100456000Y-73600000D01*
X100456000Y-71800000D01*
X102570450Y-71800000D01*
X102573000Y-72495250D01*
X102704750Y-72627000D01*
X103927000Y-72627000D01*
X103927000Y-72607000D01*
X104073000Y-72607000D01*
X104073000Y-72627000D01*
X105295250Y-72627000D01*
X105427000Y-72495250D01*
X105429550Y-71800000D01*
X105419375Y-71696690D01*
X105389240Y-71597350D01*
X105349032Y-71522125D01*
X112194000Y-71522125D01*
X112194000Y-71877875D01*
X112263404Y-72226791D01*
X112399544Y-72555462D01*
X112597189Y-72851258D01*
X112848742Y-73102811D01*
X113144538Y-73300456D01*
X113473209Y-73436596D01*
X113822125Y-73506000D01*
X114177875Y-73506000D01*
X114526791Y-73436596D01*
X114855462Y-73300456D01*
X115151258Y-73102811D01*
X115402811Y-72851258D01*
X115600456Y-72555462D01*
X115736596Y-72226791D01*
X115806000Y-71877875D01*
X115806000Y-71522125D01*
X123194000Y-71522125D01*
X123194000Y-71877875D01*
X123263404Y-72226791D01*
X123399544Y-72555462D01*
X123597189Y-72851258D01*
X123848742Y-73102811D01*
X124144538Y-73300456D01*
X124473209Y-73436596D01*
X124822125Y-73506000D01*
X125177875Y-73506000D01*
X125526791Y-73436596D01*
X125855462Y-73300456D01*
X125873088Y-73288679D01*
X131124628Y-78540220D01*
X131140473Y-78559527D01*
X131217521Y-78622759D01*
X131299590Y-78666626D01*
X131305425Y-78669745D01*
X131400806Y-78698678D01*
X131410694Y-78699652D01*
X131475146Y-78706000D01*
X131475153Y-78706000D01*
X131499999Y-78708447D01*
X131524845Y-78706000D01*
X132717157Y-78706000D01*
X132717157Y-79150000D01*
X132724513Y-79224689D01*
X132746299Y-79296508D01*
X132781678Y-79362696D01*
X132829289Y-79420711D01*
X132887304Y-79468322D01*
X132953492Y-79503701D01*
X133025311Y-79525487D01*
X133100000Y-79532843D01*
X134900000Y-79532843D01*
X134974689Y-79525487D01*
X135046508Y-79503701D01*
X135112696Y-79468322D01*
X135170711Y-79420711D01*
X135218322Y-79362696D01*
X135253701Y-79296508D01*
X135275487Y-79224689D01*
X135282843Y-79150000D01*
X135282843Y-78658937D01*
X135364793Y-78856781D01*
X135504982Y-79066590D01*
X135683410Y-79245018D01*
X135893219Y-79385207D01*
X135994001Y-79426952D01*
X135994001Y-80075144D01*
X135991553Y-80100000D01*
X136001322Y-80199192D01*
X136030255Y-80294574D01*
X136030256Y-80294575D01*
X136077242Y-80382479D01*
X136140474Y-80459527D01*
X136159780Y-80475371D01*
X137044628Y-81360220D01*
X137060473Y-81379527D01*
X137137521Y-81442759D01*
X137225425Y-81489745D01*
X137298607Y-81511944D01*
X137320806Y-81518678D01*
X137330694Y-81519652D01*
X137395146Y-81526000D01*
X137395153Y-81526000D01*
X137419999Y-81528447D01*
X137444845Y-81526000D01*
X144531288Y-81526000D01*
X144553412Y-81579413D01*
X144682658Y-81772843D01*
X144847157Y-81937342D01*
X145040587Y-82066588D01*
X145255515Y-82155614D01*
X145483682Y-82201000D01*
X145716318Y-82201000D01*
X145944485Y-82155614D01*
X146159413Y-82066588D01*
X146352843Y-81937342D01*
X146517342Y-81772843D01*
X146646588Y-81579413D01*
X146735614Y-81364485D01*
X146781000Y-81136318D01*
X146781000Y-80903682D01*
X146777022Y-80883682D01*
X169419000Y-80883682D01*
X169419000Y-81116318D01*
X169464386Y-81344485D01*
X169553412Y-81559413D01*
X169682658Y-81752843D01*
X169847157Y-81917342D01*
X170040587Y-82046588D01*
X170255515Y-82135614D01*
X170483682Y-82181000D01*
X170716318Y-82181000D01*
X170944485Y-82135614D01*
X171159413Y-82046588D01*
X171352843Y-81917342D01*
X171517342Y-81752843D01*
X171646588Y-81559413D01*
X171735614Y-81344485D01*
X171781000Y-81116318D01*
X171781000Y-80883682D01*
X171735614Y-80655515D01*
X171646588Y-80440587D01*
X171517342Y-80247157D01*
X171352843Y-80082658D01*
X171159413Y-79953412D01*
X170944485Y-79864386D01*
X170716318Y-79819000D01*
X170483682Y-79819000D01*
X170255515Y-79864386D01*
X170040587Y-79953412D01*
X169847157Y-80082658D01*
X169682658Y-80247157D01*
X169553412Y-80440587D01*
X169464386Y-80655515D01*
X169419000Y-80883682D01*
X146777022Y-80883682D01*
X146735614Y-80675515D01*
X146646588Y-80460587D01*
X146517342Y-80267157D01*
X146352843Y-80102658D01*
X146159413Y-79973412D01*
X145944485Y-79884386D01*
X145716318Y-79839000D01*
X145483682Y-79839000D01*
X145255515Y-79884386D01*
X145040587Y-79973412D01*
X144847157Y-80102658D01*
X144682658Y-80267157D01*
X144553412Y-80460587D01*
X144531288Y-80514000D01*
X137629592Y-80514000D01*
X137006000Y-79890409D01*
X137006000Y-79426952D01*
X137106781Y-79385207D01*
X137316590Y-79245018D01*
X137340675Y-79220933D01*
X138132304Y-79220933D01*
X138217323Y-79451458D01*
X138466755Y-79581065D01*
X138736679Y-79659520D01*
X139016722Y-79683808D01*
X139296123Y-79652995D01*
X139564144Y-79568266D01*
X139782677Y-79451458D01*
X139867696Y-79220933D01*
X139000000Y-78353238D01*
X138132304Y-79220933D01*
X137340675Y-79220933D01*
X137495018Y-79066590D01*
X137635207Y-78856781D01*
X137669239Y-78774620D01*
X137681734Y-78814144D01*
X137798542Y-79032677D01*
X138029067Y-79117696D01*
X138896762Y-78250000D01*
X139103238Y-78250000D01*
X139970933Y-79117696D01*
X140019568Y-79099759D01*
X149503478Y-79099759D01*
X149576469Y-79320050D01*
X149808882Y-79439683D01*
X150060168Y-79511675D01*
X150320672Y-79533260D01*
X150580381Y-79503609D01*
X150829315Y-79423860D01*
X150874405Y-79399759D01*
X154203478Y-79399759D01*
X154276469Y-79620050D01*
X154508882Y-79739683D01*
X154760168Y-79811675D01*
X155020672Y-79833260D01*
X155280381Y-79803609D01*
X155529315Y-79723860D01*
X155723531Y-79620050D01*
X155796522Y-79399759D01*
X159403478Y-79399759D01*
X159476469Y-79620050D01*
X159708882Y-79739683D01*
X159960168Y-79811675D01*
X160220672Y-79833260D01*
X160480381Y-79803609D01*
X160729315Y-79723860D01*
X160923531Y-79620050D01*
X160996522Y-79399759D01*
X160200000Y-78603238D01*
X159403478Y-79399759D01*
X155796522Y-79399759D01*
X155000000Y-78603238D01*
X154203478Y-79399759D01*
X150874405Y-79399759D01*
X151023531Y-79320050D01*
X151096522Y-79099759D01*
X150300000Y-78303238D01*
X149503478Y-79099759D01*
X140019568Y-79099759D01*
X140201458Y-79032677D01*
X140331065Y-78783245D01*
X140409520Y-78513321D01*
X140433808Y-78233278D01*
X140432418Y-78220672D01*
X148966740Y-78220672D01*
X148996391Y-78480381D01*
X149076140Y-78729315D01*
X149179950Y-78923531D01*
X149400241Y-78996522D01*
X150196762Y-78200000D01*
X150182620Y-78185858D01*
X150285858Y-78082620D01*
X150300000Y-78096762D01*
X150314142Y-78082620D01*
X150417380Y-78185858D01*
X150403238Y-78200000D01*
X151199759Y-78996522D01*
X151420050Y-78923531D01*
X151539683Y-78691118D01*
X151588514Y-78520672D01*
X153666740Y-78520672D01*
X153696391Y-78780381D01*
X153776140Y-79029315D01*
X153879950Y-79223531D01*
X154100241Y-79296522D01*
X154896762Y-78500000D01*
X155103238Y-78500000D01*
X155899759Y-79296522D01*
X156120050Y-79223531D01*
X156239683Y-78991118D01*
X156311675Y-78739832D01*
X156329834Y-78520672D01*
X158866740Y-78520672D01*
X158896391Y-78780381D01*
X158976140Y-79029315D01*
X159079950Y-79223531D01*
X159300241Y-79296522D01*
X160096762Y-78500000D01*
X160303238Y-78500000D01*
X161099759Y-79296522D01*
X161320050Y-79223531D01*
X161383760Y-79099759D01*
X166003478Y-79099759D01*
X166076469Y-79320050D01*
X166308882Y-79439683D01*
X166560168Y-79511675D01*
X166820672Y-79533260D01*
X167080381Y-79503609D01*
X167329315Y-79423860D01*
X167523531Y-79320050D01*
X167596522Y-79099759D01*
X166800000Y-78303238D01*
X166003478Y-79099759D01*
X161383760Y-79099759D01*
X161439683Y-78991118D01*
X161511675Y-78739832D01*
X161533260Y-78479328D01*
X161503730Y-78220672D01*
X165466740Y-78220672D01*
X165496391Y-78480381D01*
X165576140Y-78729315D01*
X165679950Y-78923531D01*
X165900241Y-78996522D01*
X166696762Y-78200000D01*
X166682620Y-78185858D01*
X166785858Y-78082620D01*
X166800000Y-78096762D01*
X166814142Y-78082620D01*
X166917380Y-78185858D01*
X166903238Y-78200000D01*
X167699759Y-78996522D01*
X167920050Y-78923531D01*
X168039683Y-78691118D01*
X168111675Y-78439832D01*
X168133260Y-78179328D01*
X168103609Y-77919619D01*
X168023860Y-77670685D01*
X167920050Y-77476469D01*
X167699761Y-77403479D01*
X167753020Y-77350220D01*
X167812696Y-77318322D01*
X167870711Y-77270711D01*
X167918322Y-77212696D01*
X167933830Y-77183682D01*
X172819000Y-77183682D01*
X172819000Y-77416318D01*
X172864386Y-77644485D01*
X172953412Y-77859413D01*
X173082658Y-78052843D01*
X173247157Y-78217342D01*
X173440587Y-78346588D01*
X173655515Y-78435614D01*
X173883682Y-78481000D01*
X174116318Y-78481000D01*
X174344485Y-78435614D01*
X174559413Y-78346588D01*
X174752843Y-78217342D01*
X174917342Y-78052843D01*
X175046588Y-77859413D01*
X175068712Y-77806000D01*
X176590409Y-77806000D01*
X177714001Y-78929593D01*
X177714000Y-79931287D01*
X177660587Y-79953412D01*
X177467157Y-80082658D01*
X177302658Y-80247157D01*
X177173412Y-80440587D01*
X177084386Y-80655515D01*
X177039000Y-80883682D01*
X177039000Y-81116318D01*
X177084386Y-81344485D01*
X177173412Y-81559413D01*
X177302658Y-81752843D01*
X177467157Y-81917342D01*
X177660587Y-82046588D01*
X177875515Y-82135614D01*
X178103682Y-82181000D01*
X178336318Y-82181000D01*
X178564485Y-82135614D01*
X178779413Y-82046588D01*
X178972843Y-81917342D01*
X179137342Y-81752843D01*
X179266588Y-81559413D01*
X179355614Y-81344485D01*
X179401000Y-81116318D01*
X179401000Y-80883682D01*
X179355614Y-80655515D01*
X179266588Y-80440587D01*
X179137342Y-80247157D01*
X178972843Y-80082658D01*
X178779413Y-79953412D01*
X178726000Y-79931288D01*
X178726000Y-78744845D01*
X178728447Y-78719999D01*
X178726000Y-78695153D01*
X178726000Y-78695146D01*
X178718678Y-78620807D01*
X178689745Y-78525425D01*
X178642759Y-78437521D01*
X178579527Y-78360473D01*
X178560220Y-78344628D01*
X177175376Y-76959785D01*
X177159527Y-76940473D01*
X177082479Y-76877241D01*
X176994575Y-76830255D01*
X176899193Y-76801322D01*
X176824854Y-76794000D01*
X176824846Y-76794000D01*
X176800000Y-76791553D01*
X176775154Y-76794000D01*
X175068712Y-76794000D01*
X175046588Y-76740587D01*
X174917342Y-76547157D01*
X174752843Y-76382658D01*
X174559413Y-76253412D01*
X174344485Y-76164386D01*
X174116318Y-76119000D01*
X173883682Y-76119000D01*
X173655515Y-76164386D01*
X173440587Y-76253412D01*
X173247157Y-76382658D01*
X173082658Y-76547157D01*
X172953412Y-76740587D01*
X172864386Y-76955515D01*
X172819000Y-77183682D01*
X167933830Y-77183682D01*
X167953701Y-77146508D01*
X167975487Y-77074689D01*
X167982843Y-77000000D01*
X167982843Y-76706000D01*
X168875154Y-76706000D01*
X168900000Y-76708447D01*
X168924846Y-76706000D01*
X168924854Y-76706000D01*
X168999193Y-76698678D01*
X169094575Y-76669745D01*
X169182479Y-76622759D01*
X169259527Y-76559527D01*
X169275376Y-76540215D01*
X170409592Y-75406000D01*
X176831288Y-75406000D01*
X176853412Y-75459413D01*
X176982658Y-75652843D01*
X177147157Y-75817342D01*
X177340587Y-75946588D01*
X177555515Y-76035614D01*
X177783682Y-76081000D01*
X178016318Y-76081000D01*
X178244485Y-76035614D01*
X178459413Y-75946588D01*
X178652843Y-75817342D01*
X178817342Y-75652843D01*
X178946588Y-75459413D01*
X179035614Y-75244485D01*
X179081000Y-75016318D01*
X179081000Y-74783682D01*
X179035614Y-74555515D01*
X178946588Y-74340587D01*
X178817342Y-74147157D01*
X178652843Y-73982658D01*
X178459413Y-73853412D01*
X178244485Y-73764386D01*
X178016318Y-73719000D01*
X177783682Y-73719000D01*
X177555515Y-73764386D01*
X177340587Y-73853412D01*
X177147157Y-73982658D01*
X176982658Y-74147157D01*
X176853412Y-74340587D01*
X176831288Y-74394000D01*
X170224854Y-74394000D01*
X170200000Y-74391552D01*
X170175146Y-74394000D01*
X170100807Y-74401322D01*
X170005425Y-74430255D01*
X169917521Y-74477241D01*
X169840473Y-74540473D01*
X169824628Y-74559780D01*
X168690409Y-75694000D01*
X167982843Y-75694000D01*
X167982843Y-75400000D01*
X167975487Y-75325311D01*
X167953701Y-75253492D01*
X167918322Y-75187304D01*
X167870711Y-75129289D01*
X167812696Y-75081678D01*
X167746508Y-75046299D01*
X167674689Y-75024513D01*
X167600000Y-75017157D01*
X166000000Y-75017157D01*
X165925311Y-75024513D01*
X165853492Y-75046299D01*
X165787304Y-75081678D01*
X165729289Y-75129289D01*
X165681678Y-75187304D01*
X165646299Y-75253492D01*
X165624513Y-75325311D01*
X165617157Y-75400000D01*
X165617157Y-77000000D01*
X165624513Y-77074689D01*
X165646299Y-77146508D01*
X165681678Y-77212696D01*
X165729289Y-77270711D01*
X165787304Y-77318322D01*
X165846980Y-77350220D01*
X165900239Y-77403479D01*
X165679950Y-77476469D01*
X165560317Y-77708882D01*
X165488325Y-77960168D01*
X165466740Y-78220672D01*
X161503730Y-78220672D01*
X161503609Y-78219619D01*
X161423860Y-77970685D01*
X161320050Y-77776469D01*
X161099759Y-77703478D01*
X160303238Y-78500000D01*
X160096762Y-78500000D01*
X159300241Y-77703478D01*
X159079950Y-77776469D01*
X158960317Y-78008882D01*
X158888325Y-78260168D01*
X158866740Y-78520672D01*
X156329834Y-78520672D01*
X156333260Y-78479328D01*
X156303609Y-78219619D01*
X156223860Y-77970685D01*
X156120050Y-77776469D01*
X155899759Y-77703478D01*
X155103238Y-78500000D01*
X154896762Y-78500000D01*
X154100241Y-77703478D01*
X153879950Y-77776469D01*
X153760317Y-78008882D01*
X153688325Y-78260168D01*
X153666740Y-78520672D01*
X151588514Y-78520672D01*
X151611675Y-78439832D01*
X151633260Y-78179328D01*
X151603609Y-77919619D01*
X151523860Y-77670685D01*
X151420050Y-77476469D01*
X151199761Y-77403479D01*
X151253020Y-77350220D01*
X151312696Y-77318322D01*
X151370711Y-77270711D01*
X151418322Y-77212696D01*
X151453701Y-77146508D01*
X151475487Y-77074689D01*
X151482843Y-77000000D01*
X151482843Y-75400000D01*
X151475487Y-75325311D01*
X151453701Y-75253492D01*
X151418322Y-75187304D01*
X151370711Y-75129289D01*
X151312696Y-75081678D01*
X151246508Y-75046299D01*
X151174689Y-75024513D01*
X151100000Y-75017157D01*
X150806000Y-75017157D01*
X150806000Y-73638712D01*
X150859413Y-73616588D01*
X151052843Y-73487342D01*
X151217342Y-73322843D01*
X151346588Y-73129413D01*
X151435614Y-72914485D01*
X151481000Y-72686318D01*
X151481000Y-72453682D01*
X151435614Y-72225515D01*
X151346588Y-72010587D01*
X151217342Y-71817157D01*
X151052843Y-71652658D01*
X150859413Y-71523412D01*
X150644485Y-71434386D01*
X150416318Y-71389000D01*
X150183682Y-71389000D01*
X149955515Y-71434386D01*
X149740587Y-71523412D01*
X149547157Y-71652658D01*
X149382658Y-71817157D01*
X149253412Y-72010587D01*
X149164386Y-72225515D01*
X149119000Y-72453682D01*
X149119000Y-72686318D01*
X149164386Y-72914485D01*
X149253412Y-73129413D01*
X149382658Y-73322843D01*
X149547157Y-73487342D01*
X149740587Y-73616588D01*
X149794000Y-73638712D01*
X149794001Y-75017157D01*
X149500000Y-75017157D01*
X149425311Y-75024513D01*
X149353492Y-75046299D01*
X149287304Y-75081678D01*
X149229289Y-75129289D01*
X149181678Y-75187304D01*
X149146299Y-75253492D01*
X149124513Y-75325311D01*
X149117157Y-75400000D01*
X149117157Y-77000000D01*
X149124513Y-77074689D01*
X149146299Y-77146508D01*
X149181678Y-77212696D01*
X149229289Y-77270711D01*
X149287304Y-77318322D01*
X149346980Y-77350220D01*
X149400239Y-77403479D01*
X149179950Y-77476469D01*
X149060317Y-77708882D01*
X148988325Y-77960168D01*
X148966740Y-78220672D01*
X140432418Y-78220672D01*
X140402995Y-77953877D01*
X140318266Y-77685856D01*
X140201458Y-77467323D01*
X139970933Y-77382304D01*
X139103238Y-78250000D01*
X138896762Y-78250000D01*
X138029067Y-77382304D01*
X137798542Y-77467323D01*
X137668935Y-77716755D01*
X137667587Y-77721392D01*
X137635207Y-77643219D01*
X137495018Y-77433410D01*
X137340675Y-77279067D01*
X138132304Y-77279067D01*
X139000000Y-78146762D01*
X139867696Y-77279067D01*
X139782677Y-77048542D01*
X139533245Y-76918935D01*
X139263321Y-76840480D01*
X138983278Y-76816192D01*
X138703877Y-76847005D01*
X138435856Y-76931734D01*
X138217323Y-77048542D01*
X138132304Y-77279067D01*
X137340675Y-77279067D01*
X137316590Y-77254982D01*
X137106781Y-77114793D01*
X136873654Y-77018228D01*
X136626167Y-76969000D01*
X136373833Y-76969000D01*
X136126346Y-77018228D01*
X135893219Y-77114793D01*
X135683410Y-77254982D01*
X135504982Y-77433410D01*
X135364793Y-77643219D01*
X135282843Y-77841063D01*
X135282843Y-77350000D01*
X135275487Y-77275311D01*
X135253701Y-77203492D01*
X135218322Y-77137304D01*
X135170711Y-77079289D01*
X135112696Y-77031678D01*
X135046508Y-76996299D01*
X134974689Y-76974513D01*
X134900000Y-76967157D01*
X133100000Y-76967157D01*
X133025311Y-76974513D01*
X132953492Y-76996299D01*
X132887304Y-77031678D01*
X132829289Y-77079289D01*
X132781678Y-77137304D01*
X132746299Y-77203492D01*
X132724513Y-77275311D01*
X132717157Y-77350000D01*
X132717157Y-77694000D01*
X131709592Y-77694000D01*
X127299274Y-73283682D01*
X144419000Y-73283682D01*
X144419000Y-73516318D01*
X144464386Y-73744485D01*
X144553412Y-73959413D01*
X144682658Y-74152843D01*
X144847157Y-74317342D01*
X145040587Y-74446588D01*
X145255515Y-74535614D01*
X145483682Y-74581000D01*
X145716318Y-74581000D01*
X145944485Y-74535614D01*
X146159413Y-74446588D01*
X146352843Y-74317342D01*
X146517342Y-74152843D01*
X146646588Y-73959413D01*
X146735614Y-73744485D01*
X146781000Y-73516318D01*
X146781000Y-73283682D01*
X146735614Y-73055515D01*
X146646588Y-72840587D01*
X146517342Y-72647157D01*
X146352843Y-72482658D01*
X146159413Y-72353412D01*
X145944485Y-72264386D01*
X145716318Y-72219000D01*
X145483682Y-72219000D01*
X145255515Y-72264386D01*
X145040587Y-72353412D01*
X144847157Y-72482658D01*
X144682658Y-72647157D01*
X144553412Y-72840587D01*
X144464386Y-73055515D01*
X144419000Y-73283682D01*
X127299274Y-73283682D01*
X126588679Y-72573088D01*
X126600456Y-72555462D01*
X126736596Y-72226791D01*
X126806000Y-71877875D01*
X126806000Y-71522125D01*
X126736596Y-71173209D01*
X126600456Y-70844538D01*
X126402811Y-70548742D01*
X126369561Y-70515492D01*
X129369000Y-70515492D01*
X129369000Y-70984508D01*
X129460500Y-71444512D01*
X129639985Y-71877827D01*
X129900556Y-72267799D01*
X130232201Y-72599444D01*
X130622173Y-72860015D01*
X131055488Y-73039500D01*
X131515492Y-73131000D01*
X131984508Y-73131000D01*
X132444512Y-73039500D01*
X132877827Y-72860015D01*
X133267799Y-72599444D01*
X133599444Y-72267799D01*
X133860015Y-71877827D01*
X134039500Y-71444512D01*
X134131000Y-70984508D01*
X134131000Y-70515492D01*
X138869000Y-70515492D01*
X138869000Y-70984508D01*
X138960500Y-71444512D01*
X139139985Y-71877827D01*
X139400556Y-72267799D01*
X139732201Y-72599444D01*
X140122173Y-72860015D01*
X140555488Y-73039500D01*
X141015492Y-73131000D01*
X141484508Y-73131000D01*
X141944512Y-73039500D01*
X142377827Y-72860015D01*
X142767799Y-72599444D01*
X143099444Y-72267799D01*
X143360015Y-71877827D01*
X143539500Y-71444512D01*
X143631000Y-70984508D01*
X143631000Y-70515492D01*
X143539500Y-70055488D01*
X143360015Y-69622173D01*
X143099444Y-69232201D01*
X142767799Y-68900556D01*
X142377827Y-68639985D01*
X141944512Y-68460500D01*
X141484508Y-68369000D01*
X141015492Y-68369000D01*
X140555488Y-68460500D01*
X140122173Y-68639985D01*
X139732201Y-68900556D01*
X139400556Y-69232201D01*
X139139985Y-69622173D01*
X138960500Y-70055488D01*
X138869000Y-70515492D01*
X134131000Y-70515492D01*
X134039500Y-70055488D01*
X133860015Y-69622173D01*
X133599444Y-69232201D01*
X133267799Y-68900556D01*
X132877827Y-68639985D01*
X132444512Y-68460500D01*
X131984508Y-68369000D01*
X131515492Y-68369000D01*
X131055488Y-68460500D01*
X130622173Y-68639985D01*
X130232201Y-68900556D01*
X129900556Y-69232201D01*
X129639985Y-69622173D01*
X129460500Y-70055488D01*
X129369000Y-70515492D01*
X126369561Y-70515492D01*
X126151258Y-70297189D01*
X125855462Y-70099544D01*
X125526791Y-69963404D01*
X125177875Y-69894000D01*
X124822125Y-69894000D01*
X124473209Y-69963404D01*
X124144538Y-70099544D01*
X123848742Y-70297189D01*
X123597189Y-70548742D01*
X123399544Y-70844538D01*
X123263404Y-71173209D01*
X123194000Y-71522125D01*
X115806000Y-71522125D01*
X115736596Y-71173209D01*
X115600456Y-70844538D01*
X115402811Y-70548742D01*
X115151258Y-70297189D01*
X114855462Y-70099544D01*
X114526791Y-69963404D01*
X114177875Y-69894000D01*
X113822125Y-69894000D01*
X113473209Y-69963404D01*
X113144538Y-70099544D01*
X112848742Y-70297189D01*
X112597189Y-70548742D01*
X112399544Y-70844538D01*
X112263404Y-71173209D01*
X112194000Y-71522125D01*
X105349032Y-71522125D01*
X105340305Y-71505798D01*
X105274448Y-71425552D01*
X105194202Y-71359695D01*
X105102650Y-71310760D01*
X105003310Y-71280625D01*
X104900000Y-71270450D01*
X104642419Y-71271395D01*
X104816590Y-71155018D01*
X104995018Y-70976590D01*
X105135207Y-70766781D01*
X105231772Y-70533654D01*
X105281000Y-70286167D01*
X105281000Y-70033833D01*
X105231772Y-69786346D01*
X105135207Y-69553219D01*
X104995018Y-69343410D01*
X104816590Y-69164982D01*
X104606781Y-69024793D01*
X104373654Y-68928228D01*
X104126167Y-68879000D01*
X103873833Y-68879000D01*
X103626346Y-68928228D01*
X103393219Y-69024793D01*
X103183410Y-69164982D01*
X103004982Y-69343410D01*
X102864793Y-69553219D01*
X102768228Y-69786346D01*
X102719000Y-70033833D01*
X102719000Y-70286167D01*
X102768228Y-70533654D01*
X102864793Y-70766781D01*
X103004982Y-70976590D01*
X103183410Y-71155018D01*
X103357581Y-71271395D01*
X103100000Y-71270450D01*
X102996690Y-71280625D01*
X102897350Y-71310760D01*
X102805798Y-71359695D01*
X102725552Y-71425552D01*
X102659695Y-71505798D01*
X102610760Y-71597350D01*
X102580625Y-71696690D01*
X102570450Y-71800000D01*
X100456000Y-71800000D01*
X100456000Y-66822125D01*
X112194000Y-66822125D01*
X112194000Y-67177875D01*
X112263404Y-67526791D01*
X112399544Y-67855462D01*
X112597189Y-68151258D01*
X112848742Y-68402811D01*
X113144538Y-68600456D01*
X113473209Y-68736596D01*
X113822125Y-68806000D01*
X114177875Y-68806000D01*
X114526791Y-68736596D01*
X114855462Y-68600456D01*
X115151258Y-68402811D01*
X115402811Y-68151258D01*
X115600456Y-67855462D01*
X115656152Y-67721000D01*
X118017157Y-67721000D01*
X118017157Y-68100000D01*
X118024513Y-68174689D01*
X118046299Y-68246508D01*
X118081678Y-68312696D01*
X118129289Y-68370711D01*
X118187304Y-68418322D01*
X118253492Y-68453701D01*
X118325311Y-68475487D01*
X118400000Y-68482843D01*
X120600000Y-68482843D01*
X120674689Y-68475487D01*
X120746508Y-68453701D01*
X120812696Y-68418322D01*
X120870711Y-68370711D01*
X120918322Y-68312696D01*
X120953701Y-68246508D01*
X120975487Y-68174689D01*
X120982843Y-68100000D01*
X120982843Y-65900000D01*
X120975487Y-65825311D01*
X120953701Y-65753492D01*
X120918322Y-65687304D01*
X120870711Y-65629289D01*
X120812696Y-65581678D01*
X120800203Y-65575000D01*
X123192157Y-65575000D01*
X123192157Y-68425000D01*
X123199513Y-68499689D01*
X123221299Y-68571508D01*
X123256678Y-68637696D01*
X123304289Y-68695711D01*
X123362304Y-68743322D01*
X123428492Y-68778701D01*
X123500311Y-68800487D01*
X123575000Y-68807843D01*
X126425000Y-68807843D01*
X126499689Y-68800487D01*
X126571508Y-68778701D01*
X126637696Y-68743322D01*
X126695711Y-68695711D01*
X126743322Y-68637696D01*
X126778701Y-68571508D01*
X126800487Y-68499689D01*
X126807843Y-68425000D01*
X126807843Y-65575000D01*
X126800487Y-65500311D01*
X126778701Y-65428492D01*
X126743322Y-65362304D01*
X126695711Y-65304289D01*
X126637696Y-65256678D01*
X126571508Y-65221299D01*
X126499689Y-65199513D01*
X126425000Y-65192157D01*
X123575000Y-65192157D01*
X123500311Y-65199513D01*
X123428492Y-65221299D01*
X123362304Y-65256678D01*
X123304289Y-65304289D01*
X123256678Y-65362304D01*
X123221299Y-65428492D01*
X123199513Y-65500311D01*
X123192157Y-65575000D01*
X120800203Y-65575000D01*
X120746508Y-65546299D01*
X120674689Y-65524513D01*
X120600000Y-65517157D01*
X120221000Y-65517157D01*
X120221000Y-65398647D01*
X120698648Y-64921000D01*
X138801353Y-64921000D01*
X143765135Y-69884783D01*
X143787710Y-69912290D01*
X143897496Y-70002390D01*
X144022750Y-70069340D01*
X144158659Y-70110567D01*
X144264586Y-70121000D01*
X144264594Y-70121000D01*
X144300000Y-70124487D01*
X144335406Y-70121000D01*
X151801353Y-70121000D01*
X152119000Y-70438648D01*
X152119001Y-71631381D01*
X152087157Y-71652658D01*
X151922658Y-71817157D01*
X151793412Y-72010587D01*
X151704386Y-72225515D01*
X151659000Y-72453682D01*
X151659000Y-72686318D01*
X151704386Y-72914485D01*
X151793412Y-73129413D01*
X151922658Y-73322843D01*
X152087157Y-73487342D01*
X152119001Y-73508619D01*
X152119001Y-73804584D01*
X152115513Y-73840000D01*
X152129433Y-73981340D01*
X152170660Y-74117249D01*
X152189686Y-74152843D01*
X152237611Y-74242504D01*
X152278709Y-74292581D01*
X152305135Y-74324782D01*
X152305138Y-74324785D01*
X152327711Y-74352290D01*
X152355216Y-74374863D01*
X153826472Y-75846119D01*
X153819000Y-75883682D01*
X153819000Y-76116318D01*
X153864386Y-76344485D01*
X153953412Y-76559413D01*
X154082658Y-76752843D01*
X154247157Y-76917342D01*
X154440587Y-77046588D01*
X154655515Y-77135614D01*
X154873014Y-77178878D01*
X154719619Y-77196391D01*
X154470685Y-77276140D01*
X154276469Y-77379950D01*
X154203478Y-77600241D01*
X155000000Y-78396762D01*
X155796522Y-77600241D01*
X155723531Y-77379950D01*
X155491118Y-77260317D01*
X155239832Y-77188325D01*
X155126643Y-77178946D01*
X155344485Y-77135614D01*
X155559413Y-77046588D01*
X155752843Y-76917342D01*
X155917342Y-76752843D01*
X155938619Y-76721000D01*
X159017157Y-76721000D01*
X159017157Y-76800000D01*
X159024513Y-76874689D01*
X159046299Y-76946508D01*
X159081678Y-77012696D01*
X159129289Y-77070711D01*
X159187304Y-77118322D01*
X159253492Y-77153701D01*
X159325311Y-77175487D01*
X159400000Y-77182843D01*
X160038284Y-77182843D01*
X159919619Y-77196391D01*
X159670685Y-77276140D01*
X159476469Y-77379950D01*
X159403478Y-77600241D01*
X160200000Y-78396762D01*
X160996522Y-77600241D01*
X160923531Y-77379950D01*
X160691118Y-77260317D01*
X160439832Y-77188325D01*
X160373671Y-77182843D01*
X161000000Y-77182843D01*
X161074689Y-77175487D01*
X161146508Y-77153701D01*
X161212696Y-77118322D01*
X161270711Y-77070711D01*
X161318322Y-77012696D01*
X161353701Y-76946508D01*
X161375487Y-76874689D01*
X161382843Y-76800000D01*
X161382843Y-76721000D01*
X163164594Y-76721000D01*
X163200000Y-76724487D01*
X163235406Y-76721000D01*
X163235414Y-76721000D01*
X163341341Y-76710567D01*
X163477250Y-76669340D01*
X163602504Y-76602390D01*
X163712290Y-76512290D01*
X163734868Y-76484780D01*
X165634789Y-74584859D01*
X165662289Y-74562290D01*
X165684859Y-74534789D01*
X165684865Y-74534783D01*
X165720202Y-74491725D01*
X165752390Y-74452504D01*
X165819340Y-74327250D01*
X165860567Y-74191341D01*
X165871000Y-74085414D01*
X165871000Y-74085407D01*
X165874487Y-74050001D01*
X165871000Y-74014595D01*
X165871000Y-73508619D01*
X165902843Y-73487342D01*
X166067342Y-73322843D01*
X166196588Y-73129413D01*
X166285614Y-72914485D01*
X166331000Y-72686318D01*
X166331000Y-72453682D01*
X166509000Y-72453682D01*
X166509000Y-72686318D01*
X166554386Y-72914485D01*
X166643412Y-73129413D01*
X166772658Y-73322843D01*
X166937157Y-73487342D01*
X167130587Y-73616588D01*
X167345515Y-73705614D01*
X167573682Y-73751000D01*
X167806318Y-73751000D01*
X168034485Y-73705614D01*
X168249413Y-73616588D01*
X168442843Y-73487342D01*
X168607342Y-73322843D01*
X168736588Y-73129413D01*
X168825614Y-72914485D01*
X168838565Y-72849376D01*
X168932739Y-72849376D01*
X169012169Y-73097091D01*
X169138400Y-73324550D01*
X169306580Y-73523012D01*
X169510247Y-73684850D01*
X169741573Y-73803845D01*
X169950624Y-73867258D01*
X170157000Y-73763019D01*
X170157000Y-72643000D01*
X170303000Y-72643000D01*
X170303000Y-73763019D01*
X170509376Y-73867258D01*
X170718427Y-73803845D01*
X170949753Y-73684850D01*
X171153420Y-73523012D01*
X171321600Y-73324550D01*
X171447831Y-73097091D01*
X171527261Y-72849376D01*
X171423244Y-72643000D01*
X170303000Y-72643000D01*
X170157000Y-72643000D01*
X169036756Y-72643000D01*
X168932739Y-72849376D01*
X168838565Y-72849376D01*
X168871000Y-72686318D01*
X168871000Y-72453682D01*
X168838566Y-72290624D01*
X168932739Y-72290624D01*
X169036756Y-72497000D01*
X170157000Y-72497000D01*
X170157000Y-71376981D01*
X170303000Y-71376981D01*
X170303000Y-72497000D01*
X171423244Y-72497000D01*
X171527261Y-72290624D01*
X171447831Y-72042909D01*
X171321600Y-71815450D01*
X171153420Y-71616988D01*
X170949753Y-71455150D01*
X170718427Y-71336155D01*
X170509376Y-71272742D01*
X170303000Y-71376981D01*
X170157000Y-71376981D01*
X169950624Y-71272742D01*
X169741573Y-71336155D01*
X169510247Y-71455150D01*
X169306580Y-71616988D01*
X169138400Y-71815450D01*
X169012169Y-72042909D01*
X168932739Y-72290624D01*
X168838566Y-72290624D01*
X168825614Y-72225515D01*
X168736588Y-72010587D01*
X168607342Y-71817157D01*
X168442843Y-71652658D01*
X168249413Y-71523412D01*
X168034485Y-71434386D01*
X167806318Y-71389000D01*
X167573682Y-71389000D01*
X167345515Y-71434386D01*
X167130587Y-71523412D01*
X166937157Y-71652658D01*
X166772658Y-71817157D01*
X166643412Y-72010587D01*
X166554386Y-72225515D01*
X166509000Y-72453682D01*
X166331000Y-72453682D01*
X166285614Y-72225515D01*
X166196588Y-72010587D01*
X166067342Y-71817157D01*
X165902843Y-71652658D01*
X165709413Y-71523412D01*
X165494485Y-71434386D01*
X165266318Y-71389000D01*
X165033682Y-71389000D01*
X164805515Y-71434386D01*
X164590587Y-71523412D01*
X164397157Y-71652658D01*
X164232658Y-71817157D01*
X164103412Y-72010587D01*
X164014386Y-72225515D01*
X163969000Y-72453682D01*
X163969000Y-72686318D01*
X164014386Y-72914485D01*
X164103412Y-73129413D01*
X164232658Y-73322843D01*
X164397157Y-73487342D01*
X164429000Y-73508619D01*
X164429000Y-73751352D01*
X162901353Y-75279000D01*
X161382843Y-75279000D01*
X161382843Y-75200000D01*
X161375487Y-75125311D01*
X161353701Y-75053492D01*
X161318322Y-74987304D01*
X161270711Y-74929289D01*
X161212696Y-74881678D01*
X161146508Y-74846299D01*
X161074689Y-74824513D01*
X161000000Y-74817157D01*
X159400000Y-74817157D01*
X159325311Y-74824513D01*
X159253492Y-74846299D01*
X159187304Y-74881678D01*
X159129289Y-74929289D01*
X159081678Y-74987304D01*
X159046299Y-75053492D01*
X159024513Y-75125311D01*
X159017157Y-75200000D01*
X159017157Y-75279000D01*
X155938619Y-75279000D01*
X155917342Y-75247157D01*
X155752843Y-75082658D01*
X155559413Y-74953412D01*
X155344485Y-74864386D01*
X155116318Y-74819000D01*
X154883682Y-74819000D01*
X154846119Y-74826472D01*
X153561000Y-73541353D01*
X153561000Y-73508619D01*
X153592843Y-73487342D01*
X153757342Y-73322843D01*
X153886588Y-73129413D01*
X153975614Y-72914485D01*
X154021000Y-72686318D01*
X154021000Y-72453682D01*
X154199000Y-72453682D01*
X154199000Y-72686318D01*
X154244386Y-72914485D01*
X154333412Y-73129413D01*
X154462658Y-73322843D01*
X154627157Y-73487342D01*
X154820587Y-73616588D01*
X155035515Y-73705614D01*
X155263682Y-73751000D01*
X155496318Y-73751000D01*
X155724485Y-73705614D01*
X155939413Y-73616588D01*
X156132843Y-73487342D01*
X156297342Y-73322843D01*
X156426588Y-73129413D01*
X156515614Y-72914485D01*
X156528565Y-72849376D01*
X156622739Y-72849376D01*
X156702169Y-73097091D01*
X156828400Y-73324550D01*
X156996580Y-73523012D01*
X157200247Y-73684850D01*
X157431573Y-73803845D01*
X157640624Y-73867258D01*
X157847000Y-73763019D01*
X157847000Y-72643000D01*
X157993000Y-72643000D01*
X157993000Y-73763019D01*
X158199376Y-73867258D01*
X158408427Y-73803845D01*
X158639753Y-73684850D01*
X158843420Y-73523012D01*
X159011600Y-73324550D01*
X159137831Y-73097091D01*
X159217261Y-72849376D01*
X159113244Y-72643000D01*
X157993000Y-72643000D01*
X157847000Y-72643000D01*
X156726756Y-72643000D01*
X156622739Y-72849376D01*
X156528565Y-72849376D01*
X156561000Y-72686318D01*
X156561000Y-72453682D01*
X156528566Y-72290624D01*
X156622739Y-72290624D01*
X156726756Y-72497000D01*
X157847000Y-72497000D01*
X157847000Y-71376981D01*
X157993000Y-71376981D01*
X157993000Y-72497000D01*
X159113244Y-72497000D01*
X159135077Y-72453682D01*
X161429000Y-72453682D01*
X161429000Y-72686318D01*
X161474386Y-72914485D01*
X161563412Y-73129413D01*
X161692658Y-73322843D01*
X161857157Y-73487342D01*
X162050587Y-73616588D01*
X162265515Y-73705614D01*
X162493682Y-73751000D01*
X162726318Y-73751000D01*
X162954485Y-73705614D01*
X163169413Y-73616588D01*
X163362843Y-73487342D01*
X163527342Y-73322843D01*
X163656588Y-73129413D01*
X163745614Y-72914485D01*
X163791000Y-72686318D01*
X163791000Y-72453682D01*
X163745614Y-72225515D01*
X163656588Y-72010587D01*
X163527342Y-71817157D01*
X163362843Y-71652658D01*
X163169413Y-71523412D01*
X162954485Y-71434386D01*
X162726318Y-71389000D01*
X162493682Y-71389000D01*
X162265515Y-71434386D01*
X162050587Y-71523412D01*
X161857157Y-71652658D01*
X161692658Y-71817157D01*
X161563412Y-72010587D01*
X161474386Y-72225515D01*
X161429000Y-72453682D01*
X159135077Y-72453682D01*
X159217261Y-72290624D01*
X159137831Y-72042909D01*
X159011600Y-71815450D01*
X158843420Y-71616988D01*
X158639753Y-71455150D01*
X158408427Y-71336155D01*
X158199376Y-71272742D01*
X157993000Y-71376981D01*
X157847000Y-71376981D01*
X157640624Y-71272742D01*
X157431573Y-71336155D01*
X157200247Y-71455150D01*
X156996580Y-71616988D01*
X156828400Y-71815450D01*
X156702169Y-72042909D01*
X156622739Y-72290624D01*
X156528566Y-72290624D01*
X156515614Y-72225515D01*
X156426588Y-72010587D01*
X156297342Y-71817157D01*
X156132843Y-71652658D01*
X156101000Y-71631381D01*
X156101000Y-70818647D01*
X156798648Y-70121000D01*
X171864594Y-70121000D01*
X171900000Y-70124487D01*
X171935406Y-70121000D01*
X171935414Y-70121000D01*
X172041341Y-70110567D01*
X172177250Y-70069340D01*
X172302504Y-70002390D01*
X172412290Y-69912290D01*
X172434868Y-69884779D01*
X173846119Y-68473528D01*
X173883682Y-68481000D01*
X174116318Y-68481000D01*
X174344485Y-68435614D01*
X174559413Y-68346588D01*
X174752843Y-68217342D01*
X174917342Y-68052843D01*
X174938619Y-68021000D01*
X176974745Y-68021000D01*
X176982658Y-68032843D01*
X177147157Y-68197342D01*
X177340587Y-68326588D01*
X177555515Y-68415614D01*
X177783682Y-68461000D01*
X178016318Y-68461000D01*
X178244485Y-68415614D01*
X178459413Y-68326588D01*
X178652843Y-68197342D01*
X178817342Y-68032843D01*
X178946588Y-67839413D01*
X179035614Y-67624485D01*
X179081000Y-67396318D01*
X179081000Y-67163682D01*
X179035614Y-66935515D01*
X178946588Y-66720587D01*
X178817342Y-66527157D01*
X178652843Y-66362658D01*
X178621000Y-66341381D01*
X178621000Y-63088956D01*
X178732526Y-63014436D01*
X178914436Y-62832526D01*
X179057362Y-62618623D01*
X179155811Y-62380946D01*
X179206000Y-62128630D01*
X179206000Y-61871370D01*
X179155811Y-61619054D01*
X179057362Y-61381377D01*
X178914436Y-61167474D01*
X178732526Y-60985564D01*
X178518623Y-60842638D01*
X178280946Y-60744189D01*
X178028630Y-60694000D01*
X177771370Y-60694000D01*
X177519054Y-60744189D01*
X177281377Y-60842638D01*
X177067474Y-60985564D01*
X176885564Y-61167474D01*
X176742638Y-61381377D01*
X176644189Y-61619054D01*
X176594000Y-61871370D01*
X176594000Y-62128630D01*
X176644189Y-62380946D01*
X176742638Y-62618623D01*
X176885564Y-62832526D01*
X177067474Y-63014436D01*
X177179001Y-63088956D01*
X177179000Y-66341381D01*
X177147157Y-66362658D01*
X176982658Y-66527157D01*
X176948018Y-66579000D01*
X174938619Y-66579000D01*
X174917342Y-66547157D01*
X174752843Y-66382658D01*
X174559413Y-66253412D01*
X174344485Y-66164386D01*
X174116318Y-66119000D01*
X173883682Y-66119000D01*
X173655515Y-66164386D01*
X173440587Y-66253412D01*
X173247157Y-66382658D01*
X173082658Y-66547157D01*
X172953412Y-66740587D01*
X172864386Y-66955515D01*
X172819000Y-67183682D01*
X172819000Y-67416318D01*
X172826472Y-67453881D01*
X171601353Y-68679000D01*
X156535405Y-68679000D01*
X156499999Y-68675513D01*
X156464593Y-68679000D01*
X156464586Y-68679000D01*
X156358659Y-68689433D01*
X156222750Y-68730660D01*
X156097496Y-68797610D01*
X155987710Y-68887710D01*
X155965137Y-68915215D01*
X154895216Y-69985137D01*
X154867711Y-70007710D01*
X154845138Y-70035215D01*
X154845135Y-70035218D01*
X154828500Y-70055488D01*
X154777611Y-70117496D01*
X154765583Y-70139999D01*
X154710660Y-70242751D01*
X154669433Y-70378660D01*
X154655513Y-70520000D01*
X154659001Y-70555416D01*
X154659000Y-71631381D01*
X154627157Y-71652658D01*
X154462658Y-71817157D01*
X154333412Y-72010587D01*
X154244386Y-72225515D01*
X154199000Y-72453682D01*
X154021000Y-72453682D01*
X153975614Y-72225515D01*
X153886588Y-72010587D01*
X153757342Y-71817157D01*
X153592843Y-71652658D01*
X153561000Y-71631381D01*
X153561000Y-70175405D01*
X153564487Y-70139999D01*
X153561000Y-70104593D01*
X153561000Y-70104586D01*
X153550567Y-69998659D01*
X153509340Y-69862750D01*
X153442390Y-69737496D01*
X153410202Y-69698275D01*
X153374865Y-69655217D01*
X153374859Y-69655211D01*
X153352289Y-69627710D01*
X153324789Y-69605141D01*
X152634865Y-68915218D01*
X152612290Y-68887710D01*
X152502504Y-68797610D01*
X152377250Y-68730660D01*
X152241341Y-68689433D01*
X152135414Y-68679000D01*
X152135406Y-68679000D01*
X152100000Y-68675513D01*
X152064594Y-68679000D01*
X144598648Y-68679000D01*
X141803330Y-65883682D01*
X143419000Y-65883682D01*
X143419000Y-66116318D01*
X143464386Y-66344485D01*
X143553412Y-66559413D01*
X143682658Y-66752843D01*
X143847157Y-66917342D01*
X144040587Y-67046588D01*
X144255515Y-67135614D01*
X144483682Y-67181000D01*
X144716318Y-67181000D01*
X144944485Y-67135614D01*
X145159413Y-67046588D01*
X145352843Y-66917342D01*
X145421911Y-66848274D01*
X145424513Y-66874689D01*
X145446299Y-66946508D01*
X145481678Y-67012696D01*
X145529289Y-67070711D01*
X145587304Y-67118322D01*
X145653492Y-67153701D01*
X145725311Y-67175487D01*
X145800000Y-67182843D01*
X147400000Y-67182843D01*
X147474689Y-67175487D01*
X147546508Y-67153701D01*
X147612696Y-67118322D01*
X147670711Y-67070711D01*
X147718322Y-67012696D01*
X147753701Y-66946508D01*
X147775487Y-66874689D01*
X147782843Y-66800000D01*
X147782843Y-66598434D01*
X148524628Y-67340220D01*
X148540473Y-67359527D01*
X148617521Y-67422759D01*
X148705425Y-67469745D01*
X148800807Y-67498678D01*
X148900000Y-67508448D01*
X148924854Y-67506000D01*
X154575154Y-67506000D01*
X154600000Y-67508447D01*
X154624846Y-67506000D01*
X154624854Y-67506000D01*
X154699193Y-67498678D01*
X154794575Y-67469745D01*
X154882479Y-67422759D01*
X154959527Y-67359527D01*
X154975376Y-67340215D01*
X155380000Y-66935592D01*
X155784628Y-67340220D01*
X155800473Y-67359527D01*
X155877521Y-67422759D01*
X155965425Y-67469745D01*
X156060807Y-67498678D01*
X156160000Y-67508448D01*
X156184854Y-67506000D01*
X164675154Y-67506000D01*
X164700000Y-67508447D01*
X164724846Y-67506000D01*
X164724854Y-67506000D01*
X164799193Y-67498678D01*
X164894575Y-67469745D01*
X164982479Y-67422759D01*
X165059527Y-67359527D01*
X165075376Y-67340215D01*
X165490220Y-66925372D01*
X165509527Y-66909527D01*
X165572759Y-66832479D01*
X165619745Y-66744575D01*
X165626365Y-66722750D01*
X165648678Y-66649194D01*
X165652473Y-66610660D01*
X165656000Y-66574854D01*
X165656000Y-66574847D01*
X165658447Y-66550001D01*
X165656000Y-66525155D01*
X165656000Y-66018712D01*
X165709413Y-65996588D01*
X165902843Y-65867342D01*
X166067342Y-65702843D01*
X166196588Y-65509413D01*
X166285614Y-65294485D01*
X166331000Y-65066318D01*
X166331000Y-64833682D01*
X166509000Y-64833682D01*
X166509000Y-65066318D01*
X166554386Y-65294485D01*
X166643412Y-65509413D01*
X166772658Y-65702843D01*
X166937157Y-65867342D01*
X167130587Y-65996588D01*
X167345515Y-66085614D01*
X167573682Y-66131000D01*
X167806318Y-66131000D01*
X168034485Y-66085614D01*
X168249413Y-65996588D01*
X168442843Y-65867342D01*
X168607342Y-65702843D01*
X168736588Y-65509413D01*
X168825614Y-65294485D01*
X168838565Y-65229376D01*
X168932739Y-65229376D01*
X169012169Y-65477091D01*
X169138400Y-65704550D01*
X169306580Y-65903012D01*
X169510247Y-66064850D01*
X169741573Y-66183845D01*
X169950624Y-66247258D01*
X170157000Y-66143019D01*
X170157000Y-65023000D01*
X170303000Y-65023000D01*
X170303000Y-66143019D01*
X170509376Y-66247258D01*
X170718427Y-66183845D01*
X170949753Y-66064850D01*
X171153420Y-65903012D01*
X171321600Y-65704550D01*
X171447831Y-65477091D01*
X171527261Y-65229376D01*
X171423244Y-65023000D01*
X170303000Y-65023000D01*
X170157000Y-65023000D01*
X169036756Y-65023000D01*
X168932739Y-65229376D01*
X168838565Y-65229376D01*
X168871000Y-65066318D01*
X168871000Y-64833682D01*
X168838566Y-64670624D01*
X168932739Y-64670624D01*
X169036756Y-64877000D01*
X170157000Y-64877000D01*
X170157000Y-63756981D01*
X170303000Y-63756981D01*
X170303000Y-64877000D01*
X171423244Y-64877000D01*
X171527261Y-64670624D01*
X171447831Y-64422909D01*
X171321600Y-64195450D01*
X171153420Y-63996988D01*
X170949753Y-63835150D01*
X170718427Y-63716155D01*
X170509376Y-63652742D01*
X170303000Y-63756981D01*
X170157000Y-63756981D01*
X169950624Y-63652742D01*
X169741573Y-63716155D01*
X169510247Y-63835150D01*
X169306580Y-63996988D01*
X169138400Y-64195450D01*
X169012169Y-64422909D01*
X168932739Y-64670624D01*
X168838566Y-64670624D01*
X168825614Y-64605515D01*
X168736588Y-64390587D01*
X168607342Y-64197157D01*
X168442843Y-64032658D01*
X168249413Y-63903412D01*
X168196000Y-63881288D01*
X168196000Y-63619591D01*
X168802102Y-63013490D01*
X168855515Y-63035614D01*
X169083682Y-63081000D01*
X169316318Y-63081000D01*
X169544485Y-63035614D01*
X169759413Y-62946588D01*
X169952843Y-62817342D01*
X170117342Y-62652843D01*
X170246588Y-62459413D01*
X170335614Y-62244485D01*
X170381000Y-62016318D01*
X170381000Y-61783682D01*
X170335614Y-61555515D01*
X170246588Y-61340587D01*
X170236173Y-61324999D01*
X172392157Y-61324999D01*
X172392157Y-62675001D01*
X172404317Y-62798462D01*
X172440329Y-62917179D01*
X172498810Y-63026589D01*
X172577512Y-63122488D01*
X172673411Y-63201190D01*
X172782821Y-63259671D01*
X172901538Y-63295683D01*
X173024999Y-63307843D01*
X174375001Y-63307843D01*
X174498462Y-63295683D01*
X174617179Y-63259671D01*
X174726589Y-63201190D01*
X174822488Y-63122488D01*
X174901190Y-63026589D01*
X174959671Y-62917179D01*
X174995683Y-62798462D01*
X175007843Y-62675001D01*
X175007843Y-61324999D01*
X174995683Y-61201538D01*
X174959671Y-61082821D01*
X174901190Y-60973411D01*
X174822488Y-60877512D01*
X174726589Y-60798810D01*
X174617179Y-60740329D01*
X174498462Y-60704317D01*
X174375001Y-60692157D01*
X173024999Y-60692157D01*
X172901538Y-60704317D01*
X172782821Y-60740329D01*
X172673411Y-60798810D01*
X172577512Y-60877512D01*
X172498810Y-60973411D01*
X172440329Y-61082821D01*
X172404317Y-61201538D01*
X172392157Y-61324999D01*
X170236173Y-61324999D01*
X170117342Y-61147157D01*
X169952843Y-60982658D01*
X169759413Y-60853412D01*
X169544485Y-60764386D01*
X169316318Y-60719000D01*
X169083682Y-60719000D01*
X168855515Y-60764386D01*
X168640587Y-60853412D01*
X168447157Y-60982658D01*
X168282658Y-61147157D01*
X168153412Y-61340587D01*
X168064386Y-61555515D01*
X168019000Y-61783682D01*
X168019000Y-62016318D01*
X168064386Y-62244485D01*
X168086510Y-62297898D01*
X167349780Y-63034628D01*
X167330474Y-63050473D01*
X167267242Y-63127521D01*
X167251292Y-63157362D01*
X167220255Y-63215426D01*
X167191322Y-63310808D01*
X167181553Y-63410000D01*
X167184001Y-63434856D01*
X167184001Y-63881287D01*
X167130587Y-63903412D01*
X166937157Y-64032658D01*
X166772658Y-64197157D01*
X166643412Y-64390587D01*
X166554386Y-64605515D01*
X166509000Y-64833682D01*
X166331000Y-64833682D01*
X166285614Y-64605515D01*
X166196588Y-64390587D01*
X166067342Y-64197157D01*
X165902843Y-64032658D01*
X165709413Y-63903412D01*
X165494485Y-63814386D01*
X165266318Y-63769000D01*
X165033682Y-63769000D01*
X164805515Y-63814386D01*
X164590587Y-63903412D01*
X164397157Y-64032658D01*
X164232658Y-64197157D01*
X164103412Y-64390587D01*
X164014386Y-64605515D01*
X163969000Y-64833682D01*
X163969000Y-65066318D01*
X164014386Y-65294485D01*
X164103412Y-65509413D01*
X164232658Y-65702843D01*
X164397157Y-65867342D01*
X164590587Y-65996588D01*
X164644001Y-66018713D01*
X164644001Y-66340407D01*
X164490409Y-66494000D01*
X156369592Y-66494000D01*
X155891872Y-66016280D01*
X155939413Y-65996588D01*
X156132843Y-65867342D01*
X156297342Y-65702843D01*
X156426588Y-65509413D01*
X156515614Y-65294485D01*
X156528565Y-65229376D01*
X156622739Y-65229376D01*
X156702169Y-65477091D01*
X156828400Y-65704550D01*
X156996580Y-65903012D01*
X157200247Y-66064850D01*
X157431573Y-66183845D01*
X157640624Y-66247258D01*
X157847000Y-66143019D01*
X157847000Y-65023000D01*
X157993000Y-65023000D01*
X157993000Y-66143019D01*
X158199376Y-66247258D01*
X158408427Y-66183845D01*
X158639753Y-66064850D01*
X158843420Y-65903012D01*
X159011600Y-65704550D01*
X159137831Y-65477091D01*
X159217261Y-65229376D01*
X159113244Y-65023000D01*
X157993000Y-65023000D01*
X157847000Y-65023000D01*
X156726756Y-65023000D01*
X156622739Y-65229376D01*
X156528565Y-65229376D01*
X156561000Y-65066318D01*
X156561000Y-64833682D01*
X156528566Y-64670624D01*
X156622739Y-64670624D01*
X156726756Y-64877000D01*
X157847000Y-64877000D01*
X157847000Y-63756981D01*
X157993000Y-63756981D01*
X157993000Y-64877000D01*
X159113244Y-64877000D01*
X159217261Y-64670624D01*
X159137831Y-64422909D01*
X159011600Y-64195450D01*
X158973085Y-64150000D01*
X161427157Y-64150000D01*
X161427157Y-65750000D01*
X161434513Y-65824689D01*
X161456299Y-65896508D01*
X161491678Y-65962696D01*
X161539289Y-66020711D01*
X161597304Y-66068322D01*
X161663492Y-66103701D01*
X161735311Y-66125487D01*
X161810000Y-66132843D01*
X163410000Y-66132843D01*
X163484689Y-66125487D01*
X163556508Y-66103701D01*
X163622696Y-66068322D01*
X163680711Y-66020711D01*
X163728322Y-65962696D01*
X163763701Y-65896508D01*
X163785487Y-65824689D01*
X163792843Y-65750000D01*
X163792843Y-64150000D01*
X163785487Y-64075311D01*
X163763701Y-64003492D01*
X163728322Y-63937304D01*
X163680711Y-63879289D01*
X163622696Y-63831678D01*
X163556508Y-63796299D01*
X163484689Y-63774513D01*
X163410000Y-63767157D01*
X161810000Y-63767157D01*
X161735311Y-63774513D01*
X161663492Y-63796299D01*
X161597304Y-63831678D01*
X161539289Y-63879289D01*
X161491678Y-63937304D01*
X161456299Y-64003492D01*
X161434513Y-64075311D01*
X161427157Y-64150000D01*
X158973085Y-64150000D01*
X158843420Y-63996988D01*
X158639753Y-63835150D01*
X158408427Y-63716155D01*
X158199376Y-63652742D01*
X157993000Y-63756981D01*
X157847000Y-63756981D01*
X157640624Y-63652742D01*
X157431573Y-63716155D01*
X157200247Y-63835150D01*
X156996580Y-63996988D01*
X156828400Y-64195450D01*
X156702169Y-64422909D01*
X156622739Y-64670624D01*
X156528566Y-64670624D01*
X156515614Y-64605515D01*
X156426588Y-64390587D01*
X156297342Y-64197157D01*
X156132843Y-64032658D01*
X155939413Y-63903412D01*
X155886000Y-63881288D01*
X155886000Y-63529591D01*
X156402102Y-63013490D01*
X156455515Y-63035614D01*
X156683682Y-63081000D01*
X156916318Y-63081000D01*
X157144485Y-63035614D01*
X157359413Y-62946588D01*
X157552843Y-62817342D01*
X157717342Y-62652843D01*
X157846588Y-62459413D01*
X157868712Y-62406000D01*
X160511288Y-62406000D01*
X160533412Y-62459413D01*
X160662658Y-62652843D01*
X160827157Y-62817342D01*
X161020587Y-62946588D01*
X161235515Y-63035614D01*
X161463682Y-63081000D01*
X161696318Y-63081000D01*
X161924485Y-63035614D01*
X162139413Y-62946588D01*
X162332843Y-62817342D01*
X162497342Y-62652843D01*
X162626588Y-62459413D01*
X162715614Y-62244485D01*
X162761000Y-62016318D01*
X162761000Y-61783682D01*
X162715614Y-61555515D01*
X162626588Y-61340587D01*
X162497342Y-61147157D01*
X162332843Y-60982658D01*
X162139413Y-60853412D01*
X161924485Y-60764386D01*
X161696318Y-60719000D01*
X161463682Y-60719000D01*
X161235515Y-60764386D01*
X161020587Y-60853412D01*
X160827157Y-60982658D01*
X160662658Y-61147157D01*
X160533412Y-61340587D01*
X160511288Y-61394000D01*
X157868712Y-61394000D01*
X157846588Y-61340587D01*
X157717342Y-61147157D01*
X157552843Y-60982658D01*
X157359413Y-60853412D01*
X157144485Y-60764386D01*
X156916318Y-60719000D01*
X156683682Y-60719000D01*
X156455515Y-60764386D01*
X156240587Y-60853412D01*
X156047157Y-60982658D01*
X155882658Y-61147157D01*
X155753412Y-61340587D01*
X155664386Y-61555515D01*
X155619000Y-61783682D01*
X155619000Y-62016318D01*
X155664386Y-62244485D01*
X155686510Y-62297898D01*
X155039780Y-62944628D01*
X155020474Y-62960473D01*
X154957242Y-63037521D01*
X154956349Y-63039192D01*
X154910255Y-63125426D01*
X154881322Y-63220808D01*
X154871553Y-63320000D01*
X154874001Y-63344856D01*
X154874001Y-63881287D01*
X154820587Y-63903412D01*
X154627157Y-64032658D01*
X154462658Y-64197157D01*
X154333412Y-64390587D01*
X154244386Y-64605515D01*
X154199000Y-64833682D01*
X154199000Y-65066318D01*
X154244386Y-65294485D01*
X154333412Y-65509413D01*
X154462658Y-65702843D01*
X154627157Y-65867342D01*
X154820587Y-65996588D01*
X154868128Y-66016280D01*
X154390409Y-66494000D01*
X149109592Y-66494000D01*
X148275376Y-65659785D01*
X148259527Y-65640473D01*
X148182479Y-65577241D01*
X148094575Y-65530255D01*
X147999193Y-65501322D01*
X147924854Y-65494000D01*
X147924846Y-65494000D01*
X147900000Y-65491553D01*
X147875154Y-65494000D01*
X147782843Y-65494000D01*
X147782843Y-65200000D01*
X147775487Y-65125311D01*
X147753701Y-65053492D01*
X147718322Y-64987304D01*
X147670711Y-64929289D01*
X147612696Y-64881678D01*
X147546508Y-64846299D01*
X147474689Y-64824513D01*
X147400000Y-64817157D01*
X145800000Y-64817157D01*
X145725311Y-64824513D01*
X145653492Y-64846299D01*
X145587304Y-64881678D01*
X145529289Y-64929289D01*
X145481678Y-64987304D01*
X145446299Y-65053492D01*
X145424513Y-65125311D01*
X145421911Y-65151726D01*
X145352843Y-65082658D01*
X145159413Y-64953412D01*
X144944485Y-64864386D01*
X144716318Y-64819000D01*
X144483682Y-64819000D01*
X144255515Y-64864386D01*
X144040587Y-64953412D01*
X143847157Y-65082658D01*
X143682658Y-65247157D01*
X143553412Y-65440587D01*
X143464386Y-65655515D01*
X143419000Y-65883682D01*
X141803330Y-65883682D01*
X140069648Y-64150000D01*
X149117157Y-64150000D01*
X149117157Y-65750000D01*
X149124513Y-65824689D01*
X149146299Y-65896508D01*
X149181678Y-65962696D01*
X149229289Y-66020711D01*
X149287304Y-66068322D01*
X149353492Y-66103701D01*
X149425311Y-66125487D01*
X149500000Y-66132843D01*
X151100000Y-66132843D01*
X151174689Y-66125487D01*
X151246508Y-66103701D01*
X151312696Y-66068322D01*
X151370711Y-66020711D01*
X151418322Y-65962696D01*
X151453701Y-65896508D01*
X151475487Y-65824689D01*
X151482843Y-65750000D01*
X151482843Y-64150000D01*
X151475487Y-64075311D01*
X151453701Y-64003492D01*
X151418322Y-63937304D01*
X151370711Y-63879289D01*
X151312696Y-63831678D01*
X151246508Y-63796299D01*
X151174689Y-63774513D01*
X151100000Y-63767157D01*
X149500000Y-63767157D01*
X149425311Y-63774513D01*
X149353492Y-63796299D01*
X149287304Y-63831678D01*
X149229289Y-63879289D01*
X149181678Y-63937304D01*
X149146299Y-64003492D01*
X149124513Y-64075311D01*
X149117157Y-64150000D01*
X140069648Y-64150000D01*
X139634868Y-63715221D01*
X139612290Y-63687710D01*
X139502504Y-63597610D01*
X139377250Y-63530660D01*
X139241341Y-63489433D01*
X139135414Y-63479000D01*
X139135406Y-63479000D01*
X139100000Y-63475513D01*
X139064594Y-63479000D01*
X120435405Y-63479000D01*
X120399999Y-63475513D01*
X120364593Y-63479000D01*
X120364586Y-63479000D01*
X120258659Y-63489433D01*
X120122750Y-63530660D01*
X119997496Y-63597610D01*
X119887710Y-63687710D01*
X119865137Y-63715215D01*
X119015216Y-64565137D01*
X118987711Y-64587710D01*
X118965138Y-64615215D01*
X118965135Y-64615218D01*
X118938709Y-64647419D01*
X118897611Y-64697496D01*
X118866647Y-64755425D01*
X118830660Y-64822751D01*
X118789433Y-64958660D01*
X118775513Y-65100000D01*
X118779001Y-65135416D01*
X118779001Y-65517157D01*
X118400000Y-65517157D01*
X118325311Y-65524513D01*
X118253492Y-65546299D01*
X118187304Y-65581678D01*
X118129289Y-65629289D01*
X118081678Y-65687304D01*
X118046299Y-65753492D01*
X118024513Y-65825311D01*
X118017157Y-65900000D01*
X118017157Y-66279000D01*
X115656152Y-66279000D01*
X115600456Y-66144538D01*
X115402811Y-65848742D01*
X115151258Y-65597189D01*
X114855462Y-65399544D01*
X114526791Y-65263404D01*
X114177875Y-65194000D01*
X113822125Y-65194000D01*
X113473209Y-65263404D01*
X113144538Y-65399544D01*
X112848742Y-65597189D01*
X112597189Y-65848742D01*
X112399544Y-66144538D01*
X112263404Y-66473209D01*
X112194000Y-66822125D01*
X100456000Y-66822125D01*
X100456000Y-61883682D01*
X105199000Y-61883682D01*
X105199000Y-62116318D01*
X105244386Y-62344485D01*
X105333412Y-62559413D01*
X105462658Y-62752843D01*
X105627157Y-62917342D01*
X105820587Y-63046588D01*
X106035515Y-63135614D01*
X106263682Y-63181000D01*
X106496318Y-63181000D01*
X106724485Y-63135614D01*
X106939413Y-63046588D01*
X107132843Y-62917342D01*
X107297342Y-62752843D01*
X107426588Y-62559413D01*
X107515614Y-62344485D01*
X107561000Y-62116318D01*
X107561000Y-61883682D01*
X112819000Y-61883682D01*
X112819000Y-62116318D01*
X112864386Y-62344485D01*
X112953412Y-62559413D01*
X113082658Y-62752843D01*
X113247157Y-62917342D01*
X113440587Y-63046588D01*
X113655515Y-63135614D01*
X113883682Y-63181000D01*
X114116318Y-63181000D01*
X114344485Y-63135614D01*
X114559413Y-63046588D01*
X114752843Y-62917342D01*
X114917342Y-62752843D01*
X115046588Y-62559413D01*
X115135614Y-62344485D01*
X115181000Y-62116318D01*
X115181000Y-61883682D01*
X115135614Y-61655515D01*
X115046588Y-61440587D01*
X114969355Y-61324999D01*
X119292157Y-61324999D01*
X119292157Y-62675001D01*
X119304317Y-62798462D01*
X119340329Y-62917179D01*
X119398810Y-63026589D01*
X119477512Y-63122488D01*
X119573411Y-63201190D01*
X119682821Y-63259671D01*
X119801538Y-63295683D01*
X119924999Y-63307843D01*
X121275001Y-63307843D01*
X121398462Y-63295683D01*
X121517179Y-63259671D01*
X121626589Y-63201190D01*
X121722488Y-63122488D01*
X121801190Y-63026589D01*
X121821429Y-62988724D01*
X123914514Y-62988724D01*
X124002538Y-63221807D01*
X124256224Y-63353907D01*
X124530807Y-63433978D01*
X124815734Y-63458942D01*
X125100057Y-63427839D01*
X125372849Y-63341865D01*
X125597462Y-63221807D01*
X125685486Y-62988724D01*
X124800000Y-62103238D01*
X123914514Y-62988724D01*
X121821429Y-62988724D01*
X121859671Y-62917179D01*
X121895683Y-62798462D01*
X121907843Y-62675001D01*
X121907843Y-62015734D01*
X123341058Y-62015734D01*
X123372161Y-62300057D01*
X123458135Y-62572849D01*
X123578193Y-62797462D01*
X123811276Y-62885486D01*
X124696762Y-62000000D01*
X124903238Y-62000000D01*
X125788724Y-62885486D01*
X126021807Y-62797462D01*
X126153907Y-62543776D01*
X126233978Y-62269193D01*
X126258942Y-61984266D01*
X126237000Y-61783682D01*
X150619000Y-61783682D01*
X150619000Y-62016318D01*
X150664386Y-62244485D01*
X150753412Y-62459413D01*
X150882658Y-62652843D01*
X151047157Y-62817342D01*
X151240587Y-62946588D01*
X151455515Y-63035614D01*
X151683682Y-63081000D01*
X151916318Y-63081000D01*
X152144485Y-63035614D01*
X152197898Y-63013490D01*
X152334001Y-63149593D01*
X152334001Y-63881287D01*
X152280587Y-63903412D01*
X152087157Y-64032658D01*
X151922658Y-64197157D01*
X151793412Y-64390587D01*
X151704386Y-64605515D01*
X151659000Y-64833682D01*
X151659000Y-65066318D01*
X151704386Y-65294485D01*
X151793412Y-65509413D01*
X151922658Y-65702843D01*
X152087157Y-65867342D01*
X152280587Y-65996588D01*
X152495515Y-66085614D01*
X152723682Y-66131000D01*
X152956318Y-66131000D01*
X153184485Y-66085614D01*
X153399413Y-65996588D01*
X153592843Y-65867342D01*
X153757342Y-65702843D01*
X153886588Y-65509413D01*
X153975614Y-65294485D01*
X154021000Y-65066318D01*
X154021000Y-64833682D01*
X153975614Y-64605515D01*
X153886588Y-64390587D01*
X153757342Y-64197157D01*
X153592843Y-64032658D01*
X153399413Y-63903412D01*
X153346000Y-63881288D01*
X153346000Y-62964845D01*
X153348447Y-62939999D01*
X153346000Y-62915153D01*
X153346000Y-62915146D01*
X153338678Y-62840807D01*
X153332768Y-62821322D01*
X153309745Y-62745425D01*
X153272102Y-62675001D01*
X153262759Y-62657521D01*
X153199527Y-62580473D01*
X153180220Y-62564628D01*
X152913490Y-62297898D01*
X152935614Y-62244485D01*
X152981000Y-62016318D01*
X152981000Y-61783682D01*
X152935614Y-61555515D01*
X152846588Y-61340587D01*
X152717342Y-61147157D01*
X152552843Y-60982658D01*
X152359413Y-60853412D01*
X152144485Y-60764386D01*
X151916318Y-60719000D01*
X151683682Y-60719000D01*
X151455515Y-60764386D01*
X151240587Y-60853412D01*
X151047157Y-60982658D01*
X150882658Y-61147157D01*
X150753412Y-61340587D01*
X150664386Y-61555515D01*
X150619000Y-61783682D01*
X126237000Y-61783682D01*
X126227839Y-61699943D01*
X126141865Y-61427151D01*
X126021807Y-61202538D01*
X125788724Y-61114514D01*
X124903238Y-62000000D01*
X124696762Y-62000000D01*
X123811276Y-61114514D01*
X123578193Y-61202538D01*
X123446093Y-61456224D01*
X123366022Y-61730807D01*
X123341058Y-62015734D01*
X121907843Y-62015734D01*
X121907843Y-61324999D01*
X121895683Y-61201538D01*
X121859671Y-61082821D01*
X121821430Y-61011276D01*
X123914514Y-61011276D01*
X124800000Y-61896762D01*
X125685486Y-61011276D01*
X125597462Y-60778193D01*
X125343776Y-60646093D01*
X125069193Y-60566022D01*
X124784266Y-60541058D01*
X124499943Y-60572161D01*
X124227151Y-60658135D01*
X124002538Y-60778193D01*
X123914514Y-61011276D01*
X121821430Y-61011276D01*
X121801190Y-60973411D01*
X121722488Y-60877512D01*
X121626589Y-60798810D01*
X121517179Y-60740329D01*
X121398462Y-60704317D01*
X121275001Y-60692157D01*
X119924999Y-60692157D01*
X119801538Y-60704317D01*
X119682821Y-60740329D01*
X119573411Y-60798810D01*
X119477512Y-60877512D01*
X119398810Y-60973411D01*
X119340329Y-61082821D01*
X119304317Y-61201538D01*
X119292157Y-61324999D01*
X114969355Y-61324999D01*
X114917342Y-61247157D01*
X114752843Y-61082658D01*
X114559413Y-60953412D01*
X114344485Y-60864386D01*
X114116318Y-60819000D01*
X113883682Y-60819000D01*
X113655515Y-60864386D01*
X113440587Y-60953412D01*
X113247157Y-61082658D01*
X113082658Y-61247157D01*
X112953412Y-61440587D01*
X112864386Y-61655515D01*
X112819000Y-61883682D01*
X107561000Y-61883682D01*
X107515614Y-61655515D01*
X107426588Y-61440587D01*
X107297342Y-61247157D01*
X107132843Y-61082658D01*
X106939413Y-60953412D01*
X106724485Y-60864386D01*
X106496318Y-60819000D01*
X106263682Y-60819000D01*
X106035515Y-60864386D01*
X105820587Y-60953412D01*
X105627157Y-61082658D01*
X105462658Y-61247157D01*
X105333412Y-61440587D01*
X105244386Y-61655515D01*
X105199000Y-61883682D01*
X100456000Y-61883682D01*
X100456000Y-60456000D01*
X179544001Y-60456000D01*
X179544000Y-82544000D01*
G37*
%TD.AperFunction*%
%TD*%
M02*
