%TF.GenerationSoftware,KiCad,Pcbnew,(5.1.9)-1*%
%TF.CreationDate,2021-04-25T13:20:26-07:00*%
%TF.ProjectId,LM380_BridgeAmp,4c4d3338-305f-4427-9269-646765416d70,v01*%
%TF.SameCoordinates,Original*%
%TF.FileFunction,Legend,Top*%
%TF.FilePolarity,Positive*%
%FSLAX46Y46*%
G04 Gerber Fmt 4.6, Leading zero omitted, Abs format (unit mm)*
G04 Created by KiCad (PCBNEW (5.1.9)-1) date 2021-04-25 13:20:26*
%MOMM*%
%LPD*%
G01*
G04 APERTURE LIST*
%ADD10C,0.153000*%
G04 APERTURE END LIST*
D10*
X156059714Y-81197285D02*
X156059714Y-81853000D01*
X156016000Y-81984142D01*
X155928571Y-82071571D01*
X155797428Y-82115285D01*
X155710000Y-82115285D01*
X156934000Y-82115285D02*
X156496857Y-82115285D01*
X156496857Y-81197285D01*
X157764571Y-82027857D02*
X157720857Y-82071571D01*
X157589714Y-82115285D01*
X157502285Y-82115285D01*
X157371142Y-82071571D01*
X157283714Y-81984142D01*
X157240000Y-81896714D01*
X157196285Y-81721857D01*
X157196285Y-81590714D01*
X157240000Y-81415857D01*
X157283714Y-81328428D01*
X157371142Y-81241000D01*
X157502285Y-81197285D01*
X157589714Y-81197285D01*
X157720857Y-81241000D01*
X157764571Y-81284714D01*
X158420285Y-81197285D02*
X158420285Y-81853000D01*
X158376571Y-81984142D01*
X158289142Y-82071571D01*
X158158000Y-82115285D01*
X158070571Y-82115285D01*
X159294571Y-82115285D02*
X158857428Y-82115285D01*
X158857428Y-81197285D01*
X160125142Y-82027857D02*
X160081428Y-82071571D01*
X159950285Y-82115285D01*
X159862857Y-82115285D01*
X159731714Y-82071571D01*
X159644285Y-81984142D01*
X159600571Y-81896714D01*
X159556857Y-81721857D01*
X159556857Y-81590714D01*
X159600571Y-81415857D01*
X159644285Y-81328428D01*
X159731714Y-81241000D01*
X159862857Y-81197285D01*
X159950285Y-81197285D01*
X160081428Y-81241000D01*
X160125142Y-81284714D01*
X160780857Y-81197285D02*
X160780857Y-81853000D01*
X160737142Y-81984142D01*
X160649714Y-82071571D01*
X160518571Y-82115285D01*
X160431142Y-82115285D01*
X161655142Y-82115285D02*
X161218000Y-82115285D01*
X161218000Y-81197285D01*
X162485714Y-82027857D02*
X162442000Y-82071571D01*
X162310857Y-82115285D01*
X162223428Y-82115285D01*
X162092285Y-82071571D01*
X162004857Y-81984142D01*
X161961142Y-81896714D01*
X161917428Y-81721857D01*
X161917428Y-81590714D01*
X161961142Y-81415857D01*
X162004857Y-81328428D01*
X162092285Y-81241000D01*
X162223428Y-81197285D01*
X162310857Y-81197285D01*
X162442000Y-81241000D01*
X162485714Y-81284714D01*
X163141428Y-81197285D02*
X163141428Y-81853000D01*
X163097714Y-81984142D01*
X163010285Y-82071571D01*
X162879142Y-82115285D01*
X162791714Y-82115285D01*
X164015714Y-82115285D02*
X163578571Y-82115285D01*
X163578571Y-81197285D01*
X164846285Y-82027857D02*
X164802571Y-82071571D01*
X164671428Y-82115285D01*
X164584000Y-82115285D01*
X164452857Y-82071571D01*
X164365428Y-81984142D01*
X164321714Y-81896714D01*
X164278000Y-81721857D01*
X164278000Y-81590714D01*
X164321714Y-81415857D01*
X164365428Y-81328428D01*
X164452857Y-81241000D01*
X164584000Y-81197285D01*
X164671428Y-81197285D01*
X164802571Y-81241000D01*
X164846285Y-81284714D01*
%TO.C,D2*%
X106500000Y-71430000D02*
G75*
G03*
X106500000Y-71430000I-2500000J0D01*
G01*
X102455000Y-73990000D02*
X105545000Y-73990000D01*
X104000462Y-68440000D02*
G75*
G03*
X102455170Y-73990000I-462J-2990000D01*
G01*
X103999538Y-68440000D02*
G75*
G02*
X105544830Y-73990000I462J-2990000D01*
G01*
%TO.C,RV1*%
X141970000Y-65780000D02*
X141970000Y-68500000D01*
X141970000Y-73000000D02*
X141970000Y-77370000D01*
X131030000Y-73000000D02*
X131030000Y-77370000D01*
X132850000Y-77370000D02*
X131030000Y-77370000D01*
X141970000Y-65780000D02*
X131030000Y-65780000D01*
X131030000Y-65780000D02*
X131030000Y-68500000D01*
X141970000Y-77370000D02*
X140150000Y-77370000D01*
%TO.C,SW1*%
X117525000Y-65250000D02*
X117100000Y-65250000D01*
X117525000Y-65275000D02*
X117525000Y-65725000D01*
X117525000Y-78150000D02*
X117525000Y-77700000D01*
X117525000Y-78150000D02*
X117100000Y-78150000D01*
X110475000Y-78150000D02*
X110850000Y-78150000D01*
X110475000Y-78150000D02*
X110475000Y-77750000D01*
X110475000Y-65625000D02*
X110475000Y-65250000D01*
X110475000Y-65250000D02*
X110825000Y-65250000D01*
%TO.C,SW2*%
X128525000Y-78150000D02*
X128175000Y-78150000D01*
X128525000Y-77775000D02*
X128525000Y-78150000D01*
X128525000Y-65250000D02*
X128525000Y-65650000D01*
X128525000Y-65250000D02*
X128150000Y-65250000D01*
X121475000Y-65250000D02*
X121900000Y-65250000D01*
X121475000Y-65250000D02*
X121475000Y-65700000D01*
X121475000Y-78125000D02*
X121475000Y-77675000D01*
X121475000Y-78150000D02*
X121900000Y-78150000D01*
%TO.C,D2*%
X103222428Y-68015285D02*
X103222428Y-67097285D01*
X103441000Y-67097285D01*
X103572142Y-67141000D01*
X103659571Y-67228428D01*
X103703285Y-67315857D01*
X103747000Y-67490714D01*
X103747000Y-67621857D01*
X103703285Y-67796714D01*
X103659571Y-67884142D01*
X103572142Y-67971571D01*
X103441000Y-68015285D01*
X103222428Y-68015285D01*
X104096714Y-67184714D02*
X104140428Y-67141000D01*
X104227857Y-67097285D01*
X104446428Y-67097285D01*
X104533857Y-67141000D01*
X104577571Y-67184714D01*
X104621285Y-67272142D01*
X104621285Y-67359571D01*
X104577571Y-67490714D01*
X104053000Y-68015285D01*
X104621285Y-68015285D01*
%TO.C,RV1*%
X135953571Y-65415285D02*
X135647571Y-64978142D01*
X135429000Y-65415285D02*
X135429000Y-64497285D01*
X135778714Y-64497285D01*
X135866142Y-64541000D01*
X135909857Y-64584714D01*
X135953571Y-64672142D01*
X135953571Y-64803285D01*
X135909857Y-64890714D01*
X135866142Y-64934428D01*
X135778714Y-64978142D01*
X135429000Y-64978142D01*
X136215857Y-64497285D02*
X136521857Y-65415285D01*
X136827857Y-64497285D01*
X137614714Y-65415285D02*
X137090142Y-65415285D01*
X137352428Y-65415285D02*
X137352428Y-64497285D01*
X137265000Y-64628428D01*
X137177571Y-64715857D01*
X137090142Y-64759571D01*
%TO.C,SW1*%
X112876000Y-64871571D02*
X113007142Y-64915285D01*
X113225714Y-64915285D01*
X113313142Y-64871571D01*
X113356857Y-64827857D01*
X113400571Y-64740428D01*
X113400571Y-64653000D01*
X113356857Y-64565571D01*
X113313142Y-64521857D01*
X113225714Y-64478142D01*
X113050857Y-64434428D01*
X112963428Y-64390714D01*
X112919714Y-64347000D01*
X112876000Y-64259571D01*
X112876000Y-64172142D01*
X112919714Y-64084714D01*
X112963428Y-64041000D01*
X113050857Y-63997285D01*
X113269428Y-63997285D01*
X113400571Y-64041000D01*
X113706571Y-63997285D02*
X113925142Y-64915285D01*
X114100000Y-64259571D01*
X114274857Y-64915285D01*
X114493428Y-63997285D01*
X115324000Y-64915285D02*
X114799428Y-64915285D01*
X115061714Y-64915285D02*
X115061714Y-63997285D01*
X114974285Y-64128428D01*
X114886857Y-64215857D01*
X114799428Y-64259571D01*
%TO.C,SW2*%
X123776000Y-64871571D02*
X123907142Y-64915285D01*
X124125714Y-64915285D01*
X124213142Y-64871571D01*
X124256857Y-64827857D01*
X124300571Y-64740428D01*
X124300571Y-64653000D01*
X124256857Y-64565571D01*
X124213142Y-64521857D01*
X124125714Y-64478142D01*
X123950857Y-64434428D01*
X123863428Y-64390714D01*
X123819714Y-64347000D01*
X123776000Y-64259571D01*
X123776000Y-64172142D01*
X123819714Y-64084714D01*
X123863428Y-64041000D01*
X123950857Y-63997285D01*
X124169428Y-63997285D01*
X124300571Y-64041000D01*
X124606571Y-63997285D02*
X124825142Y-64915285D01*
X125000000Y-64259571D01*
X125174857Y-64915285D01*
X125393428Y-63997285D01*
X125699428Y-64084714D02*
X125743142Y-64041000D01*
X125830571Y-63997285D01*
X126049142Y-63997285D01*
X126136571Y-64041000D01*
X126180285Y-64084714D01*
X126224000Y-64172142D01*
X126224000Y-64259571D01*
X126180285Y-64390714D01*
X125655714Y-64915285D01*
X126224000Y-64915285D01*
%TD*%
M02*
