M48
; DRILL file {KiCad (5.1.9)-1} date 04/25/21 13:20:44
; FORMAT={-:-/ absolute / inch / decimal}
; #@! TF.CreationDate,2021-04-25T13:20:44-07:00
; #@! TF.GenerationSoftware,Kicad,Pcbnew,(5.1.9)-1
FMAT,2
INCH
T1C0.0315
T2C0.0335
T3C0.0354
T4C0.0394
T5C0.0433
T6C0.0728
T7C0.0787
%
G90
G05
T1
X4.1882Y-2.4409
X4.4882Y-2.4409
X5.6929Y-2.5984
X5.7323Y-2.8898
X5.7323Y-3.1898
X5.7717Y-2.5984
X5.9173Y-2.5571
X5.9173Y-2.8571
X5.9173Y-3.0
X5.9173Y-3.0787
X5.9764Y-2.437
X6.0173Y-2.5571
X6.0173Y-2.8571
X6.1024Y-2.9921
X6.1024Y-3.0906
X6.1173Y-2.5571
X6.1173Y-2.8571
X6.1732Y-2.437
X6.2173Y-2.5571
X6.2173Y-2.8571
X6.3071Y-2.9921
X6.3071Y-3.0906
X6.3614Y-2.437
X6.402Y-2.5571
X6.402Y-2.8571
X6.502Y-2.5571
X6.502Y-2.8571
X6.5669Y-3.0
X6.5669Y-3.0787
X6.602Y-2.5571
X6.602Y-2.8571
X6.6614Y-2.437
X6.702Y-2.5571
X6.702Y-2.8571
X6.7165Y-3.189
X6.8504Y-2.6496
X6.8504Y-3.0433
X7.0039Y-2.6488
X7.0039Y-2.9488
X7.0165Y-3.189
T2
X4.4055Y-3.189
X4.5709Y-3.189
X4.748Y-2.4409
X4.811Y-3.189
X4.9134Y-2.4409
X4.9764Y-3.189
X5.1417Y-3.189
X6.8386Y-2.4409
X7.0039Y-2.4409
T3
X4.0945Y-2.7622
X4.0945Y-2.8622
T4
X5.2756Y-3.0807
X5.374Y-3.0807
X5.4724Y-3.0807
T5
X4.7047Y-2.6378
X4.7047Y-3.0378
T6
X4.4882Y-2.6378
X4.4882Y-2.8228
X4.4882Y-3.0079
X4.9213Y-2.6378
X4.9213Y-2.8228
X4.9213Y-3.0079
T7
X5.187Y-2.7854
X5.561Y-2.7854
T0
M30
